<svg width="82" height="82" viewBox="0 0 82 82" fill="none" xmlns="http://www.w3.org/2000/svg">
<path d="M30.8017 59.004C31.5098 59.7386 31.5098 60.9276 30.8017 61.6623L24.0833 68.7915V62.7498H19.25C15.2528 62.7498 12 59.497 12 55.4998V45.8331C12 41.836 15.2528 38.5831 19.25 38.5831H28.9167V43.4165H19.25C17.9184 43.4165 16.8333 44.4991 16.8333 45.8331V55.4998C16.8333 56.8338 17.9184 57.9165 19.25 57.9165H24.0833V51.8748L30.8017 59.004ZM33.75 33.7498H48.25V48.2498H33.75V33.7498ZM38.5833 43.4165H43.4167V38.5831H38.5833V43.4165ZM33.75 14.4165H48.25V28.9165H33.75V14.4165ZM38.5833 24.0831H43.4167V19.2498H38.5833V24.0831ZM33.75 53.0831H48.25V67.5831H33.75V53.0831ZM38.5833 62.7498H43.4167V57.9165H38.5833V62.7498ZM66.375 28.9165C66.375 27.8024 66.2058 26.7294 65.8941 25.7168L69.2702 23.7714L66.8583 19.5833L63.475 21.5311C62.0105 19.9506 60.0868 18.8051 57.9143 18.3097V14.4141H53.0809V22.8724H55.4976C58.8302 22.8724 61.5393 25.5839 61.5393 28.9141C61.5393 32.2442 58.8302 34.9557 55.4976 34.9557H53.0809V43.4141H57.9143V39.5184C60.0844 39.023 62.0105 37.8775 63.475 36.297L66.8583 38.2448L69.2702 34.0567L65.8941 32.1113C66.2058 31.0987 66.375 30.0257 66.375 28.9116V28.9165Z" fill="#6ED47A"/>
</svg>
