<svg width="82" height="82" viewBox="0 0 82 82" fill="none" xmlns="http://www.w3.org/2000/svg">
<path d="M65.2119 52.649L57.6477 34.959C56.2702 31.7206 54.216 29.884 51.8719 29.7631C49.5519 29.6423 47.3044 31.2615 45.5885 34.3548L40.9969 42.5957C40.0302 44.3357 38.6527 45.3749 37.1544 45.4957C35.6318 45.6407 34.1093 44.8432 32.8768 43.2724L32.3451 42.5957C30.6293 40.4449 28.5026 39.4057 26.3276 39.6232C24.1526 39.8407 22.2918 41.339 21.0593 43.7799L16.8785 52.1174C15.3801 55.1382 15.5251 58.6424 17.2893 61.494C19.0535 64.3457 22.1226 66.0615 25.4818 66.0615H56.3185C59.5569 66.0615 62.5777 64.4424 64.366 61.7357C66.2027 59.029 66.4927 55.6215 65.2119 52.649Z" fill="#6ED47A"/>
<path d="M28.8438 32.2544C33.355 32.2544 37.012 28.5973 37.012 24.0861C37.012 19.5748 33.355 15.9177 28.8438 15.9177C24.3325 15.9177 20.6754 19.5748 20.6754 24.0861C20.6754 28.5973 24.3325 32.2544 28.8438 32.2544Z" fill="#6ED47A"/>
</svg>
