<svg width="83" height="82" viewBox="0 0 83 82" fill="none" xmlns="http://www.w3.org/2000/svg">
<g clip-path="url(#clip0_824_91039)">
<path d="M65.6667 12H60.4177C59.4652 11.9973 58.5217 12.1837 57.6419 12.5483C56.762 12.913 55.9632 13.4486 55.2919 14.1243L35.0862 34.3276C31.2177 33.3295 27.1284 33.6309 23.4482 35.1855C19.7679 36.74 16.7008 39.4615 14.7193 42.9306C12.7379 46.3997 11.9519 50.4241 12.4826 54.3838C13.0133 58.3436 14.8311 62.019 17.6561 64.844C20.4811 67.6689 24.1565 69.4868 28.1162 70.0174C32.0759 70.5481 36.1003 69.7622 39.5694 67.7807C43.0386 65.7992 45.76 62.7322 47.3146 59.0519C48.8691 55.3716 49.1705 51.2823 48.1724 47.4139L51.1667 44.4196V38.5834H58.4167V31.3334H64.2505L68.3758 27.2081C69.0512 26.5361 69.5866 25.7369 69.9512 24.8567C70.3159 23.9765 70.5024 23.0327 70.5 22.0799V16.8334C70.5 15.5515 69.9908 14.3221 69.0844 13.4157C68.1779 12.5093 66.9486 12 65.6667 12ZM65.6667 22.0799C65.6669 22.3977 65.6045 22.7124 65.483 23.006C65.3615 23.2996 65.1833 23.5663 64.9586 23.7909L62.2495 26.5H53.5833V33.75H46.3333V42.4138L42.5996 46.1475C43.4499 47.9382 43.8994 49.8928 43.9167 51.875C43.9167 54.5039 43.1371 57.0737 41.6766 59.2595C40.2161 61.4453 38.1402 63.1489 35.7115 64.1549C33.2828 65.1609 30.6103 65.4242 28.0319 64.9113C25.4536 64.3984 23.0853 63.1325 21.2264 61.2737C19.3675 59.4148 18.1016 57.0464 17.5887 54.4681C17.0759 51.8898 17.3391 49.2173 18.3451 46.7885C19.3511 44.3598 21.0548 42.2839 23.2406 40.8234C25.4264 39.3629 27.9962 38.5834 30.625 38.5834C32.6208 38.4529 34.6111 38.9099 36.3501 39.898L58.7091 17.5414C59.1635 17.0902 59.7773 16.8359 60.4177 16.8334H65.6667V22.0799ZM24.5833 55.5C24.5833 55.978 24.7251 56.4452 24.9906 56.8427C25.2562 57.2401 25.6336 57.5498 26.0752 57.7327C26.5168 57.9156 27.0027 57.9635 27.4715 57.8703C27.9403 57.777 28.3709 57.5468 28.7089 57.2089C29.0468 56.8709 29.277 56.4403 29.3702 55.9715C29.4635 55.5027 29.4156 55.0168 29.2327 54.5752C29.0498 54.1336 28.7401 53.7562 28.3426 53.4906C27.9452 53.2251 27.478 53.0834 27 53.0834C26.3591 53.0834 25.7444 53.338 25.2912 53.7912C24.838 54.2444 24.5833 54.8591 24.5833 55.5Z" fill="#6ED47A"/>
</g>
<defs>
<clipPath id="clip0_824_91039">
<rect width="58" height="58" fill="white" transform="translate(12.5 12)"/>
</clipPath>
</defs>
</svg>
