<svg width="178" height="41" viewBox="0 0 178 41" fill="none" xmlns="http://www.w3.org/2000/svg">
<g clipPath="url(#clip0_2089_1516)">
<path d="M23.9548 22.0474L11.8885 15.4894C9.35334 14.1111 8.77821 10.8541 10.602 8.21247L14.2684 2.90239C16.0922 0.260769 19.6243 -0.764824 22.1594 0.611579L34.2258 7.16963C36.761 8.54795 37.3361 11.8049 35.5123 14.4465L31.8459 19.7566C30.0221 22.3982 26.4881 23.4238 23.9529 22.0455L23.9548 22.0474Z" fill="#C7EECC"/>
<path d="M25.2487 29.0694L7.48401 24.9842C3.75323 24.1254 1.90109 20.2512 3.35026 16.3309L6.26186 8.45014C7.71104 4.52989 11.911 2.04737 15.6418 2.90427L33.4065 6.98939C37.1373 7.84821 38.9894 11.7225 37.5403 15.6427L34.6287 23.5235C33.1795 27.4437 28.9795 29.9263 25.2487 29.0694Z" fill="#86DB90"/>
<path d="M39.4059 15.8819L37.987 25.1027C37.3022 29.5578 33.2857 33.1943 28.9136 33.3994C27.1901 37.2411 32.5857 40.0169 32.5857 40.0169C24.4771 39.9153 22.519 36.0123 22.1161 33.409H7.00754C2.48785 33.409 -0.605369 29.69 0.100301 25.1027L1.51921 15.8819C2.22488 11.2945 6.46079 7.57556 10.9805 7.57556H32.4987C37.0184 7.57556 40.1116 11.2945 39.4059 15.8819Z" fill="#4AC959"/>
<path d="M13.268 20.4156C13.0505 21.8303 11.7451 22.9767 10.3507 22.9767C8.95643 22.9767 8.00482 21.8303 8.22238 20.4156C8.43995 19.0009 9.74534 17.8545 11.1397 17.8545C12.534 17.8545 13.4856 19.0009 13.268 20.4156Z" fill="white"/>
<path d="M22.2885 20.4156C22.071 21.8303 20.7656 22.9767 19.3713 22.9767C17.9769 22.9767 17.0253 21.8303 17.2429 20.4156C17.4605 19.0009 18.7659 17.8545 20.1602 17.8545C21.5545 17.8545 22.5061 19.0009 22.2885 20.4156Z" fill="white"/>
<path d="M31.3088 20.4156C31.0912 21.8303 29.7858 22.9767 28.3915 22.9767C26.9972 22.9767 26.0456 21.8303 26.2632 20.4156C26.4807 19.0009 27.7861 17.8545 29.1804 17.8545C30.5747 17.8545 31.5264 19.0009 31.3088 20.4156Z" fill="white"/>
<path d="M56.4666 35.5252L61.2795 6.15295H67.3089L62.496 35.5252H56.4666ZM62.9633 29.1876L64.1665 21.8589H65.0443L73.4083 13.497H80.3288L69.1762 24.5676H67.7459L62.9614 29.1857L62.9633 29.1876ZM70.054 35.5252L65.2278 25.9306L69.9689 21.6135L77.1164 35.5252H70.054Z" fill="#021E19"/>
<path d="M83.9385 35.5254L81.6455 13.4972H87.7449L88.6795 28.2983H88.8781L94.8224 13.4972H100.81L101.942 28.2121H102.125L107.871 13.4972H113.957L104.431 35.5254H98.0481L96.5762 21.6713H96.3076L90.3065 35.5254H83.9366H83.9385Z" fill="#021E19"/>
<path d="M113.533 35.5254L117.156 13.4972H123.186L119.563 35.5254H113.533ZM120.779 10.6294C119.882 10.6294 119.148 10.3284 118.579 9.72647C118.007 9.12453 117.769 8.39799 117.864 7.54684C117.968 6.69569 118.376 5.96724 119.088 5.35955C119.801 4.75186 120.599 4.44897 121.487 4.44897C122.374 4.44897 123.114 4.74994 123.681 5.35188C124.247 5.95382 124.478 6.68036 124.376 7.53151C124.29 8.38265 123.895 9.11111 123.187 9.7188C122.48 10.3265 121.678 10.6294 120.781 10.6294H120.779Z" fill="#021E19"/>
<path d="M134.14 35.9567C131.913 35.9567 130.078 35.4755 128.634 34.5151C127.191 33.5547 126.183 32.2186 125.613 30.5067C125.042 28.7948 124.941 26.8261 125.309 24.5985C125.668 22.3422 126.417 20.36 127.56 18.6539C128.701 16.9478 130.152 15.6135 131.911 14.6531C133.671 13.6927 135.649 13.2115 137.848 13.2115C139.744 13.2115 141.346 13.5604 142.653 14.2582C143.961 14.956 144.922 15.9356 145.54 17.1989C146.159 18.4603 146.373 19.944 146.183 21.6444H140.495C140.514 20.5536 140.235 19.6699 139.66 18.9913C139.085 18.3127 138.255 17.9734 137.169 17.9734C136.225 17.9734 135.362 18.2283 134.579 18.7402C133.795 19.252 133.13 19.9958 132.583 20.9696C132.036 21.9454 131.654 23.1263 131.436 24.5122C131.209 25.9174 131.205 27.1136 131.423 28.097C131.641 29.0824 132.055 29.8319 132.668 30.3495C133.281 30.8652 134.055 31.124 134.989 31.124C135.687 31.124 136.336 30.9802 136.936 30.6926C137.536 30.4051 138.062 29.9872 138.514 29.4389C138.966 28.8907 139.316 28.2274 139.562 27.4529H145.251C144.872 29.1456 144.174 30.6275 143.156 31.8984C142.137 33.1694 140.864 34.1643 139.335 34.8813C137.806 35.5982 136.075 35.9567 134.14 35.9567Z" fill="#021E19"/>
<path d="M61.2793 6.1554H55.6699L61.2793 9.698V6.1554Z" fill="#021E19"/>
</g>
<defs>
<clipPath id="clip0_2089_1516">
<rect width="178" height="40.0168" fill="white"/>
</clipPath>
</defs>
</svg>
