<svg width="36" height="35" viewBox="0 0 36 35" fill="none" xmlns="http://www.w3.org/2000/svg">
<rect x="0.60878" width="34.7824" height="34.7824" rx="17.3912" fill="url(#paint0_linear_8996_102357)"/>
<path d="M27.0396 10.8511L23.0303 13.0568C22.2766 12.2685 21.5315 11.7215 20.7951 11.4158C20.0587 11.11 19.1961 10.9572 18.2074 10.9572C16.4055 10.9572 14.9481 11.4943 13.8353 12.5686C12.7224 13.6429 12.166 15.02 12.166 16.6997C12.166 18.3324 12.7017 19.6655 13.7732 20.6988C14.8447 21.7321 16.252 22.249 17.9953 22.2494C20.1507 22.2494 21.829 21.5142 23.0303 20.0437L26.8269 22.6441C24.7683 25.3218 21.863 26.6605 18.111 26.6601C14.7362 26.6601 12.0924 25.6603 10.1797 23.6608C8.26689 21.6612 7.31151 19.3204 7.31352 16.6382C7.31352 14.7797 7.77815 13.0682 8.70742 11.5038C9.63669 9.93933 10.9336 8.71015 12.598 7.81624C14.2625 6.92233 16.1241 6.47537 18.1827 6.47537C20.0882 6.47537 21.7997 6.85463 23.3171 7.61315C24.8153 8.35511 26.0973 9.4702 27.0396 10.8511Z" fill="white"/>
<path d="M16.3254 17.8386C17.0273 17.8386 17.5963 17.2696 17.5963 16.5677C17.5963 15.8657 17.0273 15.2967 16.3254 15.2967C15.6235 15.2967 15.0544 15.8657 15.0544 16.5677C15.0544 17.2696 15.6235 17.8386 16.3254 17.8386Z" fill="white"/>
<path d="M19.9171 17.8386C20.6191 17.8386 21.1881 17.2696 21.1881 16.5677C21.1881 15.8657 20.6191 15.2967 19.9171 15.2967C19.2152 15.2967 18.6462 15.8657 18.6462 16.5677C18.6462 17.2696 19.2152 17.8386 19.9171 17.8386Z" fill="white"/>
<path d="M23.5088 17.8386C24.2107 17.8386 24.7798 17.2696 24.7798 16.5677C24.7798 15.8657 24.2107 15.2967 23.5088 15.2967C22.8069 15.2967 22.2378 15.8657 22.2378 16.5677C22.2378 17.2696 22.8069 17.8386 23.5088 17.8386Z" fill="white"/>
<path d="M26.8402 22.6405L18.9553 30.6802L19.1855 24.8678L26.8402 22.6405Z" fill="white"/>
<path d="M27.0396 10.8511L23.0303 13.0568C22.2766 12.2685 21.5315 11.7215 20.7951 11.4158C20.0587 11.11 19.1961 10.9572 18.2074 10.9572C16.4055 10.9572 14.9481 11.4943 13.8353 12.5686C12.7224 13.6429 12.166 15.02 12.166 16.6997C12.166 18.3324 12.7017 19.6655 13.7732 20.6988C14.8447 21.7321 16.252 22.249 17.9953 22.2494C20.1507 22.2494 21.829 21.5142 23.0303 20.0437L26.8269 22.6441C24.7683 25.3218 21.863 26.6605 18.111 26.6601C14.7362 26.6601 12.0924 25.6603 10.1797 23.6608C8.26689 21.6612 7.31151 19.3204 7.31352 16.6382C7.31352 14.7797 7.77815 13.0682 8.70742 11.5038C9.63669 9.93933 10.9336 8.71015 12.598 7.81624C14.2625 6.92233 16.1241 6.47537 18.1827 6.47537C20.0882 6.47537 21.7997 6.85463 23.3171 7.61315C24.8153 8.35511 26.0973 9.4702 27.0396 10.8511Z" fill="white"/>
<path d="M16.3254 17.8386C17.0273 17.8386 17.5963 17.2696 17.5963 16.5677C17.5963 15.8657 17.0273 15.2967 16.3254 15.2967C15.6235 15.2967 15.0544 15.8657 15.0544 16.5677C15.0544 17.2696 15.6235 17.8386 16.3254 17.8386Z" fill="white"/>
<path d="M19.9171 17.8386C20.6191 17.8386 21.1881 17.2696 21.1881 16.5677C21.1881 15.8657 20.6191 15.2967 19.9171 15.2967C19.2152 15.2967 18.6462 15.8657 18.6462 16.5677C18.6462 17.2696 19.2152 17.8386 19.9171 17.8386Z" fill="white"/>
<path d="M23.5088 17.8386C24.2107 17.8386 24.7798 17.2696 24.7798 16.5677C24.7798 15.8657 24.2107 15.2967 23.5088 15.2967C22.8069 15.2967 22.2378 15.8657 22.2378 16.5677C22.2378 17.2696 22.8069 17.8386 23.5088 17.8386Z" fill="white"/>
<path d="M26.8402 22.6405L18.9553 30.6802L19.1855 24.8678L26.8402 22.6405Z" fill="white"/>
<path d="M27.0396 10.8511L23.0303 13.0568C22.2766 12.2685 21.5315 11.7215 20.7951 11.4158C20.0587 11.11 19.1961 10.9572 18.2074 10.9572C16.4055 10.9572 14.9481 11.4943 13.8353 12.5686C12.7224 13.6429 12.166 15.02 12.166 16.6997C12.166 18.3324 12.7017 19.6655 13.7732 20.6988C14.8447 21.7321 16.252 22.249 17.9953 22.2494C20.1507 22.2494 21.829 21.5142 23.0303 20.0437L26.8269 22.6441C24.7683 25.3218 21.863 26.6605 18.111 26.6601C14.7362 26.6601 12.0924 25.6603 10.1797 23.6608C8.26689 21.6612 7.31151 19.3204 7.31352 16.6382C7.31352 14.7797 7.77815 13.0682 8.70742 11.5038C9.63669 9.93933 10.9336 8.71015 12.598 7.81624C14.2625 6.92233 16.1241 6.47537 18.1827 6.47537C20.0882 6.47537 21.7997 6.85463 23.3171 7.61315C24.8153 8.35511 26.0973 9.4702 27.0396 10.8511Z" fill="white"/>
<path d="M16.3254 17.8386C17.0273 17.8386 17.5963 17.2696 17.5963 16.5677C17.5963 15.8657 17.0273 15.2967 16.3254 15.2967C15.6235 15.2967 15.0544 15.8657 15.0544 16.5677C15.0544 17.2696 15.6235 17.8386 16.3254 17.8386Z" fill="white"/>
<path d="M19.9171 17.8386C20.6191 17.8386 21.1881 17.2696 21.1881 16.5677C21.1881 15.8657 20.6191 15.2967 19.9171 15.2967C19.2152 15.2967 18.6462 15.8657 18.6462 16.5677C18.6462 17.2696 19.2152 17.8386 19.9171 17.8386Z" fill="white"/>
<path d="M23.5088 17.8386C24.2107 17.8386 24.7798 17.2696 24.7798 16.5677C24.7798 15.8657 24.2107 15.2967 23.5088 15.2967C22.8069 15.2967 22.2378 15.8657 22.2378 16.5677C22.2378 17.2696 22.8069 17.8386 23.5088 17.8386Z" fill="white"/>
<path d="M26.8402 22.6405L18.9553 30.6802L19.1855 24.8678L26.8402 22.6405Z" fill="white"/>
<path d="M27.0396 10.8511L23.0303 13.0568C22.2766 12.2685 21.5315 11.7215 20.7951 11.4158C20.0587 11.11 19.1961 10.9572 18.2074 10.9572C16.4055 10.9572 14.9481 11.4943 13.8353 12.5686C12.7224 13.6429 12.166 15.02 12.166 16.6997C12.166 18.3324 12.7017 19.6655 13.7732 20.6988C14.8447 21.7321 16.252 22.249 17.9953 22.2494C20.1507 22.2494 21.829 21.5142 23.0303 20.0437L26.8269 22.6441C24.7683 25.3218 21.863 26.6605 18.111 26.6601C14.7362 26.6601 12.0924 25.6603 10.1797 23.6608C8.26689 21.6612 7.31151 19.3204 7.31352 16.6382C7.31352 14.7797 7.77815 13.0682 8.70742 11.5038C9.63669 9.93933 10.9336 8.71015 12.598 7.81624C14.2625 6.92233 16.1241 6.47537 18.1827 6.47537C20.0882 6.47537 21.7997 6.85463 23.3171 7.61315C24.8153 8.35511 26.0973 9.4702 27.0396 10.8511Z" fill="white"/>
<path d="M16.3254 17.8386C17.0273 17.8386 17.5963 17.2696 17.5963 16.5677C17.5963 15.8657 17.0273 15.2967 16.3254 15.2967C15.6235 15.2967 15.0544 15.8657 15.0544 16.5677C15.0544 17.2696 15.6235 17.8386 16.3254 17.8386Z" fill="white"/>
<path d="M19.9171 17.8386C20.6191 17.8386 21.1881 17.2696 21.1881 16.5677C21.1881 15.8657 20.6191 15.2967 19.9171 15.2967C19.2152 15.2967 18.6462 15.8657 18.6462 16.5677C18.6462 17.2696 19.2152 17.8386 19.9171 17.8386Z" fill="white"/>
<path d="M23.5088 17.8386C24.2107 17.8386 24.7798 17.2696 24.7798 16.5677C24.7798 15.8657 24.2107 15.2967 23.5088 15.2967C22.8069 15.2967 22.2378 15.8657 22.2378 16.5677C22.2378 17.2696 22.8069 17.8386 23.5088 17.8386Z" fill="white"/>
<path d="M26.8402 22.6405L18.9553 30.6802L19.1855 24.8678L26.8402 22.6405Z" fill="white"/>
<defs>
<linearGradient id="paint0_linear_8996_102357" x1="35.3912" y1="17.3912" x2="0.60878" y2="17.3912" gradientUnits="userSpaceOnUse">
<stop stop-color="#7367F0" stop-opacity="0.7"/>
<stop offset="1" stop-color="#7367F0"/>
</linearGradient>
</defs>
</svg>
