<svg width="443" height="603" viewBox="0 0 443 603" fill="none" xmlns="http://www.w3.org/2000/svg">
<rect width="46.3994" height="46.3994" rx="23.1997" fill="#4AC959"/>
<path d="M35.2585 14.4753L29.9101 17.4176C28.9047 16.3661 27.9108 15.6364 26.9284 15.2285C25.946 14.8207 24.7953 14.6167 23.4764 14.6167C21.0727 14.6167 19.1286 15.3333 17.644 16.7664C16.1595 18.1995 15.4172 20.0364 15.4172 22.2772C15.4172 24.4553 16.1319 26.2335 17.5612 27.612C18.9906 28.9904 20.868 29.6799 23.1934 29.6804C26.0687 29.6804 28.3076 28.6997 29.9101 26.7381L34.9747 30.207C32.2286 33.779 28.3529 35.5648 23.3478 35.5642C18.8459 35.5642 15.3191 34.2306 12.7675 31.5632C10.2159 28.8958 8.94142 25.7732 8.9441 22.1952C8.9441 19.716 9.56391 17.4328 10.8035 15.3459C12.0432 13.2589 13.7732 11.6192 15.9936 10.4268C18.214 9.2343 20.6973 8.63806 23.4434 8.63806C25.9854 8.63806 28.2685 9.14399 30.2928 10.1558C32.2913 11.1456 34.0014 12.6331 35.2585 14.4753Z" fill="white"/>
<path d="M20.9657 23.7965C21.9021 23.7965 22.6612 23.0375 22.6612 22.1011C22.6612 21.1647 21.9021 20.4056 20.9657 20.4056C20.0293 20.4056 19.2703 21.1647 19.2703 22.1011C19.2703 23.0375 20.0293 23.7965 20.9657 23.7965Z" fill="white"/>
<path d="M25.757 23.7965C26.6933 23.7965 27.4524 23.0375 27.4524 22.1011C27.4524 21.1647 26.6933 20.4056 25.757 20.4056C24.8206 20.4056 24.0615 21.1647 24.0615 22.1011C24.0615 23.0375 24.8206 23.7965 25.757 23.7965Z" fill="white"/>
<path d="M30.5485 23.7965C31.4848 23.7965 32.2439 23.0375 32.2439 22.1011C32.2439 21.1647 31.4848 20.4056 30.5485 20.4056C29.6121 20.4056 28.853 21.1647 28.853 22.1011C28.853 23.0375 29.6121 23.7965 30.5485 23.7965Z" fill="white"/>
<path d="M34.9925 30.2021L24.4741 40.9271L24.7812 33.1734L34.9925 30.2021Z" fill="white"/>
<path d="M35.2585 14.4753L29.9101 17.4176C28.9047 16.3661 27.9108 15.6364 26.9284 15.2285C25.946 14.8207 24.7953 14.6167 23.4764 14.6167C21.0727 14.6167 19.1286 15.3333 17.644 16.7664C16.1595 18.1995 15.4172 20.0364 15.4172 22.2772C15.4172 24.4553 16.1319 26.2335 17.5612 27.612C18.9906 28.9904 20.868 29.6799 23.1934 29.6804C26.0687 29.6804 28.3076 28.6997 29.9101 26.7381L34.9747 30.207C32.2286 33.779 28.3529 35.5648 23.3478 35.5642C18.8459 35.5642 15.3191 34.2306 12.7675 31.5632C10.2159 28.8958 8.94142 25.7732 8.9441 22.1952C8.9441 19.716 9.56391 17.4328 10.8035 15.3459C12.0432 13.2589 13.7732 11.6192 15.9936 10.4268C18.214 9.2343 20.6973 8.63806 23.4434 8.63806C25.9854 8.63806 28.2685 9.14399 30.2928 10.1558C32.2913 11.1456 34.0014 12.6331 35.2585 14.4753Z" fill="white"/>
<path d="M20.9657 23.7965C21.9021 23.7965 22.6612 23.0375 22.6612 22.1011C22.6612 21.1647 21.9021 20.4056 20.9657 20.4056C20.0293 20.4056 19.2703 21.1647 19.2703 22.1011C19.2703 23.0375 20.0293 23.7965 20.9657 23.7965Z" fill="white"/>
<path d="M25.757 23.7965C26.6933 23.7965 27.4524 23.0375 27.4524 22.1011C27.4524 21.1647 26.6933 20.4056 25.757 20.4056C24.8206 20.4056 24.0615 21.1647 24.0615 22.1011C24.0615 23.0375 24.8206 23.7965 25.757 23.7965Z" fill="white"/>
<path d="M30.5485 23.7965C31.4848 23.7965 32.2439 23.0375 32.2439 22.1011C32.2439 21.1647 31.4848 20.4056 30.5485 20.4056C29.6121 20.4056 28.853 21.1647 28.853 22.1011C28.853 23.0375 29.6121 23.7965 30.5485 23.7965Z" fill="white"/>
<path d="M34.9925 30.2021L24.4741 40.9271L24.7812 33.1734L34.9925 30.2021Z" fill="white"/>
<path d="M35.2585 14.4753L29.9101 17.4176C28.9047 16.3661 27.9108 15.6364 26.9284 15.2285C25.946 14.8207 24.7953 14.6167 23.4764 14.6167C21.0727 14.6167 19.1286 15.3333 17.644 16.7664C16.1595 18.1995 15.4172 20.0364 15.4172 22.2772C15.4172 24.4553 16.1319 26.2335 17.5612 27.612C18.9906 28.9904 20.868 29.6799 23.1934 29.6804C26.0687 29.6804 28.3076 28.6997 29.9101 26.7381L34.9747 30.207C32.2286 33.779 28.3529 35.5648 23.3478 35.5642C18.8459 35.5642 15.3191 34.2306 12.7675 31.5632C10.2159 28.8958 8.94142 25.7732 8.9441 22.1952C8.9441 19.716 9.56391 17.4328 10.8035 15.3459C12.0432 13.2589 13.7732 11.6192 15.9936 10.4268C18.214 9.2343 20.6973 8.63806 23.4434 8.63806C25.9854 8.63806 28.2685 9.14399 30.2928 10.1558C32.2913 11.1456 34.0014 12.6331 35.2585 14.4753Z" fill="white"/>
<path d="M20.9657 23.7965C21.9021 23.7965 22.6612 23.0375 22.6612 22.1011C22.6612 21.1647 21.9021 20.4056 20.9657 20.4056C20.0293 20.4056 19.2703 21.1647 19.2703 22.1011C19.2703 23.0375 20.0293 23.7965 20.9657 23.7965Z" fill="white"/>
<path d="M25.757 23.7965C26.6933 23.7965 27.4524 23.0375 27.4524 22.1011C27.4524 21.1647 26.6933 20.4056 25.757 20.4056C24.8206 20.4056 24.0615 21.1647 24.0615 22.1011C24.0615 23.0375 24.8206 23.7965 25.757 23.7965Z" fill="white"/>
<path d="M30.5485 23.7965C31.4848 23.7965 32.2439 23.0375 32.2439 22.1011C32.2439 21.1647 31.4848 20.4056 30.5485 20.4056C29.6121 20.4056 28.853 21.1647 28.853 22.1011C28.853 23.0375 29.6121 23.7965 30.5485 23.7965Z" fill="white"/>
<path d="M34.9925 30.2021L24.4741 40.9271L24.7812 33.1734L34.9925 30.2021Z" fill="white"/>
<path d="M35.2585 14.4753L29.9101 17.4176C28.9047 16.3661 27.9108 15.6364 26.9284 15.2285C25.946 14.8207 24.7953 14.6167 23.4764 14.6167C21.0727 14.6167 19.1286 15.3333 17.644 16.7664C16.1595 18.1995 15.4172 20.0364 15.4172 22.2772C15.4172 24.4553 16.1319 26.2335 17.5612 27.612C18.9906 28.9904 20.868 29.6799 23.1934 29.6804C26.0687 29.6804 28.3076 28.6997 29.9101 26.7381L34.9747 30.207C32.2286 33.779 28.3529 35.5648 23.3478 35.5642C18.8459 35.5642 15.3191 34.2306 12.7675 31.5632C10.2159 28.8958 8.94142 25.7732 8.9441 22.1952C8.9441 19.716 9.56391 17.4328 10.8035 15.3459C12.0432 13.2589 13.7732 11.6192 15.9936 10.4268C18.214 9.2343 20.6973 8.63806 23.4434 8.63806C25.9854 8.63806 28.2685 9.14399 30.2928 10.1558C32.2913 11.1456 34.0014 12.6331 35.2585 14.4753Z" fill="white"/>
<path d="M20.9657 23.7965C21.9021 23.7965 22.6612 23.0375 22.6612 22.1011C22.6612 21.1647 21.9021 20.4056 20.9657 20.4056C20.0293 20.4056 19.2703 21.1647 19.2703 22.1011C19.2703 23.0375 20.0293 23.7965 20.9657 23.7965Z" fill="white"/>
<path d="M25.757 23.7965C26.6933 23.7965 27.4524 23.0375 27.4524 22.1011C27.4524 21.1647 26.6933 20.4056 25.757 20.4056C24.8206 20.4056 24.0615 21.1647 24.0615 22.1011C24.0615 23.0375 24.8206 23.7965 25.757 23.7965Z" fill="white"/>
<path d="M30.5485 23.7965C31.4848 23.7965 32.2439 23.0375 32.2439 22.1011C32.2439 21.1647 31.4848 20.4056 30.5485 20.4056C29.6121 20.4056 28.853 21.1647 28.853 22.1011C28.853 23.0375 29.6121 23.7965 30.5485 23.7965Z" fill="white"/>
<path d="M34.9925 30.2021L24.4741 40.9271L24.7812 33.1734L34.9925 30.2021Z" fill="white"/>
<path d="M55.217 8.73987H59.9798V23.8888L66.9986 16.0662H72.978L64.796 25.1605L73.9472 35.0403H68.0364L59.9798 26.2952V35.0403H55.217V8.73987Z" fill="#0F2925"/>
<path d="M73.8003 16.0663H78.4611L82.2763 26.8619L86.3823 16.0663H89.235L93.2658 26.7399L97.0893 16.0663H101.769L94.8517 35.0404H91.8353L87.7878 24.2281L83.6199 35.0404H80.6369L73.8003 16.0663Z" fill="#0F2925"/>
<path d="M106.327 8.25206C106.729 8.24699 107.126 8.32499 107.496 8.48115C107.866 8.63732 108.199 8.86828 108.475 9.15949C108.765 9.44591 108.995 9.78842 109.149 10.1662C109.303 10.544 109.378 10.9492 109.371 11.3571C109.378 11.7604 109.303 12.161 109.15 12.5345C108.998 12.908 108.771 13.2465 108.483 13.5295C108.211 13.8177 107.882 14.0463 107.517 14.2011C107.152 14.3558 106.759 14.4333 106.362 14.4286C105.957 14.4353 105.554 14.3573 105.18 14.1996C104.806 14.0419 104.469 13.808 104.19 13.5128C103.9 13.2209 103.672 12.8737 103.52 12.4918C103.367 12.11 103.293 11.7014 103.301 11.2902C103.3 10.4866 103.619 9.71572 104.186 9.14673C104.754 8.57774 105.524 8.25718 106.327 8.25541V8.25206ZM103.941 16.0663H108.702V35.0405H103.941V16.0663Z" fill="#0F2925"/>
<path d="M131.608 19.9033L127.644 22.0758C126.899 21.2959 126.163 20.7556 125.435 20.4548C124.621 20.136 123.751 19.9815 122.877 20.0002C121.094 20.0002 119.654 20.5317 118.555 21.5945C117.457 22.6574 116.907 24.0182 116.906 25.6771C116.906 27.2914 117.435 28.6094 118.495 29.631C119.554 30.6527 120.947 31.1629 122.673 31.1618C124.804 31.1618 126.463 30.4376 127.649 28.9893L131.403 31.5595C129.361 34.2066 126.487 35.5302 122.783 35.5302C119.441 35.5302 116.828 34.5414 114.944 32.5639C113.06 30.5864 112.113 28.273 112.103 25.6236C112.089 23.8309 112.569 22.0689 113.49 20.5309C114.412 18.9928 115.738 17.7379 117.325 16.9036C119.023 16.007 120.92 15.5508 122.84 15.5767C124.597 15.5488 126.335 15.9346 127.915 16.7031C129.401 17.4346 130.673 18.5368 131.608 19.9033Z" fill="#0F2925"/>
<path d="M131.398 31.561L123.604 39.5073L123.832 33.7619L131.398 31.561Z" fill="#0F2925"/>
<path d="M121.017 26.81C121.711 26.81 122.273 26.2474 122.273 25.5533C122.273 24.8593 121.711 24.2966 121.017 24.2966C120.323 24.2966 119.76 24.8593 119.76 25.5533C119.76 26.2474 120.323 26.81 121.017 26.81Z" fill="#0F2925"/>
<path d="M124.566 26.81C125.26 26.81 125.823 26.2474 125.823 25.5533C125.823 24.8593 125.26 24.2966 124.566 24.2966C123.872 24.2966 123.309 24.8593 123.309 25.5533C123.309 26.2474 123.872 26.81 124.566 26.81Z" fill="#0F2925"/>
<path d="M128.117 26.81C128.811 26.81 129.374 26.2474 129.374 25.5533C129.374 24.8593 128.811 24.2966 128.117 24.2966C127.423 24.2966 126.861 24.8593 126.861 25.5533C126.861 26.2474 127.423 26.81 128.117 26.81Z" fill="#0F2925"/>
<path d="M55.217 8.73987H59.9798V23.8888L66.9986 16.0662H72.978L64.796 25.1605L73.9472 35.0403H68.0364L59.9798 26.2952V35.0403H55.217V8.73987Z" fill="#0F2925"/>
<path d="M73.8003 16.0663H78.4611L82.2763 26.8619L86.3823 16.0663H89.235L93.2658 26.7399L97.0893 16.0663H101.769L94.8517 35.0404H91.8353L87.7878 24.2281L83.6199 35.0404H80.6369L73.8003 16.0663Z" fill="#0F2925"/>
<path d="M106.327 8.25206C106.729 8.24699 107.126 8.32499 107.496 8.48115C107.866 8.63732 108.199 8.86828 108.475 9.15949C108.765 9.44591 108.995 9.78842 109.149 10.1662C109.303 10.544 109.378 10.9492 109.371 11.3571C109.378 11.7604 109.303 12.161 109.15 12.5345C108.998 12.908 108.771 13.2465 108.483 13.5295C108.211 13.8177 107.882 14.0463 107.517 14.2011C107.152 14.3558 106.759 14.4333 106.362 14.4286C105.957 14.4353 105.554 14.3573 105.18 14.1996C104.806 14.0419 104.469 13.808 104.19 13.5128C103.9 13.2209 103.672 12.8737 103.52 12.4918C103.367 12.11 103.293 11.7014 103.301 11.2902C103.3 10.4866 103.619 9.71572 104.186 9.14673C104.754 8.57774 105.524 8.25718 106.327 8.25541V8.25206ZM103.941 16.0663H108.702V35.0405H103.941V16.0663Z" fill="#0F2925"/>
<path d="M131.608 19.9033L127.644 22.0758C126.899 21.2959 126.163 20.7556 125.435 20.4548C124.621 20.136 123.751 19.9815 122.877 20.0002C121.094 20.0002 119.654 20.5317 118.555 21.5945C117.457 22.6574 116.907 24.0182 116.906 25.6771C116.906 27.2914 117.435 28.6094 118.495 29.631C119.554 30.6527 120.947 31.1629 122.673 31.1618C124.804 31.1618 126.463 30.4376 127.649 28.9893L131.403 31.5595C129.361 34.2066 126.487 35.5302 122.783 35.5302C119.441 35.5302 116.828 34.5414 114.944 32.5639C113.06 30.5864 112.113 28.273 112.103 25.6236C112.089 23.8309 112.569 22.0689 113.49 20.5309C114.412 18.9928 115.738 17.7379 117.325 16.9036C119.023 16.007 120.92 15.5508 122.84 15.5767C124.597 15.5488 126.335 15.9346 127.915 16.7031C129.401 17.4346 130.673 18.5368 131.608 19.9033Z" fill="#0F2925"/>
<path d="M131.398 31.561L123.604 39.5073L123.832 33.7619L131.398 31.561Z" fill="#0F2925"/>
<path d="M121.017 26.81C121.711 26.81 122.273 26.2474 122.273 25.5533C122.273 24.8593 121.711 24.2966 121.017 24.2966C120.323 24.2966 119.76 24.8593 119.76 25.5533C119.76 26.2474 120.323 26.81 121.017 26.81Z" fill="#0F2925"/>
<path d="M124.566 26.81C125.26 26.81 125.823 26.2474 125.823 25.5533C125.823 24.8593 125.26 24.2966 124.566 24.2966C123.872 24.2966 123.309 24.8593 123.309 25.5533C123.309 26.2474 123.872 26.81 124.566 26.81Z" fill="#0F2925"/>
<path d="M128.117 26.81C128.811 26.81 129.374 26.2474 129.374 25.5533C129.374 24.8593 128.811 24.2966 128.117 24.2966C127.423 24.2966 126.861 24.8593 126.861 25.5533C126.861 26.2474 127.423 26.81 128.117 26.81Z" fill="#0F2925"/>
<path d="M55.217 8.73987H59.9798V23.8888L66.9986 16.0662H72.978L64.796 25.1605L73.9472 35.0403H68.0364L59.9798 26.2952V35.0403H55.217V8.73987Z" fill="#0F2925"/>
<path d="M73.8003 16.0663H78.4611L82.2763 26.8619L86.3823 16.0663H89.235L93.2658 26.7399L97.0893 16.0663H101.769L94.8517 35.0404H91.8353L87.7878 24.2281L83.6199 35.0404H80.6369L73.8003 16.0663Z" fill="#0F2925"/>
<path d="M106.327 8.25206C106.729 8.24699 107.126 8.32499 107.496 8.48115C107.866 8.63732 108.199 8.86828 108.475 9.15949C108.765 9.44591 108.995 9.78842 109.149 10.1662C109.303 10.544 109.378 10.9492 109.371 11.3571C109.378 11.7604 109.303 12.161 109.15 12.5345C108.998 12.908 108.771 13.2465 108.483 13.5295C108.211 13.8177 107.882 14.0463 107.517 14.2011C107.152 14.3558 106.759 14.4333 106.362 14.4286C105.957 14.4353 105.554 14.3573 105.18 14.1996C104.806 14.0419 104.469 13.808 104.19 13.5128C103.9 13.2209 103.672 12.8737 103.52 12.4918C103.367 12.11 103.293 11.7014 103.301 11.2902C103.3 10.4866 103.619 9.71572 104.186 9.14673C104.754 8.57774 105.524 8.25718 106.327 8.25541V8.25206ZM103.941 16.0663H108.702V35.0405H103.941V16.0663Z" fill="#0F2925"/>
<path d="M131.608 19.9033L127.644 22.0758C126.899 21.2959 126.163 20.7556 125.435 20.4548C124.621 20.136 123.751 19.9815 122.877 20.0002C121.094 20.0002 119.654 20.5317 118.555 21.5945C117.457 22.6574 116.907 24.0182 116.906 25.6771C116.906 27.2914 117.435 28.6094 118.495 29.631C119.554 30.6527 120.947 31.1629 122.673 31.1618C124.804 31.1618 126.463 30.4376 127.649 28.9893L131.403 31.5595C129.361 34.2066 126.487 35.5302 122.783 35.5302C119.441 35.5302 116.828 34.5414 114.944 32.5639C113.06 30.5864 112.113 28.273 112.103 25.6236C112.089 23.8309 112.569 22.0689 113.49 20.5309C114.412 18.9928 115.738 17.7379 117.325 16.9036C119.023 16.007 120.92 15.5508 122.84 15.5767C124.597 15.5488 126.335 15.9346 127.915 16.7031C129.401 17.4346 130.673 18.5368 131.608 19.9033Z" fill="#0F2925"/>
<path d="M131.398 31.561L123.604 39.5073L123.832 33.7619L131.398 31.561Z" fill="#0F2925"/>
<path d="M121.017 26.81C121.711 26.81 122.273 26.2474 122.273 25.5533C122.273 24.8593 121.711 24.2966 121.017 24.2966C120.323 24.2966 119.76 24.8593 119.76 25.5533C119.76 26.2474 120.323 26.81 121.017 26.81Z" fill="#0F2925"/>
<path d="M124.566 26.81C125.26 26.81 125.823 26.2474 125.823 25.5533C125.823 24.8593 125.26 24.2966 124.566 24.2966C123.872 24.2966 123.309 24.8593 123.309 25.5533C123.309 26.2474 123.872 26.81 124.566 26.81Z" fill="#0F2925"/>
<path d="M128.117 26.81C128.811 26.81 129.374 26.2474 129.374 25.5533C129.374 24.8593 128.811 24.2966 128.117 24.2966C127.423 24.2966 126.861 24.8593 126.861 25.5533C126.861 26.2474 127.423 26.81 128.117 26.81Z" fill="#0F2925"/>
<path d="M55.217 8.73987H59.9798V23.8888L66.9986 16.0662H72.978L64.796 25.1605L73.9472 35.0403H68.0364L59.9798 26.2952V35.0403H55.217V8.73987Z" fill="#0F2925"/>
<path d="M73.8003 16.0663H78.4611L82.2763 26.8619L86.3823 16.0663H89.235L93.2658 26.7399L97.0893 16.0663H101.769L94.8517 35.0404H91.8353L87.7878 24.2281L83.6199 35.0404H80.6369L73.8003 16.0663Z" fill="#0F2925"/>
<path d="M106.327 8.25206C106.729 8.24699 107.126 8.32499 107.496 8.48115C107.866 8.63732 108.199 8.86828 108.475 9.15949C108.765 9.44591 108.995 9.78842 109.149 10.1662C109.303 10.544 109.378 10.9492 109.371 11.3571C109.378 11.7604 109.303 12.161 109.15 12.5345C108.998 12.908 108.771 13.2465 108.483 13.5295C108.211 13.8177 107.882 14.0463 107.517 14.2011C107.152 14.3558 106.759 14.4333 106.362 14.4286C105.957 14.4353 105.554 14.3573 105.18 14.1996C104.806 14.0419 104.469 13.808 104.19 13.5128C103.9 13.2209 103.672 12.8737 103.52 12.4918C103.367 12.11 103.293 11.7014 103.301 11.2902C103.3 10.4866 103.619 9.71572 104.186 9.14673C104.754 8.57774 105.524 8.25718 106.327 8.25541V8.25206ZM103.941 16.0663H108.702V35.0405H103.941V16.0663Z" fill="#0F2925"/>
<path d="M131.608 19.9033L127.644 22.0758C126.899 21.2959 126.163 20.7556 125.435 20.4548C124.621 20.136 123.751 19.9815 122.877 20.0002C121.094 20.0002 119.654 20.5317 118.555 21.5945C117.457 22.6574 116.907 24.0182 116.906 25.6771C116.906 27.2914 117.435 28.6094 118.495 29.631C119.554 30.6527 120.947 31.1629 122.673 31.1618C124.804 31.1618 126.463 30.4376 127.649 28.9893L131.403 31.5595C129.361 34.2066 126.487 35.5302 122.783 35.5302C119.441 35.5302 116.828 34.5414 114.944 32.5639C113.06 30.5864 112.113 28.273 112.103 25.6236C112.089 23.8309 112.569 22.0689 113.49 20.5309C114.412 18.9928 115.738 17.7379 117.325 16.9036C119.023 16.007 120.92 15.5508 122.84 15.5767C124.597 15.5488 126.335 15.9346 127.915 16.7031C129.401 17.4346 130.673 18.5368 131.608 19.9033Z" fill="#0F2925"/>
<path d="M131.398 31.561L123.604 39.5073L123.832 33.7619L131.398 31.561Z" fill="#0F2925"/>
<path d="M121.017 26.81C121.711 26.81 122.273 26.2474 122.273 25.5533C122.273 24.8593 121.711 24.2966 121.017 24.2966C120.323 24.2966 119.76 24.8593 119.76 25.5533C119.76 26.2474 120.323 26.81 121.017 26.81Z" fill="#0F2925"/>
<path d="M124.566 26.81C125.26 26.81 125.823 26.2474 125.823 25.5533C125.823 24.8593 125.26 24.2966 124.566 24.2966C123.872 24.2966 123.309 24.8593 123.309 25.5533C123.309 26.2474 123.872 26.81 124.566 26.81Z" fill="#0F2925"/>
<path d="M128.117 26.81C128.811 26.81 129.374 26.2474 129.374 25.5533C129.374 24.8593 128.811 24.2966 128.117 24.2966C127.423 24.2966 126.861 24.8593 126.861 25.5533C126.861 26.2474 127.423 26.81 128.117 26.81Z" fill="#0F2925"/>
<g clip-path="url(#clip0_1502_3334)">
<path d="M149.673 292.721C156.916 286.164 165.339 279.718 172.583 273.16C169.969 273.349 167.356 273.539 164.743 273.728C168.369 269.999 171.996 266.272 175.623 262.543C173.785 262.761 171.947 262.979 170.11 263.197C172.516 258.737 174.863 254.334 177.269 249.874C185.616 279.982 184.95 277.115 185.078 278.451C185.302 280.817 184.585 283.054 182.857 284.733C182.089 285.479 184.652 284.735 149.673 292.721Z" fill="#3C524E"/>
<path d="M199.021 275.943L175.774 189.867C173.062 179.826 162.704 173.879 152.638 176.585L147.974 177.839L145.192 178.586C145.183 178.588 145.175 178.59 145.166 178.593L144.72 178.713L142.115 179.413C142.289 180.378 142.455 181.346 142.614 182.317C148.999 221.369 142.747 264.908 113.562 292.301C109.733 295.893 93.7058 287.135 90.1748 285.383C82.9819 281.818 76.4823 276.991 70.451 271.751C58.8523 261.668 49.8303 248.919 42.2875 235.644C38.0735 228.23 34.2506 220.385 31.0218 212.308C30.6564 211.394 30.2991 210.477 29.9499 209.558L27.1519 210.31L23.9708 211.165L15.3546 213.481C15.3502 213.482 15.3458 213.483 15.3414 213.484L14.1762 213.797C6.53998 215.849 1.26589 222.292 0.349875 229.667C0.0580138 232.013 0.207253 234.453 0.861551 236.877L24.1083 322.953C24.4523 324.226 24.9192 325.434 25.4933 326.566C25.4933 326.566 25.4933 326.567 25.4948 326.568C29.4448 334.363 38.4558 338.597 47.244 336.235L111.52 318.96L120.213 316.624C119.476 315.58 118.749 314.488 118.034 313.348L53.1283 330.792C43.6358 333.343 33.8676 327.735 31.31 318.266L9.24099 236.552C6.68408 227.083 12.3059 217.338 21.7984 214.787L25.0405 213.915C29.0648 224.025 33.9955 233.812 39.4064 243.029C47.5241 256.869 57.8627 269.437 70.2532 279.667C76.9183 285.17 84.3559 289.589 92.2053 293.177C97.6007 295.639 108.384 301.041 114.277 299.457C119.427 298.074 125.394 289.305 128.471 285.246C133.713 278.329 138.141 270.893 141.364 262.821C147.4 247.715 150.031 231.834 150.558 215.633C150.93 204.214 150.248 192.365 148.448 180.749L151.61 179.899C153.895 179.285 156.196 179.144 158.409 179.415C165.388 180.273 171.486 185.236 173.428 192.425L195.497 274.139C197.439 281.328 194.666 288.675 189.064 292.913C187.287 294.258 185.226 295.289 182.94 295.904L152.717 304.026C152.717 304.026 152.779 305.152 153.084 306.966L150.261 307.724C150.301 307.971 150.346 308.234 150.397 308.512L153.223 307.752L185.705 299.023C195.771 296.317 201.733 285.984 199.021 275.943Z" fill="#3C524E"/>
<path d="M142.114 179.412L144.72 178.713L145.166 178.592C145.175 178.59 145.183 178.588 145.192 178.586C146.125 178.336 147.065 178.152 148.007 178.034C151.545 177.589 155.109 178.062 158.409 179.415C156.197 179.144 153.896 179.285 151.61 179.899L148.448 180.749C150.248 192.365 150.931 204.214 150.559 215.633C150.031 231.834 147.4 247.715 141.364 262.821C138.141 270.893 133.713 278.329 128.471 285.246C125.395 289.305 119.427 298.074 114.277 299.457C108.384 301.041 97.6008 295.639 92.2054 293.177C84.3561 289.589 76.9184 285.17 70.2534 279.667C57.8629 269.437 47.5242 256.869 39.4065 243.029C33.9957 233.812 29.0649 224.025 25.0406 213.915L21.7985 214.787C12.306 217.338 6.6842 227.083 9.24111 236.552L31.3101 318.266C33.8677 327.735 43.6359 333.343 53.1284 330.792L118.034 313.348C118.749 314.488 119.476 315.58 120.213 316.624C144.739 351.393 180.403 333.837 180.543 333.768H180.544C181.117 333.7 180.463 334.411 180.356 334.547C179.851 335.187 179.144 335.807 178.516 336.319C177.074 337.495 175.245 338.339 173.533 339.037C171.821 339.735 170.051 340.336 168.241 340.839C159.521 343.262 149.868 343.41 141.265 341.166C135.443 339.647 129.978 337.007 125.024 333.319C120.041 329.611 115.508 324.789 111.52 318.96C111.362 318.73 111.204 318.497 111.049 318.263L48.2145 335.15C42.8655 336.588 37.2745 335.861 32.4731 333.105C29.6221 331.468 27.252 329.232 25.4949 326.568C25.4942 326.568 25.4935 326.567 25.4935 326.566C24.2922 324.744 23.3776 322.722 22.7917 320.555L0.723464 238.841C-0.0984525 235.798 -0.215344 232.676 0.349999 229.667C0.774926 227.4 1.58655 225.196 2.77385 223.138C5.53513 218.352 9.9976 214.924 15.3415 213.484C15.3459 213.483 15.3503 213.482 15.3548 213.481L23.9709 211.165L27.152 210.31L29.95 209.558C30.2992 210.477 30.6565 211.394 31.0219 212.308C34.2508 220.384 38.0736 228.23 42.2876 235.644C49.8304 248.919 58.8524 261.667 70.4511 271.751C76.4824 276.991 82.982 281.818 90.1749 285.383C93.7059 287.135 109.733 295.893 113.562 292.301C142.747 264.908 148.999 221.369 142.614 182.317C142.456 181.346 142.289 180.378 142.115 179.413H142.114V179.412Z" fill="#3C524E"/>
<path d="M164.743 273.728C168.369 269.999 171.996 266.272 175.623 262.543C173.785 262.761 171.947 262.979 170.11 263.197C172.516 258.737 174.863 254.334 177.269 249.874C185.616 279.982 184.95 277.115 185.078 278.451C185.302 280.817 184.585 283.054 182.857 284.733C182.089 285.479 184.652 284.735 149.673 292.721C156.916 286.164 165.339 279.718 172.583 273.16C169.969 273.349 167.356 273.539 164.743 273.728Z" fill="#3C524E"/>
<path d="M189.064 292.913C186.309 296.497 182.471 299.067 178.026 300.263L153.084 306.966C152.779 305.152 152.717 304.026 152.717 304.026L182.94 295.904C185.226 295.289 187.288 294.258 189.064 292.913Z" fill="#3C524E"/>
<path d="M150.559 215.633C150.031 231.834 147.4 247.715 141.364 262.821C138.141 270.893 133.713 278.329 128.471 285.246C125.395 289.305 119.427 298.074 114.277 299.457C108.384 301.041 97.6008 295.639 92.2054 293.177C84.356 289.589 76.9183 285.17 70.2533 279.667C57.8628 269.437 47.5241 256.869 39.4064 243.029C33.9956 233.812 29.0648 224.025 25.0405 213.915L28.2157 213.062L31.0211 212.308C34.25 220.385 38.0728 228.23 42.2868 235.644C49.8296 248.919 58.8516 261.668 70.4503 271.751C76.4816 276.991 82.9813 281.818 90.1741 285.383C93.7051 287.135 109.733 295.893 113.561 292.301C142.747 264.908 148.999 221.369 142.613 182.317L145.185 181.626L148.447 180.749C150.247 192.365 150.93 204.214 150.558 215.633H150.559Z" fill="white"/>
<path d="M180.543 333.768C178.063 334.063 174.288 334.136 172.948 334.076C163.265 333.645 158.186 327.378 153.815 318.827C151.844 314.97 150.159 308.361 149.89 305.624C149.862 305.343 149.795 305.083 149.755 304.836L152.752 304.025C152.794 304.274 152.841 304.537 152.892 304.811C154.354 312.591 160.218 332.862 180.543 333.768Z" fill="#3C524E"/>
<path d="M185.078 278.451C185.302 280.817 184.585 283.054 182.857 284.733C182.089 285.479 184.652 284.735 149.673 292.721C156.916 286.164 165.339 279.718 172.583 273.16C169.969 273.349 167.356 273.539 164.743 273.728C168.369 269.999 171.996 266.272 175.623 262.543C173.785 262.761 171.947 262.979 170.11 263.197C172.516 258.737 174.863 254.334 177.269 249.874C185.616 279.982 184.95 277.115 185.078 278.451Z" fill="white"/>
<path d="M148.448 180.749C148.308 179.843 148.161 178.938 148.007 178.034C147.996 177.969 147.985 177.904 147.974 177.839C146.739 170.646 145.071 163.567 142.954 156.758C142.645 155.763 142.004 155.138 141.25 154.827C140.191 154.26 138.853 154.275 137.759 155.391C137.753 155.397 137.748 155.402 137.742 155.408C137.629 155.505 137.525 155.611 137.43 155.724C122.821 170.435 101.325 178.019 81.1008 170.618C80.1517 170.273 78.7306 170.652 78.0822 171.43C64.2192 188.09 41.5812 192.241 21.4244 186.657C19.0924 186.011 17.1052 188.196 17.6228 190.441C19.2314 197.434 21.3898 204.366 23.971 211.165C24.3194 212.084 24.676 213.001 25.0406 213.915C29.0649 224.025 33.9957 233.812 39.4065 243.029C47.5243 256.869 57.8629 269.437 70.2534 279.667C76.9184 285.17 84.3561 289.589 92.2055 293.177C97.6009 295.639 108.384 301.041 114.277 299.458C119.427 298.074 125.395 289.305 128.471 285.246C133.713 278.329 138.141 270.893 141.364 262.821C147.4 247.715 150.032 231.834 150.559 215.633C150.931 204.214 150.248 192.365 148.448 180.749ZM113.562 292.301C109.733 295.893 93.706 287.135 90.175 285.383C82.9821 281.818 76.4825 276.991 70.4512 271.751C58.8524 261.668 49.8305 248.919 42.2877 235.644C38.0737 228.23 34.2508 220.385 31.022 212.308C30.6566 211.394 30.2993 210.477 29.9501 209.558C27.9798 204.38 26.2603 199.117 24.8436 193.822C45.2629 197.915 66.7651 192.884 81.2552 177.163C83.135 177.737 85.0663 178.118 86.9954 178.491C92.3533 179.528 97.8053 179.625 103.232 179.293C116.783 178.467 128.621 172.179 138.434 163.322C139.888 168.547 141.125 173.93 142.115 179.412C142.288 180.378 142.455 181.346 142.613 182.317C148.999 221.369 142.747 264.908 113.561 292.301L113.562 292.301Z" fill="#3C524E"/>
<path opacity="0.54" d="M132.06 241.186L128.164 226.76C126.916 222.14 123.304 218.764 118.977 217.563C117.39 217.121 115.705 216.973 114.007 217.164L113.221 214.255L110.546 204.35C109.106 199.018 105.07 195.066 100.159 193.481H100.158C98.7644 193.03 97.3006 192.771 95.8049 192.725C94.2959 192.679 92.7551 192.85 91.2236 193.262L88.0551 194.113C86.6305 194.496 85.3037 195.063 84.0932 195.782C84.0037 195.835 83.9143 195.889 83.8257 195.944C79.2786 198.77 76.4512 203.762 76.3885 209.117C76.3726 210.526 76.5473 211.958 76.9319 213.384L79.1356 221.542L79.8195 224.075L80.3922 226.195C74.5635 228.755 71.2821 235.275 72.9876 241.589L76.8834 256.015C77.5138 258.347 78.7461 260.365 80.3696 261.946C83.5891 265.083 88.3452 266.503 92.9809 265.257L122.79 257.246C129.766 255.371 133.939 248.144 132.06 241.186ZM89.4211 199.17L92.5896 198.319C94.229 197.878 95.8827 197.852 97.4402 198.174C101.203 198.953 104.405 201.769 105.47 205.714L107.692 213.943L108.357 216.405L108.887 218.367L85.4208 224.673L84.2069 220.179L82.004 212.021C80.4975 206.442 83.8248 200.674 89.4203 199.17H89.4211Z" fill="#ACE6B3"/>
<path d="M117.072 253.962L87.2618 261.973C84.9234 262.601 82.5558 262.552 80.3697 261.946C76.0358 260.744 72.4167 257.356 71.1668 252.729L67.271 238.304C65.5655 231.99 68.8385 225.452 74.6697 222.896C75.265 222.635 75.8861 222.416 76.5315 222.242L79.1357 221.542L79.7034 221.39L84.2078 220.179L103.169 215.083L106.341 214.231C106.791 214.11 107.243 214.014 107.693 213.943C107.89 213.912 108.087 213.885 108.283 213.862C109.97 213.673 111.643 213.819 113.221 214.255C115.386 214.852 117.373 215.994 118.977 217.563C120.592 219.141 121.818 221.153 122.445 223.476L126.34 237.9C128.221 244.862 124.047 252.088 117.072 253.962Z" fill="#4AC959"/>
<path d="M102.004 233.614C101.116 230.322 97.7172 228.374 94.415 229.262C91.1202 230.147 89.1606 233.536 90.0501 236.827C90.5091 238.525 91.6427 239.857 93.0815 240.637L92.875 249.457L105.922 245.95L101.307 238.426C102.153 237.033 102.462 235.312 102.004 233.614Z" fill="#296F31"/>
<path d="M108.929 216.252L108.358 216.405L103.853 217.616L103.17 215.083L99.752 202.429C99.3106 200.796 98.5038 199.355 97.4413 198.174C95.1656 195.639 91.7196 194.292 88.205 194.768H88.2041C87.7611 194.828 87.3163 194.916 86.8724 195.035L84.0943 195.782L83.7031 195.887C83.2566 196.007 82.8252 196.154 82.4097 196.326C77.6085 198.31 74.9015 203.602 76.2876 208.736L76.3904 209.117L79.7052 221.39L80.3891 223.923L79.8214 224.075L75.317 225.286L74.6716 222.896L71.2155 210.099C70.1772 206.255 70.6679 202.353 72.3157 199.038C73.1074 197.446 74.1658 195.989 75.4499 194.741C77.3134 192.927 79.6509 191.55 82.3378 190.828L85.5072 189.976C88.1958 189.254 90.912 189.273 93.4368 189.907H93.4376C95.1757 190.344 96.8235 191.073 98.3082 192.053C98.9595 192.482 99.5781 192.959 100.16 193.481H100.161C102.347 195.44 104.009 198.029 104.829 201.066L108.285 213.862L108.931 216.252H108.929Z" fill="#4AC959"/>
<path d="M173.892 173.77C174.887 174.373 178.787 170.066 192.307 165.298C191.563 170.196 190.443 174.789 188.658 179.412C193.638 173.419 197.504 166.507 200.001 159.131C197.942 159.161 195.783 159.72 193.839 160.397C189.262 161.989 184.728 163.703 180.242 165.536C181.012 165.221 181.122 162.909 181.095 162.219C180.861 156.085 180.371 148.562 177.721 143.001C177.363 142.251 177.046 141.131 176.338 142.147C173.251 146.579 172.056 153.003 169.886 158.119C169.702 158.556 168.106 161.129 168.239 161.416C164.32 152.935 159.742 143.17 154.842 138.644C154.821 138.763 154.802 138.883 154.781 139.003C154.764 138.91 154.869 138.935 154.853 138.842C149.612 152.336 152.964 164.217 160.232 170.62C158.186 166.179 157.141 161.282 157.199 156.395C157.216 154.996 157.314 153.554 156.832 152.242C162.056 158.43 165.193 166.05 168.891 173.251C170.758 168.828 171.945 163.878 175.396 160.535C175.079 164.986 174.637 169.372 173.893 173.771L173.892 173.77Z" fill="#3C524E"/>
<path d="M182.857 284.733C182.089 285.479 184.652 284.735 149.673 292.721C156.916 286.164 165.339 279.718 172.583 273.16C169.969 273.349 167.356 273.539 164.743 273.728C168.369 269.999 171.996 266.272 175.623 262.543C173.785 262.761 171.947 262.979 170.11 263.197C172.516 258.737 174.863 254.334 177.269 249.874C185.616 279.982 184.95 277.115 185.078 278.451C185.302 280.817 184.585 283.054 182.857 284.733Z" fill="#3C524E"/>
</g>
<path d="M20.1406 456.203C20.0156 454.943 19.4792 453.964 18.5313 453.266C17.5833 452.568 16.2969 452.219 14.6719 452.219C13.5677 452.219 12.6354 452.375 11.875 452.687C11.1146 452.99 10.5313 453.411 10.125 453.953C9.72917 454.495 9.53125 455.109 9.53125 455.797C9.51042 456.37 9.63021 456.87 9.89063 457.297C10.1615 457.724 10.5313 458.094 11 458.406C11.4688 458.708 12.0104 458.974 12.625 459.203C13.2396 459.422 13.8958 459.609 14.5938 459.766L17.4688 460.453C18.8646 460.766 20.1458 461.182 21.3125 461.703C22.4792 462.224 23.4896 462.865 24.3438 463.625C25.1979 464.385 25.8594 465.281 26.3281 466.312C26.8073 467.344 27.0521 468.526 27.0625 469.859C27.0521 471.818 26.5521 473.516 25.5625 474.953C24.5833 476.38 23.1667 477.49 21.3125 478.281C19.4688 479.062 17.2448 479.453 14.6406 479.453C12.0573 479.453 9.80729 479.057 7.89063 478.266C5.98438 477.474 4.49479 476.302 3.42188 474.75C2.35938 473.187 1.80208 471.255 1.75 468.953H8.29688C8.36979 470.026 8.67708 470.922 9.21875 471.641C9.77083 472.349 10.5052 472.885 11.4219 473.25C12.349 473.604 13.3958 473.781 14.5625 473.781C15.7083 473.781 16.7031 473.615 17.5469 473.281C18.401 472.948 19.0625 472.484 19.5313 471.891C20 471.297 20.2344 470.615 20.2344 469.844C20.2344 469.125 20.0208 468.521 19.5938 468.031C19.1771 467.542 18.5625 467.125 17.75 466.781C16.9479 466.437 15.9635 466.125 14.7969 465.844L11.3125 464.969C8.61458 464.312 6.48438 463.286 4.92188 461.891C3.35938 460.495 2.58333 458.615 2.59375 456.25C2.58333 454.312 3.09896 452.62 4.14063 451.172C5.19271 449.724 6.63542 448.594 8.46875 447.781C10.3021 446.969 12.3854 446.562 14.7188 446.562C17.0938 446.562 19.1667 446.969 20.9375 447.781C22.7188 448.594 24.1042 449.724 25.0938 451.172C26.0833 452.62 26.5938 454.297 26.625 456.203H20.1406ZM44.2539 455V460H29.8008V455H44.2539ZM33.082 449.25H39.7383V471.625C39.7383 472.24 39.832 472.719 40.0195 473.062C40.207 473.396 40.4674 473.63 40.8008 473.766C41.1445 473.901 41.5404 473.969 41.9883 473.969C42.3008 473.969 42.6133 473.943 42.9258 473.891C43.2383 473.828 43.4779 473.781 43.6445 473.75L44.6914 478.703C44.3581 478.807 43.8893 478.927 43.2852 479.063C42.681 479.208 41.9466 479.297 41.082 479.328C39.4779 479.391 38.0716 479.177 36.8633 478.687C35.6654 478.198 34.7331 477.437 34.0664 476.406C33.3997 475.375 33.0716 474.073 33.082 472.5V449.25ZM55.4336 479.453C53.9023 479.453 52.5378 479.188 51.3398 478.656C50.1419 478.115 49.194 477.318 48.4961 476.266C47.8086 475.203 47.4648 473.88 47.4648 472.297C47.4648 470.964 47.7096 469.844 48.1992 468.937C48.6888 468.031 49.3555 467.302 50.1992 466.75C51.043 466.198 52.0013 465.781 53.0742 465.5C54.1576 465.219 55.293 465.021 56.4805 464.906C57.8763 464.76 59.0013 464.625 59.8555 464.5C60.7096 464.365 61.3294 464.167 61.7148 463.906C62.1003 463.646 62.293 463.26 62.293 462.75V462.656C62.293 461.667 61.9805 460.901 61.3555 460.359C60.7409 459.818 59.8659 459.547 58.7305 459.547C57.5326 459.547 56.5794 459.812 55.8711 460.344C55.1628 460.865 54.694 461.521 54.4648 462.312L48.3086 461.812C48.6211 460.354 49.2357 459.094 50.1523 458.031C51.069 456.958 52.2513 456.135 53.6992 455.562C55.1576 454.979 56.8451 454.688 58.7617 454.688C60.0951 454.688 61.3711 454.844 62.5898 455.156C63.819 455.469 64.9076 455.953 65.8555 456.609C66.8138 457.266 67.569 458.109 68.1211 459.141C68.6732 460.161 68.9492 461.385 68.9492 462.812V479H62.6367V475.672H62.4492C62.0638 476.422 61.5482 477.083 60.9023 477.656C60.2565 478.219 59.4805 478.661 58.5742 478.984C57.668 479.297 56.6211 479.453 55.4336 479.453ZM57.3398 474.859C58.319 474.859 59.1836 474.667 59.9336 474.281C60.6836 473.885 61.2721 473.354 61.6992 472.688C62.1263 472.021 62.3398 471.266 62.3398 470.422V467.875C62.1315 468.01 61.8451 468.135 61.4805 468.25C61.1263 468.354 60.7253 468.453 60.2773 468.547C59.8294 468.63 59.3815 468.708 58.9336 468.781C58.4857 468.844 58.0794 468.901 57.7148 468.953C56.9336 469.068 56.2513 469.25 55.668 469.5C55.0846 469.75 54.6315 470.089 54.3086 470.516C53.9857 470.932 53.8242 471.453 53.8242 472.078C53.8242 472.984 54.1523 473.677 54.8086 474.156C55.4753 474.625 56.319 474.859 57.3398 474.859ZM74.1133 479V455H80.5664V459.187H80.8164C81.2539 457.698 81.9883 456.573 83.0195 455.813C84.0508 455.042 85.2383 454.656 86.582 454.656C86.9154 454.656 87.2747 454.677 87.6602 454.719C88.0456 454.76 88.3841 454.818 88.6758 454.891V460.797C88.3633 460.703 87.931 460.62 87.3789 460.547C86.8268 460.474 86.3216 460.438 85.8633 460.438C84.8841 460.438 84.0091 460.651 83.2383 461.078C82.4779 461.495 81.8737 462.078 81.4258 462.828C80.9883 463.578 80.7695 464.443 80.7695 465.422V479H74.1133ZM106.086 455V460H91.6328V455H106.086ZM94.9141 449.25H101.57V471.625C101.57 472.24 101.664 472.719 101.852 473.062C102.039 473.396 102.299 473.63 102.633 473.766C102.977 473.901 103.372 473.969 103.82 473.969C104.133 473.969 104.445 473.943 104.758 473.891C105.07 473.828 105.31 473.781 105.477 473.75L106.523 478.703C106.19 478.807 105.721 478.927 105.117 479.063C104.513 479.208 103.779 479.297 102.914 479.328C101.31 479.391 99.9036 479.177 98.6953 478.687C97.4974 478.198 96.5651 477.437 95.8984 476.406C95.2318 475.375 94.9036 474.073 94.9141 472.5V449.25ZM124.715 488C123.871 488 123.079 487.932 122.34 487.797C121.611 487.672 121.007 487.51 120.527 487.312L122.027 482.344C122.809 482.583 123.512 482.714 124.137 482.734C124.772 482.755 125.319 482.609 125.777 482.297C126.246 481.984 126.626 481.453 126.918 480.703L127.309 479.688L118.699 455H125.699L130.668 472.625H130.918L135.934 455H142.98L133.652 481.594C133.204 482.885 132.595 484.01 131.824 484.969C131.064 485.938 130.1 486.682 128.934 487.203C127.767 487.734 126.361 488 124.715 488ZM156.457 479.469C154.03 479.469 151.931 478.953 150.16 477.922C148.4 476.88 147.04 475.432 146.082 473.578C145.124 471.714 144.645 469.552 144.645 467.094C144.645 464.615 145.124 462.448 146.082 460.594C147.04 458.729 148.4 457.281 150.16 456.25C151.931 455.208 154.03 454.688 156.457 454.688C158.884 454.688 160.978 455.208 162.738 456.25C164.509 457.281 165.874 458.729 166.832 460.594C167.79 462.448 168.27 464.615 168.27 467.094C168.27 469.552 167.79 471.714 166.832 473.578C165.874 475.432 164.509 476.88 162.738 477.922C160.978 478.953 158.884 479.469 156.457 479.469ZM156.488 474.312C157.592 474.312 158.514 474 159.254 473.375C159.993 472.74 160.551 471.875 160.926 470.781C161.311 469.687 161.504 468.443 161.504 467.047C161.504 465.651 161.311 464.406 160.926 463.312C160.551 462.219 159.993 461.354 159.254 460.719C158.514 460.083 157.592 459.766 156.488 459.766C155.374 459.766 154.436 460.083 153.676 460.719C152.926 461.354 152.358 462.219 151.973 463.312C151.598 464.406 151.41 465.651 151.41 467.047C151.41 468.443 151.598 469.687 151.973 470.781C152.358 471.875 152.926 472.74 153.676 473.375C154.436 474 155.374 474.312 156.488 474.312ZM187.988 468.781V455H194.645V479H188.254V474.641H188.004C187.462 476.047 186.561 477.177 185.301 478.031C184.051 478.885 182.525 479.313 180.723 479.313C179.118 479.313 177.707 478.948 176.488 478.219C175.27 477.49 174.316 476.453 173.629 475.109C172.952 473.766 172.608 472.156 172.598 470.281V455H179.254V469.094C179.264 470.51 179.645 471.63 180.395 472.453C181.145 473.276 182.15 473.687 183.41 473.687C184.212 473.687 184.962 473.505 185.66 473.141C186.358 472.766 186.921 472.214 187.348 471.484C187.785 470.755 187.999 469.854 187.988 468.781ZM199.969 479V455H206.422V459.187H206.672C207.109 457.698 207.844 456.573 208.875 455.813C209.906 455.042 211.094 454.656 212.438 454.656C212.771 454.656 213.13 454.677 213.516 454.719C213.901 454.76 214.24 454.818 214.531 454.891V460.797C214.219 460.703 213.786 460.62 213.234 460.547C212.682 460.474 212.177 460.438 211.719 460.438C210.74 460.438 209.865 460.651 209.094 461.078C208.333 461.495 207.729 462.078 207.281 462.828C206.844 463.578 206.625 464.443 206.625 465.422V479H199.969ZM228.156 455H234.813V480.188C234.813 482.042 234.448 483.542 233.719 484.688C232.99 485.833 231.943 486.672 230.578 487.203C229.224 487.734 227.604 488 225.719 488C225.49 488 225.271 487.995 225.063 487.984C224.844 487.984 224.615 487.979 224.375 487.969V482.766C224.552 482.776 224.708 482.781 224.844 482.781C224.969 482.792 225.104 482.797 225.25 482.797C226.323 482.797 227.073 482.568 227.5 482.109C227.938 481.661 228.156 480.984 228.156 480.078V455ZM231.469 451.906C230.49 451.906 229.646 451.578 228.938 450.922C228.229 450.255 227.875 449.458 227.875 448.531C227.875 447.615 228.229 446.828 228.938 446.172C229.646 445.505 230.49 445.172 231.469 445.172C232.469 445.172 233.318 445.505 234.016 446.172C234.724 446.828 235.078 447.615 235.078 448.531C235.078 449.458 234.724 450.255 234.016 450.922C233.318 451.578 232.469 451.906 231.469 451.906ZM250.988 479.469C248.561 479.469 246.462 478.953 244.691 477.922C242.931 476.88 241.572 475.432 240.613 473.578C239.655 471.714 239.176 469.552 239.176 467.094C239.176 464.615 239.655 462.448 240.613 460.594C241.572 458.729 242.931 457.281 244.691 456.25C246.462 455.208 248.561 454.688 250.988 454.688C253.415 454.688 255.509 455.208 257.27 456.25C259.04 457.281 260.405 458.729 261.363 460.594C262.322 462.448 262.801 464.615 262.801 467.094C262.801 469.552 262.322 471.714 261.363 473.578C260.405 475.432 259.04 476.88 257.27 477.922C255.509 478.953 253.415 479.469 250.988 479.469ZM251.02 474.312C252.124 474.312 253.046 474 253.785 473.375C254.525 472.74 255.082 471.875 255.457 470.781C255.842 469.687 256.035 468.443 256.035 467.047C256.035 465.651 255.842 464.406 255.457 463.312C255.082 462.219 254.525 461.354 253.785 460.719C253.046 460.083 252.124 459.766 251.02 459.766C249.905 459.766 248.967 460.083 248.207 460.719C247.457 461.354 246.889 462.219 246.504 463.312C246.129 464.406 245.941 465.651 245.941 467.047C245.941 468.443 246.129 469.687 246.504 470.781C246.889 471.875 247.457 472.74 248.207 473.375C248.967 474 249.905 474.312 251.02 474.312ZM282.52 468.781V455H289.176V479H282.785V474.641H282.535C281.993 476.047 281.092 477.177 279.832 478.031C278.582 478.885 277.056 479.313 275.254 479.313C273.65 479.313 272.238 478.948 271.02 478.219C269.801 477.49 268.848 476.453 268.16 475.109C267.483 473.766 267.139 472.156 267.129 470.281V455H273.785V469.094C273.796 470.51 274.176 471.63 274.926 472.453C275.676 473.276 276.681 473.687 277.941 473.687C278.743 473.687 279.493 473.505 280.191 473.141C280.889 472.766 281.452 472.214 281.879 471.484C282.316 470.755 282.53 469.854 282.52 468.781ZM294.5 479V455H300.953V459.187H301.203C301.641 457.698 302.375 456.573 303.406 455.813C304.438 455.042 305.625 454.656 306.969 454.656C307.302 454.656 307.661 454.677 308.047 454.719C308.432 454.76 308.771 454.818 309.063 454.891V460.797C308.75 460.703 308.318 460.62 307.766 460.547C307.214 460.474 306.708 460.438 306.25 460.438C305.271 460.438 304.396 460.651 303.625 461.078C302.865 461.495 302.26 462.078 301.812 462.828C301.375 463.578 301.156 464.443 301.156 465.422V479H294.5ZM319.16 465.125V479H312.504V455H318.848V459.234H319.129C319.66 457.839 320.551 456.734 321.801 455.922C323.051 455.099 324.566 454.688 326.348 454.688C328.014 454.688 329.467 455.052 330.707 455.781C331.947 456.51 332.91 457.552 333.598 458.906C334.285 460.25 334.629 461.854 334.629 463.719V479H327.973V464.906C327.983 463.437 327.608 462.292 326.848 461.469C326.087 460.635 325.04 460.219 323.707 460.219C322.811 460.219 322.02 460.411 321.332 460.797C320.655 461.182 320.124 461.745 319.738 462.484C319.363 463.214 319.171 464.094 319.16 465.125ZM350.813 479.469C348.344 479.469 346.219 478.969 344.438 477.969C342.667 476.958 341.302 475.531 340.344 473.687C339.385 471.833 338.906 469.641 338.906 467.109C338.906 464.641 339.385 462.474 340.344 460.609C341.302 458.745 342.651 457.292 344.391 456.25C346.141 455.208 348.193 454.688 350.547 454.688C352.13 454.688 353.604 454.943 354.969 455.453C356.344 455.953 357.542 456.708 358.563 457.719C359.594 458.729 360.396 460 360.969 461.531C361.542 463.052 361.828 464.833 361.828 466.875V468.703H341.563V464.578H355.563C355.563 463.62 355.354 462.771 354.938 462.031C354.521 461.292 353.943 460.714 353.203 460.297C352.474 459.87 351.625 459.656 350.656 459.656C349.646 459.656 348.75 459.891 347.969 460.359C347.198 460.818 346.594 461.437 346.156 462.219C345.719 462.99 345.495 463.849 345.484 464.797V468.719C345.484 469.906 345.703 470.932 346.141 471.797C346.589 472.661 347.219 473.328 348.031 473.797C348.844 474.266 349.807 474.5 350.922 474.5C351.661 474.5 352.339 474.396 352.953 474.188C353.568 473.979 354.094 473.667 354.531 473.25C354.969 472.833 355.302 472.323 355.531 471.719L361.688 472.125C361.375 473.604 360.734 474.896 359.766 476C358.807 477.094 357.568 477.948 356.047 478.563C354.536 479.167 352.792 479.469 350.813 479.469ZM369.637 488C368.793 488 368.001 487.932 367.262 487.797C366.533 487.672 365.928 487.51 365.449 487.312L366.949 482.344C367.73 482.583 368.434 482.714 369.059 482.734C369.694 482.755 370.241 482.609 370.699 482.297C371.168 481.984 371.548 481.453 371.84 480.703L372.23 479.688L363.621 455H370.621L375.59 472.625H375.84L380.855 455H387.902L378.574 481.594C378.126 482.885 377.517 484.01 376.746 484.969C375.986 485.938 375.022 486.682 373.855 487.203C372.689 487.734 371.283 488 369.637 488ZM414.258 455V460H399.805V455H414.258ZM403.086 449.25H409.742V471.625C409.742 472.24 409.836 472.719 410.023 473.062C410.211 473.396 410.471 473.63 410.805 473.766C411.148 473.901 411.544 473.969 411.992 473.969C412.305 473.969 412.617 473.943 412.93 473.891C413.242 473.828 413.482 473.781 413.648 473.75L414.695 478.703C414.362 478.807 413.893 478.927 413.289 479.063C412.685 479.208 411.951 479.297 411.086 479.328C409.482 479.391 408.076 479.177 406.867 478.687C405.669 478.198 404.737 477.437 404.07 476.406C403.404 475.375 403.076 474.073 403.086 472.5V449.25ZM429.18 479.469C426.753 479.469 424.654 478.953 422.883 477.922C421.122 476.88 419.763 475.432 418.805 473.578C417.846 471.714 417.367 469.552 417.367 467.094C417.367 464.615 417.846 462.448 418.805 460.594C419.763 458.729 421.122 457.281 422.883 456.25C424.654 455.208 426.753 454.688 429.18 454.688C431.607 454.688 433.701 455.208 435.461 456.25C437.232 457.281 438.596 458.729 439.555 460.594C440.513 462.448 440.992 464.615 440.992 467.094C440.992 469.552 440.513 471.714 439.555 473.578C438.596 475.432 437.232 476.88 435.461 477.922C433.701 478.953 431.607 479.469 429.18 479.469ZM429.211 474.312C430.315 474.312 431.237 474 431.977 473.375C432.716 472.74 433.273 471.875 433.648 470.781C434.034 469.687 434.227 468.443 434.227 467.047C434.227 465.651 434.034 464.406 433.648 463.312C433.273 462.219 432.716 461.354 431.977 460.719C431.237 460.083 430.315 459.766 429.211 459.766C428.096 459.766 427.159 460.083 426.398 460.719C425.648 461.354 425.081 462.219 424.695 463.312C424.32 464.406 424.133 465.651 424.133 467.047C424.133 468.443 424.32 469.687 424.695 470.781C425.081 471.875 425.648 472.74 426.398 473.375C427.159 474 428.096 474.312 429.211 474.312ZM22.625 517.844L16.5313 518.219C16.4271 517.698 16.2031 517.229 15.8594 516.812C15.5156 516.385 15.0625 516.047 14.5 515.797C13.9479 515.536 13.2865 515.406 12.5156 515.406C11.4844 515.406 10.6146 515.625 9.90625 516.062C9.19792 516.49 8.84375 517.062 8.84375 517.781C8.84375 518.354 9.07292 518.839 9.53125 519.234C9.98958 519.63 10.776 519.948 11.8906 520.187L16.2344 521.062C18.5677 521.542 20.3073 522.312 21.4531 523.375C22.599 524.437 23.1719 525.833 23.1719 527.562C23.1719 529.135 22.7083 530.516 21.7813 531.703C20.8646 532.891 19.6042 533.818 18 534.484C16.4063 535.141 14.5677 535.469 12.4844 535.469C9.30729 535.469 6.77604 534.807 4.89063 533.484C3.01563 532.151 1.91667 530.339 1.59375 528.047L8.14062 527.703C8.33854 528.672 8.81771 529.411 9.57813 529.922C10.3385 530.422 11.3125 530.672 12.5 530.672C13.6667 530.672 14.6042 530.448 15.3125 530C16.0313 529.542 16.3958 528.953 16.4063 528.234C16.3958 527.63 16.1406 527.135 15.6406 526.75C15.1406 526.354 14.3698 526.052 13.3281 525.844L9.17188 525.016C6.82813 524.547 5.08333 523.734 3.9375 522.578C2.80208 521.422 2.23438 519.948 2.23438 518.156C2.23438 516.615 2.65104 515.286 3.48438 514.172C4.32813 513.057 5.51042 512.198 7.03125 511.594C8.5625 510.99 10.3542 510.688 12.4063 510.688C15.4375 510.688 17.8229 511.328 19.5625 512.609C21.3125 513.891 22.3333 515.635 22.625 517.844ZM27.3633 535V511H33.707V515.234H33.9883C34.4883 513.828 35.3216 512.719 36.4883 511.906C37.6549 511.094 39.0508 510.688 40.6758 510.688C42.3216 510.688 43.7227 511.099 44.8789 511.922C46.0352 512.734 46.806 513.839 47.1914 515.234H47.4414C47.931 513.859 48.8164 512.76 50.0977 511.937C51.3893 511.104 52.9154 510.688 54.6758 510.688C56.9154 510.688 58.7331 511.401 60.1289 512.828C61.5352 514.245 62.2383 516.255 62.2383 518.859V535H55.5977V520.172C55.5977 518.839 55.2435 517.839 54.5352 517.172C53.8268 516.505 52.9414 516.172 51.8789 516.172C50.6706 516.172 49.7279 516.557 49.0508 517.328C48.3737 518.089 48.0352 519.094 48.0352 520.344V535H41.582V520.031C41.582 518.854 41.2435 517.917 40.5664 517.219C39.8997 516.521 39.0195 516.172 37.9258 516.172C37.1862 516.172 36.5195 516.359 35.9258 516.734C35.3424 517.099 34.8789 517.615 34.5352 518.281C34.1914 518.937 34.0195 519.708 34.0195 520.594V535H27.3633ZM74.3398 535.453C72.8086 535.453 71.444 535.188 70.2461 534.656C69.0482 534.115 68.1003 533.318 67.4023 532.266C66.7148 531.203 66.3711 529.88 66.3711 528.297C66.3711 526.964 66.6159 525.844 67.1055 524.937C67.5951 524.031 68.2617 523.302 69.1055 522.75C69.9492 522.198 70.9076 521.781 71.9805 521.5C73.0638 521.219 74.1992 521.021 75.3867 520.906C76.7826 520.76 77.9076 520.625 78.7617 520.5C79.6159 520.365 80.2357 520.167 80.6211 519.906C81.0065 519.646 81.1992 519.26 81.1992 518.75V518.656C81.1992 517.667 80.8867 516.901 80.2617 516.359C79.6471 515.818 78.7721 515.547 77.6367 515.547C76.4388 515.547 75.4857 515.812 74.7773 516.344C74.069 516.865 73.6003 517.521 73.3711 518.312L67.2148 517.812C67.5273 516.354 68.1419 515.094 69.0586 514.031C69.9753 512.958 71.1576 512.135 72.6055 511.562C74.0638 510.979 75.7513 510.688 77.668 510.688C79.0013 510.688 80.2773 510.844 81.4961 511.156C82.7253 511.469 83.8138 511.953 84.7617 512.609C85.7201 513.266 86.4753 514.109 87.0273 515.141C87.5794 516.161 87.8555 517.385 87.8555 518.812V535H81.543V531.672H81.3555C80.9701 532.422 80.4544 533.083 79.8086 533.656C79.1628 534.219 78.3867 534.661 77.4805 534.984C76.5742 535.297 75.5273 535.453 74.3398 535.453ZM76.2461 530.859C77.2253 530.859 78.0898 530.667 78.8398 530.281C79.5898 529.885 80.1784 529.354 80.6055 528.688C81.0326 528.021 81.2461 527.266 81.2461 526.422V523.875C81.0378 524.01 80.7513 524.135 80.3867 524.25C80.0326 524.354 79.6315 524.453 79.1836 524.547C78.7357 524.63 78.2878 524.708 77.8398 524.781C77.3919 524.844 76.9857 524.901 76.6211 524.953C75.8398 525.068 75.1576 525.25 74.5742 525.5C73.9909 525.75 73.5378 526.089 73.2148 526.516C72.8919 526.932 72.7305 527.453 72.7305 528.078C72.7305 528.984 73.0586 529.677 73.7148 530.156C74.3815 530.625 75.2253 530.859 76.2461 530.859ZM93.0195 535V511H99.4727V515.187H99.7227C100.16 513.698 100.895 512.573 101.926 511.813C102.957 511.042 104.145 510.656 105.488 510.656C105.822 510.656 106.181 510.677 106.566 510.719C106.952 510.76 107.29 510.818 107.582 510.891V516.797C107.27 516.703 106.837 516.62 106.285 516.547C105.733 516.474 105.228 516.438 104.77 516.438C103.79 516.438 102.915 516.651 102.145 517.078C101.384 517.495 100.78 518.078 100.332 518.828C99.8945 519.578 99.6758 520.443 99.6758 521.422V535H93.0195ZM124.992 511V516H110.539V511H124.992ZM113.82 505.25H120.477V527.625C120.477 528.24 120.57 528.719 120.758 529.062C120.945 529.396 121.206 529.63 121.539 529.766C121.883 529.901 122.279 529.969 122.727 529.969C123.039 529.969 123.352 529.943 123.664 529.891C123.977 529.828 124.216 529.781 124.383 529.75L125.43 534.703C125.096 534.807 124.628 534.927 124.023 535.063C123.419 535.208 122.685 535.297 121.82 535.328C120.216 535.391 118.81 535.177 117.602 534.687C116.404 534.198 115.471 533.437 114.805 532.406C114.138 531.375 113.81 530.073 113.82 528.5V505.25ZM140.008 535.469C137.539 535.469 135.414 534.969 133.633 533.969C131.862 532.958 130.497 531.531 129.539 529.687C128.581 527.833 128.102 525.641 128.102 523.109C128.102 520.641 128.581 518.474 129.539 516.609C130.497 514.745 131.846 513.292 133.586 512.25C135.336 511.208 137.388 510.688 139.742 510.688C141.326 510.688 142.799 510.943 144.164 511.453C145.539 511.953 146.737 512.708 147.758 513.719C148.789 514.729 149.591 516 150.164 517.531C150.737 519.052 151.023 520.833 151.023 522.875V524.703H130.758V520.578H144.758C144.758 519.62 144.549 518.771 144.133 518.031C143.716 517.292 143.138 516.714 142.398 516.297C141.669 515.87 140.82 515.656 139.852 515.656C138.841 515.656 137.945 515.891 137.164 516.359C136.393 516.818 135.789 517.437 135.352 518.219C134.914 518.99 134.69 519.849 134.68 520.797V524.719C134.68 525.906 134.898 526.932 135.336 527.797C135.784 528.661 136.414 529.328 137.227 529.797C138.039 530.266 139.003 530.5 140.117 530.5C140.857 530.5 141.534 530.396 142.148 530.188C142.763 529.979 143.289 529.667 143.727 529.25C144.164 528.833 144.497 528.323 144.727 527.719L150.883 528.125C150.57 529.604 149.93 530.896 148.961 532C148.003 533.094 146.763 533.948 145.242 534.563C143.732 535.167 141.987 535.469 140.008 535.469ZM155.367 535V511H161.82V515.187H162.07C162.508 513.698 163.242 512.573 164.273 511.813C165.305 511.042 166.492 510.656 167.836 510.656C168.169 510.656 168.529 510.677 168.914 510.719C169.299 510.76 169.638 510.818 169.93 510.891V516.797C169.617 516.703 169.185 516.62 168.633 516.547C168.081 516.474 167.576 516.438 167.117 516.438C166.138 516.438 165.263 516.651 164.492 517.078C163.732 517.495 163.128 518.078 162.68 518.828C162.242 519.578 162.023 520.443 162.023 521.422V535H155.367ZM183.68 535V503H190.336V515.031H190.539C190.831 514.385 191.253 513.729 191.805 513.062C192.367 512.385 193.096 511.823 193.992 511.375C194.898 510.917 196.023 510.688 197.367 510.688C199.117 510.688 200.732 511.146 202.211 512.063C203.69 512.969 204.872 514.339 205.758 516.172C206.643 517.995 207.086 520.281 207.086 523.031C207.086 525.708 206.654 527.969 205.789 529.812C204.935 531.646 203.768 533.036 202.289 533.984C200.82 534.922 199.174 535.391 197.352 535.391C196.06 535.391 194.961 535.177 194.055 534.75C193.159 534.323 192.424 533.786 191.852 533.141C191.279 532.484 190.841 531.823 190.539 531.156H190.242V535H183.68ZM190.195 523C190.195 524.427 190.393 525.672 190.789 526.734C191.185 527.797 191.758 528.625 192.508 529.219C193.258 529.802 194.169 530.094 195.242 530.094C196.326 530.094 197.242 529.797 197.992 529.203C198.742 528.599 199.31 527.766 199.695 526.703C200.091 525.63 200.289 524.396 200.289 523C200.289 521.615 200.096 520.396 199.711 519.344C199.326 518.292 198.758 517.469 198.008 516.875C197.258 516.281 196.336 515.984 195.242 515.984C194.159 515.984 193.242 516.271 192.492 516.844C191.753 517.417 191.185 518.229 190.789 519.281C190.393 520.333 190.195 521.573 190.195 523ZM226.918 524.781V511H233.574V535H227.184V530.641H226.934C226.392 532.047 225.491 533.177 224.23 534.031C222.98 534.885 221.454 535.313 219.652 535.313C218.048 535.313 216.637 534.948 215.418 534.219C214.199 533.49 213.246 532.453 212.559 531.109C211.882 529.766 211.538 528.156 211.527 526.281V511H218.184V525.094C218.194 526.51 218.574 527.63 219.324 528.453C220.074 529.276 221.079 529.687 222.34 529.687C223.142 529.687 223.892 529.505 224.59 529.141C225.288 528.766 225.85 528.214 226.277 527.484C226.715 526.755 226.928 525.854 226.918 524.781ZM258.867 517.844L252.773 518.219C252.669 517.698 252.445 517.229 252.102 516.812C251.758 516.385 251.305 516.047 250.742 515.797C250.19 515.536 249.529 515.406 248.758 515.406C247.727 515.406 246.857 515.625 246.148 516.062C245.44 516.49 245.086 517.062 245.086 517.781C245.086 518.354 245.315 518.839 245.773 519.234C246.232 519.63 247.018 519.948 248.133 520.187L252.477 521.062C254.81 521.542 256.549 522.312 257.695 523.375C258.841 524.437 259.414 525.833 259.414 527.562C259.414 529.135 258.951 530.516 258.023 531.703C257.107 532.891 255.846 533.818 254.242 534.484C252.648 535.141 250.81 535.469 248.727 535.469C245.549 535.469 243.018 534.807 241.133 533.484C239.258 532.151 238.159 530.339 237.836 528.047L244.383 527.703C244.581 528.672 245.06 529.411 245.82 529.922C246.581 530.422 247.555 530.672 248.742 530.672C249.909 530.672 250.846 530.448 251.555 530C252.273 529.542 252.638 528.953 252.648 528.234C252.638 527.63 252.383 527.135 251.883 526.75C251.383 526.354 250.612 526.052 249.57 525.844L245.414 525.016C243.07 524.547 241.326 523.734 240.18 522.578C239.044 521.422 238.477 519.948 238.477 518.156C238.477 516.615 238.893 515.286 239.727 514.172C240.57 513.057 241.753 512.198 243.273 511.594C244.805 510.99 246.596 510.688 248.648 510.688C251.68 510.688 254.065 511.328 255.805 512.609C257.555 513.891 258.576 515.635 258.867 517.844ZM263.605 535V511H270.262V535H263.605ZM266.949 507.906C265.96 507.906 265.111 507.578 264.402 506.922C263.704 506.255 263.355 505.458 263.355 504.531C263.355 503.615 263.704 502.828 264.402 502.172C265.111 501.505 265.96 501.172 266.949 501.172C267.939 501.172 268.783 501.505 269.48 502.172C270.189 502.828 270.543 503.615 270.543 504.531C270.543 505.458 270.189 506.255 269.48 506.922C268.783 507.578 267.939 507.906 266.949 507.906ZM282.25 521.125V535H275.594V511H281.938V515.234H282.219C282.75 513.839 283.641 512.734 284.891 511.922C286.141 511.099 287.656 510.688 289.438 510.688C291.104 510.688 292.557 511.052 293.797 511.781C295.036 512.51 296 513.552 296.688 514.906C297.375 516.25 297.719 517.854 297.719 519.719V535H291.063V520.906C291.073 519.437 290.698 518.292 289.938 517.469C289.177 516.635 288.13 516.219 286.797 516.219C285.901 516.219 285.109 516.411 284.422 516.797C283.745 517.182 283.214 517.745 282.828 518.484C282.453 519.214 282.26 520.094 282.25 521.125ZM313.902 535.469C311.434 535.469 309.309 534.969 307.527 533.969C305.757 532.958 304.392 531.531 303.434 529.687C302.475 527.833 301.996 525.641 301.996 523.109C301.996 520.641 302.475 518.474 303.434 516.609C304.392 514.745 305.741 513.292 307.48 512.25C309.23 511.208 311.283 510.688 313.637 510.688C315.22 510.688 316.694 510.943 318.059 511.453C319.434 511.953 320.632 512.708 321.652 513.719C322.684 514.729 323.486 516 324.059 517.531C324.632 519.052 324.918 520.833 324.918 522.875V524.703H304.652V520.578H318.652C318.652 519.62 318.444 518.771 318.027 518.031C317.611 517.292 317.033 516.714 316.293 516.297C315.564 515.87 314.715 515.656 313.746 515.656C312.736 515.656 311.84 515.891 311.059 516.359C310.288 516.818 309.684 517.437 309.246 518.219C308.809 518.99 308.585 519.849 308.574 520.797V524.719C308.574 525.906 308.793 526.932 309.23 527.797C309.678 528.661 310.309 529.328 311.121 529.797C311.934 530.266 312.897 530.5 314.012 530.5C314.751 530.5 315.428 530.396 316.043 530.188C316.658 529.979 317.184 529.667 317.621 529.25C318.059 528.833 318.392 528.323 318.621 527.719L324.777 528.125C324.465 529.604 323.824 530.896 322.855 532C321.897 533.094 320.658 533.948 319.137 534.563C317.626 535.167 315.882 535.469 313.902 535.469ZM349.23 517.844L343.137 518.219C343.033 517.698 342.809 517.229 342.465 516.812C342.121 516.385 341.668 516.047 341.105 515.797C340.553 515.536 339.892 515.406 339.121 515.406C338.09 515.406 337.22 515.625 336.512 516.062C335.803 516.49 335.449 517.062 335.449 517.781C335.449 518.354 335.678 518.839 336.137 519.234C336.595 519.63 337.382 519.948 338.496 520.187L342.84 521.062C345.173 521.542 346.913 522.312 348.059 523.375C349.204 524.437 349.777 525.833 349.777 527.562C349.777 529.135 349.314 530.516 348.387 531.703C347.47 532.891 346.21 533.818 344.605 534.484C343.012 535.141 341.173 535.469 339.09 535.469C335.913 535.469 333.382 534.807 331.496 533.484C329.621 532.151 328.522 530.339 328.199 528.047L334.746 527.703C334.944 528.672 335.423 529.411 336.184 529.922C336.944 530.422 337.918 530.672 339.105 530.672C340.272 530.672 341.21 530.448 341.918 530C342.637 529.542 343.001 528.953 343.012 528.234C343.001 527.63 342.746 527.135 342.246 526.75C341.746 526.354 340.975 526.052 339.934 525.844L335.777 525.016C333.434 524.547 331.689 523.734 330.543 522.578C329.408 521.422 328.84 519.948 328.84 518.156C328.84 516.615 329.257 515.286 330.09 514.172C330.934 513.057 332.116 512.198 333.637 511.594C335.168 510.99 336.96 510.688 339.012 510.688C342.043 510.688 344.428 511.328 346.168 512.609C347.918 513.891 348.939 515.635 349.23 517.844ZM373.938 517.844L367.844 518.219C367.74 517.698 367.516 517.229 367.172 516.812C366.828 516.385 366.375 516.047 365.813 515.797C365.26 515.536 364.599 515.406 363.828 515.406C362.797 515.406 361.927 515.625 361.219 516.062C360.51 516.49 360.156 517.062 360.156 517.781C360.156 518.354 360.385 518.839 360.844 519.234C361.302 519.63 362.089 519.948 363.203 520.187L367.547 521.062C369.88 521.542 371.62 522.312 372.766 523.375C373.911 524.437 374.484 525.833 374.484 527.562C374.484 529.135 374.021 530.516 373.094 531.703C372.177 532.891 370.917 533.818 369.313 534.484C367.719 535.141 365.88 535.469 363.797 535.469C360.62 535.469 358.089 534.807 356.203 533.484C354.328 532.151 353.229 530.339 352.906 528.047L359.453 527.703C359.651 528.672 360.13 529.411 360.891 529.922C361.651 530.422 362.625 530.672 363.812 530.672C364.979 530.672 365.917 530.448 366.625 530C367.344 529.542 367.708 528.953 367.719 528.234C367.708 527.63 367.453 527.135 366.953 526.75C366.453 526.354 365.682 526.052 364.641 525.844L360.484 525.016C358.141 524.547 356.396 523.734 355.25 522.578C354.115 521.422 353.547 519.948 353.547 518.156C353.547 516.615 353.964 515.286 354.797 514.172C355.641 513.057 356.823 512.198 358.344 511.594C359.875 510.99 361.667 510.688 363.719 510.688C366.75 510.688 369.135 511.328 370.875 512.609C372.625 513.891 373.646 515.635 373.938 517.844ZM13.5 591.469C11.0417 591.469 8.92708 590.948 7.15625 589.906C5.39583 588.854 4.04167 587.396 3.09375 585.531C2.15625 583.667 1.6875 581.521 1.6875 579.094C1.6875 576.635 2.16146 574.479 3.10938 572.625C4.06771 570.76 5.42708 569.307 7.1875 568.266C8.94792 567.214 11.0417 566.688 13.4688 566.688C15.5625 566.688 17.3958 567.068 18.9688 567.828C20.5417 568.589 21.7865 569.656 22.7031 571.031C23.6198 572.406 24.125 574.021 24.2187 575.875H17.9375C17.7604 574.677 17.2917 573.714 16.5313 572.984C15.7813 572.245 14.7969 571.875 13.5781 571.875C12.5469 571.875 11.6458 572.156 10.875 572.719C10.1146 573.271 9.52083 574.078 9.09375 575.141C8.66667 576.203 8.45313 577.49 8.45313 579C8.45313 580.531 8.66146 581.833 9.07813 582.906C9.50521 583.979 10.1042 584.797 10.875 585.359C11.6458 585.922 12.5469 586.203 13.5781 586.203C14.3385 586.203 15.0208 586.047 15.625 585.734C16.2396 585.422 16.7448 584.969 17.1406 584.375C17.5469 583.771 17.8125 583.047 17.9375 582.203H24.2187C24.1146 584.036 23.6146 585.651 22.7188 587.047C21.8333 588.432 20.6094 589.516 19.0469 590.297C17.4844 591.078 15.6354 591.469 13.5 591.469ZM39.3242 591.469C36.8971 591.469 34.7982 590.953 33.0273 589.922C31.2669 588.88 29.9076 587.432 28.9492 585.578C27.9909 583.714 27.5117 581.552 27.5117 579.094C27.5117 576.615 27.9909 574.448 28.9492 572.594C29.9076 570.729 31.2669 569.281 33.0273 568.25C34.7982 567.208 36.8971 566.688 39.3242 566.688C41.7513 566.688 43.8451 567.208 45.6055 568.25C47.3763 569.281 48.7409 570.729 49.6992 572.594C50.6576 574.448 51.1367 576.615 51.1367 579.094C51.1367 581.552 50.6576 583.714 49.6992 585.578C48.7409 587.432 47.3763 588.88 45.6055 589.922C43.8451 590.953 41.7513 591.469 39.3242 591.469ZM39.3555 586.312C40.4596 586.312 41.3815 586 42.1211 585.375C42.8607 584.74 43.418 583.875 43.793 582.781C44.1784 581.687 44.3711 580.443 44.3711 579.047C44.3711 577.651 44.1784 576.406 43.793 575.312C43.418 574.219 42.8607 573.354 42.1211 572.719C41.3815 572.083 40.4596 571.766 39.3555 571.766C38.2409 571.766 37.3034 572.083 36.543 572.719C35.793 573.354 35.2253 574.219 34.8398 575.312C34.4648 576.406 34.2773 577.651 34.2773 579.047C34.2773 580.443 34.4648 581.687 34.8398 582.781C35.2253 583.875 35.793 584.74 36.543 585.375C37.3034 586 38.2409 586.312 39.3555 586.312ZM55.4648 591V567H61.8086V571.234H62.0898C62.5898 569.828 63.4232 568.719 64.5898 567.906C65.7565 567.094 67.1523 566.688 68.7773 566.688C70.4232 566.688 71.8242 567.099 72.9805 567.922C74.1367 568.734 74.9076 569.839 75.293 571.234H75.543C76.0326 569.859 76.918 568.76 78.1992 567.937C79.4909 567.104 81.0169 566.688 82.7773 566.688C85.0169 566.688 86.8346 567.401 88.2305 568.828C89.6367 570.245 90.3398 572.255 90.3398 574.859V591H83.6992V576.172C83.6992 574.839 83.3451 573.839 82.6367 573.172C81.9284 572.505 81.043 572.172 79.9805 572.172C78.7721 572.172 77.8294 572.557 77.1523 573.328C76.4753 574.089 76.1367 575.094 76.1367 576.344V591H69.6836V576.031C69.6836 574.854 69.3451 573.917 68.668 573.219C68.0013 572.521 67.1211 572.172 66.0273 572.172C65.2878 572.172 64.6211 572.359 64.0273 572.734C63.444 573.099 62.9805 573.615 62.6367 574.281C62.293 574.937 62.1211 575.708 62.1211 576.594V591H55.4648ZM95.5977 591V567H101.941V571.234H102.223C102.723 569.828 103.556 568.719 104.723 567.906C105.889 567.094 107.285 566.688 108.91 566.688C110.556 566.688 111.957 567.099 113.113 567.922C114.27 568.734 115.04 569.839 115.426 571.234H115.676C116.165 569.859 117.051 568.76 118.332 567.937C119.624 567.104 121.15 566.688 122.91 566.688C125.15 566.688 126.967 567.401 128.363 568.828C129.77 570.245 130.473 572.255 130.473 574.859V591H123.832V576.172C123.832 574.839 123.478 573.839 122.77 573.172C122.061 572.505 121.176 572.172 120.113 572.172C118.905 572.172 117.962 572.557 117.285 573.328C116.608 574.089 116.27 575.094 116.27 576.344V591H109.816V576.031C109.816 574.854 109.478 573.917 108.801 573.219C108.134 572.521 107.254 572.172 106.16 572.172C105.421 572.172 104.754 572.359 104.16 572.734C103.577 573.099 103.113 573.615 102.77 574.281C102.426 574.937 102.254 575.708 102.254 576.594V591H95.5977ZM151.121 580.781V567H157.777V591H151.387V586.641H151.137C150.595 588.047 149.694 589.177 148.434 590.031C147.184 590.885 145.658 591.313 143.855 591.313C142.251 591.313 140.84 590.948 139.621 590.219C138.402 589.49 137.449 588.453 136.762 587.109C136.085 585.766 135.741 584.156 135.73 582.281V567H142.387V581.094C142.397 582.51 142.777 583.63 143.527 584.453C144.277 585.276 145.283 585.687 146.543 585.687C147.345 585.687 148.095 585.505 148.793 585.141C149.491 584.766 150.053 584.214 150.48 583.484C150.918 582.755 151.132 581.854 151.121 580.781ZM169.758 577.125V591H163.102V567H169.445V571.234H169.727C170.258 569.839 171.148 568.734 172.398 567.922C173.648 567.099 175.164 566.688 176.945 566.688C178.612 566.688 180.065 567.052 181.305 567.781C182.544 568.51 183.508 569.552 184.195 570.906C184.883 572.25 185.227 573.854 185.227 575.719V591H178.57V576.906C178.581 575.437 178.206 574.292 177.445 573.469C176.685 572.635 175.638 572.219 174.305 572.219C173.409 572.219 172.617 572.411 171.93 572.797C171.253 573.182 170.721 573.745 170.336 574.484C169.961 575.214 169.768 576.094 169.758 577.125ZM190.473 591V567H197.129V591H190.473ZM193.816 563.906C192.827 563.906 191.978 563.578 191.27 562.922C190.572 562.255 190.223 561.458 190.223 560.531C190.223 559.615 190.572 558.828 191.27 558.172C191.978 557.505 192.827 557.172 193.816 557.172C194.806 557.172 195.65 557.505 196.348 558.172C197.056 558.828 197.41 559.615 197.41 560.531C197.41 561.458 197.056 562.255 196.348 562.922C195.65 563.578 194.806 563.906 193.816 563.906ZM213.305 591.469C210.846 591.469 208.732 590.948 206.961 589.906C205.201 588.854 203.846 587.396 202.898 585.531C201.961 583.667 201.492 581.521 201.492 579.094C201.492 576.635 201.966 574.479 202.914 572.625C203.872 570.76 205.232 569.307 206.992 568.266C208.753 567.214 210.846 566.688 213.273 566.688C215.367 566.688 217.201 567.068 218.773 567.828C220.346 568.589 221.591 569.656 222.508 571.031C223.424 572.406 223.93 574.021 224.023 575.875H217.742C217.565 574.677 217.096 573.714 216.336 572.984C215.586 572.245 214.602 571.875 213.383 571.875C212.352 571.875 211.451 572.156 210.68 572.719C209.919 573.271 209.326 574.078 208.898 575.141C208.471 576.203 208.258 577.49 208.258 579C208.258 580.531 208.466 581.833 208.883 582.906C209.31 583.979 209.909 584.797 210.68 585.359C211.451 585.922 212.352 586.203 213.383 586.203C214.143 586.203 214.826 586.047 215.43 585.734C216.044 585.422 216.549 584.969 216.945 584.375C217.352 583.771 217.617 583.047 217.742 582.203H224.023C223.919 584.036 223.419 585.651 222.523 587.047C221.638 588.432 220.414 589.516 218.852 590.297C217.289 591.078 215.44 591.469 213.305 591.469ZM235.129 591.453C233.598 591.453 232.233 591.188 231.035 590.656C229.837 590.115 228.889 589.318 228.191 588.266C227.504 587.203 227.16 585.88 227.16 584.297C227.16 582.964 227.405 581.844 227.895 580.937C228.384 580.031 229.051 579.302 229.895 578.75C230.738 578.198 231.697 577.781 232.77 577.5C233.853 577.219 234.988 577.021 236.176 576.906C237.572 576.76 238.697 576.625 239.551 576.5C240.405 576.365 241.025 576.167 241.41 575.906C241.796 575.646 241.988 575.26 241.988 574.75V574.656C241.988 573.667 241.676 572.901 241.051 572.359C240.436 571.818 239.561 571.547 238.426 571.547C237.228 571.547 236.275 571.812 235.566 572.344C234.858 572.865 234.389 573.521 234.16 574.312L228.004 573.812C228.316 572.354 228.931 571.094 229.848 570.031C230.764 568.958 231.947 568.135 233.395 567.562C234.853 566.979 236.54 566.688 238.457 566.688C239.79 566.688 241.066 566.844 242.285 567.156C243.514 567.469 244.603 567.953 245.551 568.609C246.509 569.266 247.264 570.109 247.816 571.141C248.368 572.161 248.645 573.385 248.645 574.812V591H242.332V587.672H242.145C241.759 588.422 241.243 589.083 240.598 589.656C239.952 590.219 239.176 590.661 238.27 590.984C237.363 591.297 236.316 591.453 235.129 591.453ZM237.035 586.859C238.014 586.859 238.879 586.667 239.629 586.281C240.379 585.885 240.967 585.354 241.395 584.688C241.822 584.021 242.035 583.266 242.035 582.422V579.875C241.827 580.01 241.54 580.135 241.176 580.25C240.822 580.354 240.421 580.453 239.973 580.547C239.525 580.63 239.077 580.708 238.629 580.781C238.181 580.844 237.775 580.901 237.41 580.953C236.629 581.068 235.947 581.25 235.363 581.5C234.78 581.75 234.327 582.089 234.004 582.516C233.681 582.932 233.52 583.453 233.52 584.078C233.52 584.984 233.848 585.677 234.504 586.156C235.171 586.625 236.014 586.859 237.035 586.859ZM266.574 567V572H252.121V567H266.574ZM255.402 561.25H262.059V583.625C262.059 584.24 262.152 584.719 262.34 585.062C262.527 585.396 262.788 585.63 263.121 585.766C263.465 585.901 263.861 585.969 264.309 585.969C264.621 585.969 264.934 585.943 265.246 585.891C265.559 585.828 265.798 585.781 265.965 585.75L267.012 590.703C266.678 590.807 266.21 590.927 265.605 591.063C265.001 591.208 264.267 591.297 263.402 591.328C261.798 591.391 260.392 591.177 259.184 590.687C257.986 590.198 257.053 589.437 256.387 588.406C255.72 587.375 255.392 586.073 255.402 584.5V561.25ZM270.91 591V567H277.566V591H270.91ZM274.254 563.906C273.264 563.906 272.415 563.578 271.707 562.922C271.009 562.255 270.66 561.458 270.66 560.531C270.66 559.615 271.009 558.828 271.707 558.172C272.415 557.505 273.264 557.172 274.254 557.172C275.243 557.172 276.087 557.505 276.785 558.172C277.493 558.828 277.848 559.615 277.848 560.531C277.848 561.458 277.493 562.255 276.785 562.922C276.087 563.578 275.243 563.906 274.254 563.906ZM293.742 591.469C291.315 591.469 289.216 590.953 287.445 589.922C285.685 588.88 284.326 587.432 283.367 585.578C282.409 583.714 281.93 581.552 281.93 579.094C281.93 576.615 282.409 574.448 283.367 572.594C284.326 570.729 285.685 569.281 287.445 568.25C289.216 567.208 291.315 566.688 293.742 566.688C296.169 566.688 298.263 567.208 300.023 568.25C301.794 569.281 303.159 570.729 304.117 572.594C305.076 574.448 305.555 576.615 305.555 579.094C305.555 581.552 305.076 583.714 304.117 585.578C303.159 587.432 301.794 588.88 300.023 589.922C298.263 590.953 296.169 591.469 293.742 591.469ZM293.773 586.312C294.878 586.312 295.799 586 296.539 585.375C297.279 584.74 297.836 583.875 298.211 582.781C298.596 581.687 298.789 580.443 298.789 579.047C298.789 577.651 298.596 576.406 298.211 575.312C297.836 574.219 297.279 573.354 296.539 572.719C295.799 572.083 294.878 571.766 293.773 571.766C292.659 571.766 291.721 572.083 290.961 572.719C290.211 573.354 289.643 574.219 289.258 575.312C288.883 576.406 288.695 577.651 288.695 579.047C288.695 580.443 288.883 581.687 289.258 582.781C289.643 583.875 290.211 584.74 290.961 585.375C291.721 586 292.659 586.312 293.773 586.312ZM316.539 577.125V591H309.883V567H316.227V571.234H316.508C317.039 569.839 317.93 568.734 319.18 567.922C320.43 567.099 321.945 566.688 323.727 566.688C325.393 566.688 326.846 567.052 328.086 567.781C329.326 568.51 330.289 569.552 330.977 570.906C331.664 572.25 332.008 573.854 332.008 575.719V591H325.352V576.906C325.362 575.437 324.987 574.292 324.227 573.469C323.466 572.635 322.419 572.219 321.086 572.219C320.19 572.219 319.398 572.411 318.711 572.797C318.034 573.182 317.503 573.745 317.117 574.484C316.742 575.214 316.549 576.094 316.539 577.125Z" fill="#304742"/>
<defs>
<clipPath id="clip0_1502_3334">
<rect width="200" height="204.115" fill="white" transform="translate(0 138.642)"/>
</clipPath>
</defs>
</svg>
