<svg width="83" height="82" viewBox="0 0 83 82" fill="none" xmlns="http://www.w3.org/2000/svg">
<g clip-path="url(#clip0_2812_41226)">
<path d="M41.5 12C25.5089 12 12.5 25.0089 12.5 41C12.5 56.9911 25.5089 70 41.5 70H70.5V41C70.5 25.0089 57.4911 12 41.5 12ZM65.6667 65.1667H41.5C28.1745 65.1667 17.3333 54.3255 17.3333 41C17.3333 27.6745 28.1745 16.8333 41.5 16.8333C54.8255 16.8333 65.6667 27.6745 65.6667 41V65.1667Z" fill="#6ED47A"/>
<path d="M53.4675 36.5562C53.3897 36.4316 53.277 36.328 53.1408 36.2559C53.0046 36.1839 52.8497 36.1459 52.692 36.1459H41.0163L42.9738 22.5658C42.9948 22.3841 42.9478 22.2012 42.8404 22.0467C42.7331 21.8921 42.5715 21.7748 42.3818 21.7138C42.1921 21.6527 41.9853 21.6514 41.7947 21.71C41.6041 21.7686 41.4407 21.8838 41.3309 22.037L27.132 44.6239C27.049 44.7465 27.0035 44.8871 27.0002 45.031C26.9969 45.1749 27.0359 45.317 27.1133 45.4426C27.1906 45.5683 27.3035 45.6729 27.4402 45.7458C27.577 45.8186 27.7326 45.857 27.8912 45.857H39.3924L37.8412 59.4575C37.8259 59.6386 37.8778 59.8192 37.9886 59.9704C38.0994 60.1217 38.2627 60.2349 38.4526 60.2922C38.6425 60.3494 38.848 60.3474 39.0364 60.2863C39.2248 60.2253 39.3854 60.1088 39.4925 59.9554L53.4568 37.3709C53.5377 37.2481 53.5814 37.108 53.5833 36.9649C53.5851 36.8217 53.5452 36.6807 53.4675 36.5562Z" fill="#6ED47A"/>
</g>
<defs>
<clipPath id="clip0_2812_41226">
<rect width="58" height="58" fill="white" transform="translate(12.5 12)"/>
</clipPath>
</defs>
</svg>
