<svg width="443" height="631" viewBox="0 0 443 631" fill="none" xmlns="http://www.w3.org/2000/svg">
<rect width="46.3994" height="46.3994" rx="23.1997" fill="#4AC959"/>
<path d="M35.2585 14.4753L29.9101 17.4176C28.9047 16.3661 27.9108 15.6364 26.9284 15.2286C25.946 14.8207 24.7953 14.6168 23.4764 14.6168C21.0727 14.6168 19.1286 15.3334 17.644 16.7665C16.1595 18.1996 15.4172 20.0365 15.4172 22.2773C15.4172 24.4553 16.1319 26.2336 17.5612 27.612C18.9906 28.9905 20.868 29.68 23.1934 29.6805C26.0687 29.6805 28.3076 28.6997 29.9101 26.7382L34.9747 30.207C32.2286 33.7791 28.3529 35.5648 23.3478 35.5643C18.8459 35.5643 15.3191 34.2306 12.7675 31.5632C10.2159 28.8959 8.94142 25.7732 8.9441 22.1953C8.9441 19.716 9.56391 17.4329 10.8035 15.346C12.0432 13.259 13.7732 11.6193 15.9936 10.4268C18.214 9.23436 20.6973 8.63812 23.4434 8.63812C25.9854 8.63812 28.2685 9.14405 30.2928 10.1559C32.2913 11.1457 34.0014 12.6332 35.2585 14.4753Z" fill="white"/>
<path d="M20.9658 23.7966C21.9022 23.7966 22.6613 23.0375 22.6613 22.1012C22.6613 21.1648 21.9022 20.4057 20.9658 20.4057C20.0295 20.4057 19.2704 21.1648 19.2704 22.1012C19.2704 23.0375 20.0295 23.7966 20.9658 23.7966Z" fill="white"/>
<path d="M25.7571 23.7966C26.6935 23.7966 27.4525 23.0375 27.4525 22.1012C27.4525 21.1648 26.6935 20.4057 25.7571 20.4057C24.8207 20.4057 24.0616 21.1648 24.0616 22.1012C24.0616 23.0375 24.8207 23.7966 25.7571 23.7966Z" fill="white"/>
<path d="M30.5484 23.7966C31.4847 23.7966 32.2438 23.0375 32.2438 22.1012C32.2438 21.1648 31.4847 20.4057 30.5484 20.4057C29.612 20.4057 28.8529 21.1648 28.8529 22.1012C28.8529 23.0375 29.612 23.7966 30.5484 23.7966Z" fill="white"/>
<path d="M34.9925 30.2023L24.4741 40.9272L24.7812 33.1735L34.9925 30.2023Z" fill="white"/>
<path d="M35.2585 14.4753L29.9101 17.4176C28.9047 16.3661 27.9108 15.6364 26.9284 15.2286C25.946 14.8207 24.7953 14.6168 23.4764 14.6168C21.0727 14.6168 19.1286 15.3334 17.644 16.7665C16.1595 18.1996 15.4172 20.0365 15.4172 22.2773C15.4172 24.4553 16.1319 26.2336 17.5612 27.612C18.9906 28.9905 20.868 29.68 23.1934 29.6805C26.0687 29.6805 28.3076 28.6997 29.9101 26.7382L34.9747 30.207C32.2286 33.7791 28.3529 35.5648 23.3478 35.5643C18.8459 35.5643 15.3191 34.2306 12.7675 31.5632C10.2159 28.8959 8.94142 25.7732 8.9441 22.1953C8.9441 19.716 9.56391 17.4329 10.8035 15.346C12.0432 13.259 13.7732 11.6193 15.9936 10.4268C18.214 9.23436 20.6973 8.63812 23.4434 8.63812C25.9854 8.63812 28.2685 9.14405 30.2928 10.1559C32.2913 11.1457 34.0014 12.6332 35.2585 14.4753Z" fill="white"/>
<path d="M20.9658 23.7966C21.9022 23.7966 22.6613 23.0375 22.6613 22.1012C22.6613 21.1648 21.9022 20.4057 20.9658 20.4057C20.0295 20.4057 19.2704 21.1648 19.2704 22.1012C19.2704 23.0375 20.0295 23.7966 20.9658 23.7966Z" fill="white"/>
<path d="M25.7571 23.7966C26.6935 23.7966 27.4525 23.0375 27.4525 22.1012C27.4525 21.1648 26.6935 20.4057 25.7571 20.4057C24.8207 20.4057 24.0616 21.1648 24.0616 22.1012C24.0616 23.0375 24.8207 23.7966 25.7571 23.7966Z" fill="white"/>
<path d="M30.5484 23.7966C31.4847 23.7966 32.2438 23.0375 32.2438 22.1012C32.2438 21.1648 31.4847 20.4057 30.5484 20.4057C29.612 20.4057 28.8529 21.1648 28.8529 22.1012C28.8529 23.0375 29.612 23.7966 30.5484 23.7966Z" fill="white"/>
<path d="M34.9925 30.2023L24.4741 40.9272L24.7812 33.1735L34.9925 30.2023Z" fill="white"/>
<path d="M35.2585 14.4753L29.9101 17.4176C28.9047 16.3661 27.9108 15.6364 26.9284 15.2286C25.946 14.8207 24.7953 14.6168 23.4764 14.6168C21.0727 14.6168 19.1286 15.3334 17.644 16.7665C16.1595 18.1996 15.4172 20.0365 15.4172 22.2773C15.4172 24.4553 16.1319 26.2336 17.5612 27.612C18.9906 28.9905 20.868 29.68 23.1934 29.6805C26.0687 29.6805 28.3076 28.6997 29.9101 26.7382L34.9747 30.207C32.2286 33.7791 28.3529 35.5648 23.3478 35.5643C18.8459 35.5643 15.3191 34.2306 12.7675 31.5632C10.2159 28.8959 8.94142 25.7732 8.9441 22.1953C8.9441 19.716 9.56391 17.4329 10.8035 15.346C12.0432 13.259 13.7732 11.6193 15.9936 10.4268C18.214 9.23436 20.6973 8.63812 23.4434 8.63812C25.9854 8.63812 28.2685 9.14405 30.2928 10.1559C32.2913 11.1457 34.0014 12.6332 35.2585 14.4753Z" fill="white"/>
<path d="M20.9658 23.7966C21.9022 23.7966 22.6613 23.0375 22.6613 22.1012C22.6613 21.1648 21.9022 20.4057 20.9658 20.4057C20.0295 20.4057 19.2704 21.1648 19.2704 22.1012C19.2704 23.0375 20.0295 23.7966 20.9658 23.7966Z" fill="white"/>
<path d="M25.7571 23.7966C26.6935 23.7966 27.4525 23.0375 27.4525 22.1012C27.4525 21.1648 26.6935 20.4057 25.7571 20.4057C24.8207 20.4057 24.0616 21.1648 24.0616 22.1012C24.0616 23.0375 24.8207 23.7966 25.7571 23.7966Z" fill="white"/>
<path d="M30.5484 23.7966C31.4847 23.7966 32.2438 23.0375 32.2438 22.1012C32.2438 21.1648 31.4847 20.4057 30.5484 20.4057C29.612 20.4057 28.8529 21.1648 28.8529 22.1012C28.8529 23.0375 29.612 23.7966 30.5484 23.7966Z" fill="white"/>
<path d="M34.9925 30.2023L24.4741 40.9272L24.7812 33.1735L34.9925 30.2023Z" fill="white"/>
<path d="M35.2585 14.4753L29.9101 17.4176C28.9047 16.3661 27.9108 15.6364 26.9284 15.2286C25.946 14.8207 24.7953 14.6168 23.4764 14.6168C21.0727 14.6168 19.1286 15.3334 17.644 16.7665C16.1595 18.1996 15.4172 20.0365 15.4172 22.2773C15.4172 24.4553 16.1319 26.2336 17.5612 27.612C18.9906 28.9905 20.868 29.68 23.1934 29.6805C26.0687 29.6805 28.3076 28.6997 29.9101 26.7382L34.9747 30.207C32.2286 33.7791 28.3529 35.5648 23.3478 35.5643C18.8459 35.5643 15.3191 34.2306 12.7675 31.5632C10.2159 28.8959 8.94142 25.7732 8.9441 22.1953C8.9441 19.716 9.56391 17.4329 10.8035 15.346C12.0432 13.259 13.7732 11.6193 15.9936 10.4268C18.214 9.23436 20.6973 8.63812 23.4434 8.63812C25.9854 8.63812 28.2685 9.14405 30.2928 10.1559C32.2913 11.1457 34.0014 12.6332 35.2585 14.4753Z" fill="white"/>
<path d="M20.9658 23.7966C21.9022 23.7966 22.6613 23.0375 22.6613 22.1012C22.6613 21.1648 21.9022 20.4057 20.9658 20.4057C20.0295 20.4057 19.2704 21.1648 19.2704 22.1012C19.2704 23.0375 20.0295 23.7966 20.9658 23.7966Z" fill="white"/>
<path d="M25.7571 23.7966C26.6935 23.7966 27.4525 23.0375 27.4525 22.1012C27.4525 21.1648 26.6935 20.4057 25.7571 20.4057C24.8207 20.4057 24.0616 21.1648 24.0616 22.1012C24.0616 23.0375 24.8207 23.7966 25.7571 23.7966Z" fill="white"/>
<path d="M30.5484 23.7966C31.4847 23.7966 32.2438 23.0375 32.2438 22.1012C32.2438 21.1648 31.4847 20.4057 30.5484 20.4057C29.612 20.4057 28.8529 21.1648 28.8529 22.1012C28.8529 23.0375 29.612 23.7966 30.5484 23.7966Z" fill="white"/>
<path d="M34.9925 30.2023L24.4741 40.9272L24.7812 33.1735L34.9925 30.2023Z" fill="white"/>
<path d="M55.217 8.73993H59.9798V23.8888L66.9986 16.0662H72.978L64.796 25.1606L73.9472 35.0404H68.0364L59.9798 26.2953V35.0404H55.217V8.73993Z" fill="#0F2925"/>
<path d="M73.8003 16.0663H78.4611L82.2763 26.8619L86.3823 16.0663H89.235L93.2658 26.7399L97.0893 16.0663H101.769L94.8517 35.0404H91.8353L87.7878 24.2281L83.6199 35.0404H80.6369L73.8003 16.0663Z" fill="#0F2925"/>
<path d="M106.327 8.25206C106.728 8.24699 107.126 8.32499 107.496 8.48115C107.865 8.63732 108.199 8.86828 108.475 9.15949C108.765 9.44591 108.994 9.78842 109.148 10.1662C109.302 10.544 109.378 10.9492 109.37 11.3571C109.378 11.7604 109.303 12.161 109.15 12.5345C108.997 12.908 108.771 13.2465 108.483 13.5295C108.211 13.8177 107.882 14.0463 107.517 14.2011C107.152 14.3558 106.759 14.4333 106.362 14.4286C105.956 14.4353 105.554 14.3573 105.18 14.1996C104.806 14.0419 104.468 13.808 104.19 13.5128C103.9 13.2209 103.672 12.8737 103.519 12.4918C103.367 12.11 103.292 11.7014 103.301 11.2902C103.3 10.4866 103.619 9.71572 104.186 9.14673C104.754 8.57774 105.524 8.25718 106.327 8.25541V8.25206ZM103.941 16.0663H108.702V35.0405H103.941V16.0663Z" fill="#0F2925"/>
<path d="M131.608 19.9034L127.644 22.0759C126.899 21.2961 126.163 20.7557 125.435 20.4549C124.621 20.1361 123.751 19.9817 122.877 20.0004C121.094 20.0004 119.654 20.5318 118.555 21.5946C117.457 22.6575 116.907 24.0184 116.906 25.6772C116.906 27.2916 117.435 28.6095 118.495 29.6312C119.554 30.6528 120.947 31.163 122.673 31.1619C124.804 31.1619 126.463 30.4378 127.649 28.9894L131.403 31.5597C129.361 34.2068 126.487 35.5303 122.783 35.5303C119.441 35.5303 116.828 34.5415 114.944 32.564C113.06 30.5865 112.113 28.2731 112.103 25.6238C112.089 23.831 112.569 22.0691 113.49 20.531C114.412 18.9929 115.738 17.738 117.325 16.9037C119.023 16.0072 120.92 15.5509 122.84 15.5769C124.597 15.5489 126.335 15.9348 127.915 16.7032C129.401 17.4347 130.673 18.537 131.608 19.9034Z" fill="#0F2925"/>
<path d="M131.398 31.5611L123.604 39.5074L123.833 33.762L131.398 31.5611Z" fill="#0F2925"/>
<path d="M121.017 26.8101C121.711 26.8101 122.273 26.2475 122.273 25.5534C122.273 24.8593 121.711 24.2967 121.017 24.2967C120.323 24.2967 119.76 24.8593 119.76 25.5534C119.76 26.2475 120.323 26.8101 121.017 26.8101Z" fill="#0F2925"/>
<path d="M124.566 26.8101C125.26 26.8101 125.823 26.2475 125.823 25.5534C125.823 24.8593 125.26 24.2967 124.566 24.2967C123.872 24.2967 123.309 24.8593 123.309 25.5534C123.309 26.2475 123.872 26.8101 124.566 26.8101Z" fill="#0F2925"/>
<path d="M128.117 26.8101C128.811 26.8101 129.374 26.2475 129.374 25.5534C129.374 24.8593 128.811 24.2967 128.117 24.2967C127.423 24.2967 126.861 24.8593 126.861 25.5534C126.861 26.2475 127.423 26.8101 128.117 26.8101Z" fill="#0F2925"/>
<path d="M55.217 8.73993H59.9798V23.8888L66.9986 16.0662H72.978L64.796 25.1606L73.9472 35.0404H68.0364L59.9798 26.2953V35.0404H55.217V8.73993Z" fill="#0F2925"/>
<path d="M73.8003 16.0663H78.4611L82.2763 26.8619L86.3823 16.0663H89.235L93.2658 26.7399L97.0893 16.0663H101.769L94.8517 35.0404H91.8353L87.7878 24.2281L83.6199 35.0404H80.6369L73.8003 16.0663Z" fill="#0F2925"/>
<path d="M106.327 8.25206C106.728 8.24699 107.126 8.32499 107.496 8.48115C107.865 8.63732 108.199 8.86828 108.475 9.15949C108.765 9.44591 108.994 9.78842 109.148 10.1662C109.302 10.544 109.378 10.9492 109.37 11.3571C109.378 11.7604 109.303 12.161 109.15 12.5345C108.997 12.908 108.771 13.2465 108.483 13.5295C108.211 13.8177 107.882 14.0463 107.517 14.2011C107.152 14.3558 106.759 14.4333 106.362 14.4286C105.956 14.4353 105.554 14.3573 105.18 14.1996C104.806 14.0419 104.468 13.808 104.19 13.5128C103.9 13.2209 103.672 12.8737 103.519 12.4918C103.367 12.11 103.292 11.7014 103.301 11.2902C103.3 10.4866 103.619 9.71572 104.186 9.14673C104.754 8.57774 105.524 8.25718 106.327 8.25541V8.25206ZM103.941 16.0663H108.702V35.0405H103.941V16.0663Z" fill="#0F2925"/>
<path d="M131.608 19.9034L127.644 22.0759C126.899 21.2961 126.163 20.7557 125.435 20.4549C124.621 20.1361 123.751 19.9817 122.877 20.0004C121.094 20.0004 119.654 20.5318 118.555 21.5946C117.457 22.6575 116.907 24.0184 116.906 25.6772C116.906 27.2916 117.435 28.6095 118.495 29.6312C119.554 30.6528 120.947 31.163 122.673 31.1619C124.804 31.1619 126.463 30.4378 127.649 28.9894L131.403 31.5597C129.361 34.2068 126.487 35.5303 122.783 35.5303C119.441 35.5303 116.828 34.5415 114.944 32.564C113.06 30.5865 112.113 28.2731 112.103 25.6238C112.089 23.831 112.569 22.0691 113.49 20.531C114.412 18.9929 115.738 17.738 117.325 16.9037C119.023 16.0072 120.92 15.5509 122.84 15.5769C124.597 15.5489 126.335 15.9348 127.915 16.7032C129.401 17.4347 130.673 18.537 131.608 19.9034Z" fill="#0F2925"/>
<path d="M131.398 31.5611L123.604 39.5074L123.833 33.762L131.398 31.5611Z" fill="#0F2925"/>
<path d="M121.017 26.8101C121.711 26.8101 122.273 26.2475 122.273 25.5534C122.273 24.8593 121.711 24.2967 121.017 24.2967C120.323 24.2967 119.76 24.8593 119.76 25.5534C119.76 26.2475 120.323 26.8101 121.017 26.8101Z" fill="#0F2925"/>
<path d="M124.566 26.8101C125.26 26.8101 125.823 26.2475 125.823 25.5534C125.823 24.8593 125.26 24.2967 124.566 24.2967C123.872 24.2967 123.309 24.8593 123.309 25.5534C123.309 26.2475 123.872 26.8101 124.566 26.8101Z" fill="#0F2925"/>
<path d="M128.117 26.8101C128.811 26.8101 129.374 26.2475 129.374 25.5534C129.374 24.8593 128.811 24.2967 128.117 24.2967C127.423 24.2967 126.861 24.8593 126.861 25.5534C126.861 26.2475 127.423 26.8101 128.117 26.8101Z" fill="#0F2925"/>
<path d="M55.217 8.73993H59.9798V23.8888L66.9986 16.0662H72.978L64.796 25.1606L73.9472 35.0404H68.0364L59.9798 26.2953V35.0404H55.217V8.73993Z" fill="#0F2925"/>
<path d="M73.8003 16.0663H78.4611L82.2763 26.8619L86.3823 16.0663H89.235L93.2658 26.7399L97.0893 16.0663H101.769L94.8517 35.0404H91.8353L87.7878 24.2281L83.6199 35.0404H80.6369L73.8003 16.0663Z" fill="#0F2925"/>
<path d="M106.327 8.25206C106.728 8.24699 107.126 8.32499 107.496 8.48115C107.865 8.63732 108.199 8.86828 108.475 9.15949C108.765 9.44591 108.994 9.78842 109.148 10.1662C109.302 10.544 109.378 10.9492 109.37 11.3571C109.378 11.7604 109.303 12.161 109.15 12.5345C108.997 12.908 108.771 13.2465 108.483 13.5295C108.211 13.8177 107.882 14.0463 107.517 14.2011C107.152 14.3558 106.759 14.4333 106.362 14.4286C105.956 14.4353 105.554 14.3573 105.18 14.1996C104.806 14.0419 104.468 13.808 104.19 13.5128C103.9 13.2209 103.672 12.8737 103.519 12.4918C103.367 12.11 103.292 11.7014 103.301 11.2902C103.3 10.4866 103.619 9.71572 104.186 9.14673C104.754 8.57774 105.524 8.25718 106.327 8.25541V8.25206ZM103.941 16.0663H108.702V35.0405H103.941V16.0663Z" fill="#0F2925"/>
<path d="M131.608 19.9034L127.644 22.0759C126.899 21.2961 126.163 20.7557 125.435 20.4549C124.621 20.1361 123.751 19.9817 122.877 20.0004C121.094 20.0004 119.654 20.5318 118.555 21.5946C117.457 22.6575 116.907 24.0184 116.906 25.6772C116.906 27.2916 117.435 28.6095 118.495 29.6312C119.554 30.6528 120.947 31.163 122.673 31.1619C124.804 31.1619 126.463 30.4378 127.649 28.9894L131.403 31.5597C129.361 34.2068 126.487 35.5303 122.783 35.5303C119.441 35.5303 116.828 34.5415 114.944 32.564C113.06 30.5865 112.113 28.2731 112.103 25.6238C112.089 23.831 112.569 22.0691 113.49 20.531C114.412 18.9929 115.738 17.738 117.325 16.9037C119.023 16.0072 120.92 15.5509 122.84 15.5769C124.597 15.5489 126.335 15.9348 127.915 16.7032C129.401 17.4347 130.673 18.537 131.608 19.9034Z" fill="#0F2925"/>
<path d="M131.398 31.5611L123.604 39.5074L123.833 33.762L131.398 31.5611Z" fill="#0F2925"/>
<path d="M121.017 26.8101C121.711 26.8101 122.273 26.2475 122.273 25.5534C122.273 24.8593 121.711 24.2967 121.017 24.2967C120.323 24.2967 119.76 24.8593 119.76 25.5534C119.76 26.2475 120.323 26.8101 121.017 26.8101Z" fill="#0F2925"/>
<path d="M124.566 26.8101C125.26 26.8101 125.823 26.2475 125.823 25.5534C125.823 24.8593 125.26 24.2967 124.566 24.2967C123.872 24.2967 123.309 24.8593 123.309 25.5534C123.309 26.2475 123.872 26.8101 124.566 26.8101Z" fill="#0F2925"/>
<path d="M128.117 26.8101C128.811 26.8101 129.374 26.2475 129.374 25.5534C129.374 24.8593 128.811 24.2967 128.117 24.2967C127.423 24.2967 126.861 24.8593 126.861 25.5534C126.861 26.2475 127.423 26.8101 128.117 26.8101Z" fill="#0F2925"/>
<path d="M55.217 8.73993H59.9798V23.8888L66.9986 16.0662H72.978L64.796 25.1606L73.9472 35.0404H68.0364L59.9798 26.2953V35.0404H55.217V8.73993Z" fill="#0F2925"/>
<path d="M73.8003 16.0663H78.4611L82.2763 26.8619L86.3823 16.0663H89.235L93.2658 26.7399L97.0893 16.0663H101.769L94.8517 35.0404H91.8353L87.7878 24.2281L83.6199 35.0404H80.6369L73.8003 16.0663Z" fill="#0F2925"/>
<path d="M106.327 8.25206C106.728 8.24699 107.126 8.32499 107.496 8.48115C107.865 8.63732 108.199 8.86828 108.475 9.15949C108.765 9.44591 108.994 9.78842 109.148 10.1662C109.302 10.544 109.378 10.9492 109.37 11.3571C109.378 11.7604 109.303 12.161 109.15 12.5345C108.997 12.908 108.771 13.2465 108.483 13.5295C108.211 13.8177 107.882 14.0463 107.517 14.2011C107.152 14.3558 106.759 14.4333 106.362 14.4286C105.956 14.4353 105.554 14.3573 105.18 14.1996C104.806 14.0419 104.468 13.808 104.19 13.5128C103.9 13.2209 103.672 12.8737 103.519 12.4918C103.367 12.11 103.292 11.7014 103.301 11.2902C103.3 10.4866 103.619 9.71572 104.186 9.14673C104.754 8.57774 105.524 8.25718 106.327 8.25541V8.25206ZM103.941 16.0663H108.702V35.0405H103.941V16.0663Z" fill="#0F2925"/>
<path d="M131.608 19.9034L127.644 22.0759C126.899 21.2961 126.163 20.7557 125.435 20.4549C124.621 20.1361 123.751 19.9817 122.877 20.0004C121.094 20.0004 119.654 20.5318 118.555 21.5946C117.457 22.6575 116.907 24.0184 116.906 25.6772C116.906 27.2916 117.435 28.6095 118.495 29.6312C119.554 30.6528 120.947 31.163 122.673 31.1619C124.804 31.1619 126.463 30.4378 127.649 28.9894L131.403 31.5597C129.361 34.2068 126.487 35.5303 122.783 35.5303C119.441 35.5303 116.828 34.5415 114.944 32.564C113.06 30.5865 112.113 28.2731 112.103 25.6238C112.089 23.831 112.569 22.0691 113.49 20.531C114.412 18.9929 115.738 17.738 117.325 16.9037C119.023 16.0072 120.92 15.5509 122.84 15.5769C124.597 15.5489 126.335 15.9348 127.915 16.7032C129.401 17.4347 130.673 18.537 131.608 19.9034Z" fill="#0F2925"/>
<path d="M131.398 31.5611L123.604 39.5074L123.833 33.762L131.398 31.5611Z" fill="#0F2925"/>
<path d="M121.017 26.8101C121.711 26.8101 122.273 26.2475 122.273 25.5534C122.273 24.8593 121.711 24.2967 121.017 24.2967C120.323 24.2967 119.76 24.8593 119.76 25.5534C119.76 26.2475 120.323 26.8101 121.017 26.8101Z" fill="#0F2925"/>
<path d="M124.566 26.8101C125.26 26.8101 125.823 26.2475 125.823 25.5534C125.823 24.8593 125.26 24.2967 124.566 24.2967C123.872 24.2967 123.309 24.8593 123.309 25.5534C123.309 26.2475 123.872 26.8101 124.566 26.8101Z" fill="#0F2925"/>
<path d="M128.117 26.8101C128.811 26.8101 129.374 26.2475 129.374 25.5534C129.374 24.8593 128.811 24.2967 128.117 24.2967C127.423 24.2967 126.861 24.8593 126.861 25.5534C126.861 26.2475 127.423 26.8101 128.117 26.8101Z" fill="#0F2925"/>
<g clip-path="url(#clip0_429_62963)">
<path d="M107.083 267.496C131.363 243.126 131.363 203.615 107.083 179.245C82.8031 154.875 43.437 154.875 19.1568 179.245C-5.12339 203.615 -5.12339 243.126 19.1568 267.496C43.437 291.866 82.8031 291.866 107.083 267.496Z" fill="white"/>
<path d="M327.183 228.728C327.183 240.619 323.434 251.631 317.065 260.631C316.387 261.587 315.686 262.52 314.947 263.43C304.874 275.91 289.485 283.886 272.244 283.886C255.003 283.886 239.605 275.91 229.541 263.43C228.802 262.52 228.093 261.595 227.422 260.639C221.045 251.639 217.297 240.62 217.297 228.728C217.297 198.278 241.899 173.586 272.244 173.586C302.589 173.586 327.183 198.277 327.183 228.728Z" fill="white"/>
<path d="M314.947 263.429C304.874 275.909 289.485 283.885 272.244 283.885C255.003 283.885 239.605 275.909 229.541 263.429C239.056 250.085 254.637 241.383 272.244 241.383C289.85 241.383 305.423 250.078 314.947 263.429Z" fill="#00C5C5"/>
<path d="M275.558 234.474V241.573L271.075 245.918L266.593 241.573V234.781C267.828 235.03 269.107 235.158 270.42 235.158C272.2 235.158 273.922 234.919 275.558 234.474Z" fill="white"/>
<path d="M290.019 215.481C290.019 218.632 289.281 221.606 287.962 224.245C284.762 230.714 278.104 235.156 270.416 235.156C259.59 235.156 250.813 226.347 250.813 215.481C250.813 210.426 252.718 205.808 255.857 202.32C259.43 198.321 264.634 195.805 270.417 195.805C281.243 195.805 290.02 204.614 290.02 215.48L290.019 215.481Z" fill="white"/>
<path d="M107.259 268.005C131.652 243.522 131.652 203.827 107.259 179.344C82.8661 154.861 43.3174 154.861 18.9245 179.344C-5.46844 203.827 -5.46844 243.522 18.9245 268.005C43.3174 292.488 82.8661 292.488 107.259 268.005Z" fill="white"/>
<path d="M1.74626 236.222C4.41175 249.504 11.068 260.959 20.2005 269.574C21.1725 270.488 22.1643 271.372 23.1939 272.222C37.2427 283.888 56.222 289.321 75.4811 285.427C94.7403 281.533 110.152 269.146 118.596 252.933C119.218 251.75 119.802 250.556 120.336 249.336C125.442 237.842 127.158 224.686 124.493 211.404C117.666 177.389 84.6499 155.364 50.7523 162.217C16.8554 169.07 -5.08104 202.207 1.74626 236.222Z" fill="white"/>
<path d="M23.1939 272.221C37.2427 283.887 56.222 289.32 75.4811 285.426C94.7402 281.532 110.152 269.145 118.596 252.932C104.975 240.175 85.6204 233.973 65.9521 237.95C46.2924 241.924 30.838 255.156 23.1931 272.221H23.1939Z" fill="#FF8E2D"/>
<path d="M71.9933 234.709L70.7847 229.299C69.4603 229.856 68.0609 230.288 66.5946 230.584C64.6047 230.986 62.6283 231.107 60.7007 230.98L62.0291 236.947C62.6346 239.668 65.2969 241.403 68.0191 240.852C70.8257 240.285 72.6185 237.512 71.9925 234.708L71.9933 234.709Z" fill="white"/>
<path d="M40.2898 213.03C40.9961 216.55 42.4885 219.706 44.5525 222.355C49.5776 228.859 58.0116 232.318 66.5985 230.581C78.6922 228.136 86.5215 216.314 84.0846 204.175C82.9517 198.529 79.788 193.8 75.5 190.613C70.6121 186.953 64.235 185.318 57.7758 186.624C45.6822 189.069 37.8529 200.891 40.2898 213.03V213.03Z" fill="white"/>
<path d="M198.618 363.619C218.041 344.125 218.041 312.518 198.618 293.024C179.196 273.529 147.706 273.529 128.283 293.024C108.861 312.518 108.861 344.125 128.283 363.619C147.706 383.113 179.196 383.113 198.618 363.619Z" fill="white"/>
<path d="M114.605 338.312C116.727 348.888 122.027 358.009 129.299 364.868C130.072 365.596 130.862 366.3 131.682 366.976C142.868 376.265 157.98 380.591 173.315 377.491C188.65 374.391 200.921 364.528 207.645 351.617C208.14 350.675 208.605 349.725 209.031 348.754C213.095 339.602 214.462 329.127 212.34 318.55C206.904 291.467 180.616 273.93 153.625 279.386C126.635 284.844 109.168 311.228 114.604 338.311L114.605 338.312Z" fill="white"/>
<path d="M131.683 366.976C142.869 376.265 157.981 380.591 173.316 377.491C188.65 374.391 200.922 364.528 207.645 351.617C196.8 341.46 181.389 336.522 165.728 339.688C150.075 342.853 137.77 353.388 131.683 366.976Z" fill="#8E8EFF"/>
<path d="M170.538 337.107L169.576 332.8C168.521 333.243 167.407 333.586 166.239 333.823C164.655 334.143 163.081 334.24 161.546 334.139L162.604 338.89C163.087 341.056 165.206 342.438 167.374 341.999C169.609 341.548 171.036 339.34 170.538 337.108L170.538 337.107Z" fill="white"/>
<path d="M303.16 325.048C303.16 330.137 299.052 334.256 293.986 334.256C288.921 334.256 284.813 330.137 284.813 325.048C284.813 319.96 288.916 315.846 293.986 315.846C299.056 315.846 303.16 319.964 303.16 325.048Z" fill="white"/>
<path d="M193.612 186.7C193.612 192.558 188.883 197.3 183.051 197.3C177.22 197.3 172.49 192.558 172.49 186.7C172.49 180.842 177.214 176.106 183.051 176.106C188.888 176.106 193.612 180.847 193.612 186.7Z" fill="white"/>
<path d="M145.751 139.861L145.511 169.978C145.481 173.726 142.429 176.741 138.694 176.711L123.111 176.585L115.717 186.601C114.644 188.054 112.471 188.037 111.421 186.566L104.189 176.433L88.6044 176.308C84.8698 176.278 81.8661 173.214 81.8961 169.466L82.1365 139.349C82.1665 135.601 85.2183 132.586 88.9528 132.616L139.042 133.019C142.777 133.049 145.78 136.113 145.75 139.861H145.751Z" fill="white"/>
<path d="M122.739 157.51L111.774 166.684C109.643 168.467 106.406 166.946 106.406 164.161V145.822C106.406 143.038 109.641 141.516 111.772 143.298L122.738 152.464C124.308 153.776 124.309 156.197 122.739 157.51Z" fill="#FF5B5B"/>
<path d="M218.372 398.326C216.803 399.5 214.55 398.799 213.918 396.94L209.563 384.138L198.44 380.633C194.569 379.429 192.403 375.302 193.603 371.416L203.246 340.191C204.446 336.305 208.558 334.132 212.43 335.336L254.289 348.448C258.161 349.653 260.327 353.78 259.127 357.666L249.484 388.89C248.284 392.776 244.171 394.95 240.3 393.746L229.179 390.241L218.371 398.326" fill="white"/>
<path d="M235.369 370.275C235.363 370.278 235.357 370.282 235.35 370.285C235.344 370.288 235.338 370.292 235.331 370.295L222.242 377.224C221.833 377.44 221.33 377.283 221.114 376.872L214.211 363.734L214.201 363.716C214.197 363.709 214.194 363.703 214.19 363.697C212.249 359.97 213.672 355.369 217.379 353.408C221.091 351.444 225.691 352.872 227.649 356.598C227.718 356.736 227.788 356.874 227.851 357.015C227.985 356.939 228.121 356.857 228.258 356.787C231.971 354.823 236.566 356.249 238.528 359.977C240.482 363.697 239.068 368.3 235.369 370.275Z" fill="#FF8EC5"/>
<path d="M333.786 220.406C340.076 214.093 340.076 203.858 333.786 197.546C327.497 191.233 317.3 191.233 311.011 197.546C304.721 203.858 304.721 214.093 311.011 220.406C317.3 226.718 327.497 226.718 333.786 220.406Z" fill="white"/>
<path d="M327.036 213.319C327.672 213.319 328.161 213.906 328.027 214.531C327.735 215.899 326.957 217.091 325.885 217.914C324.916 218.653 323.706 219.095 322.4 219.095C321.094 219.095 319.879 218.653 318.908 217.914C317.837 217.091 317.06 215.899 316.766 214.531C316.633 213.906 317.122 213.319 317.758 213.319H327.036Z" fill="#FF5B5B"/>
<path d="M205.935 150.349C205.522 150.349 205.137 150.089 204.997 149.675C202.518 142.367 202.442 135.193 204.781 129.475C207.912 121.823 215.81 116.641 223.577 118.516C225.792 113.225 230.692 109.635 236.631 109.473C237.158 109.454 237.633 109.891 237.648 110.44C237.663 110.988 237.232 111.446 236.685 111.461C231.635 111.598 227.428 114.599 225.468 119.112C228.198 120.183 230.617 122.073 232.247 124.515C235.004 128.64 237.804 135.696 233.364 137.924C227.762 140.735 222.963 131.442 222.469 125.221C222.34 123.596 222.507 121.966 222.929 120.405C216.146 118.887 209.261 123.759 206.613 130.231C204.456 135.504 204.547 142.182 206.871 149.035C207.048 149.555 206.77 150.119 206.253 150.296C206.147 150.333 206.039 150.349 205.934 150.349H205.935ZM224.818 120.989C224.47 122.311 224.334 123.689 224.443 125.064C224.806 129.625 228.567 138.113 232.478 136.147C235.42 134.67 232.469 128.415 230.603 125.622C229.209 123.537 227.146 121.916 224.818 120.989V120.989Z" fill="#FF8E2D"/>
<path d="M152.746 322.87C150.217 323.381 147.753 321.743 147.244 319.205C146.735 316.666 148.373 314.192 150.902 313.681C153.431 313.17 155.89 314.815 156.4 317.354" fill="white"/>
<path d="M260.656 226.427C260.505 226.199 260.2 226.137 259.971 226.285C259.743 226.436 259.678 226.743 259.828 226.974C260.935 228.657 263.13 229.064 265.26 227.065C265.46 226.877 265.471 226.562 265.284 226.362C265.097 226.161 264.783 226.151 264.584 226.338C262.906 227.914 261.436 227.588 260.656 226.427Z" fill="#00002D"/>
<path d="M255.44 212.479C254.545 212.479 253.823 213.204 253.823 214.102C253.823 215 254.545 215.725 255.44 215.725C256.335 215.725 257.057 215 257.057 214.102C257.057 213.204 256.335 212.479 255.44 212.479Z" fill="#00002D"/>
<path d="M266.071 217.104C266.966 217.104 267.688 216.379 267.688 215.481C267.688 214.583 266.966 213.858 266.071 213.858C265.176 213.858 264.454 214.583 264.454 215.481C264.454 216.379 265.176 217.104 266.071 217.104Z" fill="#00002D"/>
<path d="M258.479 219.779C258.627 220.209 259.02 220.765 260.046 220.966C260.309 221.019 260.573 220.847 260.627 220.573C260.68 220.303 260.505 220.042 260.236 219.99C259.553 219.856 259.449 219.553 259.415 219.453C259.114 218.585 260.292 216.755 261.104 215.805C261.282 215.597 261.259 215.282 261.051 215.104C260.845 214.926 260.532 214.949 260.353 215.157C260.1 215.452 257.896 218.093 258.479 219.779V219.779Z" fill="#00002D"/>
<path d="M265.543 211.045L269.669 213.203C269.912 213.33 270.211 213.235 270.337 212.992C270.463 212.748 270.369 212.448 270.126 212.321L266 210.164C265.757 210.037 265.458 210.131 265.332 210.375C265.206 210.619 265.3 210.919 265.543 211.045Z" fill="#00002D"/>
<path d="M254.036 210.002C258.506 210.301 257.914 210.265 257.982 210.265C258.241 210.265 258.458 210.064 258.476 209.801C258.494 209.527 258.287 209.291 258.015 209.272L254.103 209.01C253.829 208.99 253.594 209.199 253.575 209.473C253.557 209.747 253.764 209.983 254.036 210.002Z" fill="#00002D"/>
<path d="M77.6129 216.609C77.3599 216.508 77.0713 216.632 76.9696 216.886C76.9649 216.898 76.5147 218.001 75.426 218.361C74.6021 218.633 73.6041 218.413 72.4617 217.705C72.2299 217.561 71.9248 217.633 71.7806 217.866C71.6371 218.099 71.7088 218.406 71.9414 218.55C73.1035 219.27 74.4445 219.731 75.7358 219.304C77.2574 218.8 77.8636 217.317 77.8881 217.254C77.9898 216.999 77.866 216.71 77.6122 216.608L77.6129 216.609Z" fill="#00002D"/>
<path d="M78.432 202.752C77.4323 202.954 76.7882 203.927 76.9892 204.93C77.1903 205.933 78.16 206.58 79.1596 206.378C80.1593 206.176 80.8034 205.203 80.6024 204.2C80.4013 203.196 79.4316 202.55 78.432 202.752Z" fill="#00002D"/>
<path d="M67.4398 206.644C66.4969 206.835 65.8898 207.753 66.0798 208.698C66.2698 209.645 67.1836 210.254 68.1265 210.063C69.0693 209.872 69.6764 208.955 69.4872 208.009C69.2972 207.063 68.3827 206.453 67.4406 206.643L67.4398 206.644Z" fill="#00002D"/>
<path d="M73.1491 206.832C74.2663 207.563 75.8004 208.959 75.7121 209.77C75.6806 210.065 75.3881 210.319 74.8449 210.526C74.5895 210.623 74.4602 210.91 74.5572 211.167C74.6541 211.425 74.9419 211.552 75.1958 211.456C78.1269 210.342 76.3184 207.716 73.69 205.999C73.4605 205.848 73.1547 205.914 73.0049 206.145C72.8559 206.374 72.9205 206.682 73.1491 206.832V206.832Z" fill="#00002D"/>
<path d="M68.3416 203.325C68.6097 203.378 68.8698 203.203 68.9227 202.934C68.9755 202.664 68.8005 202.403 68.5324 202.35C66.2895 201.908 64.4487 202.57 63.058 204.318C62.8869 204.532 62.9216 204.845 63.136 205.016C63.3497 205.187 63.6611 205.152 63.8321 204.938C64.9903 203.483 66.4669 202.957 68.3424 203.325H68.3416Z" fill="#00002D"/>
<path d="M79.5728 199.268C77.6247 198.68 75.9999 199.126 74.7432 200.595C74.5651 200.803 74.5887 201.118 74.7961 201.296C75.0026 201.474 75.3156 201.451 75.4938 201.243C76.4855 200.083 77.7256 199.748 79.2874 200.22C79.5476 200.299 79.8251 200.15 79.9039 199.886C79.9828 199.624 79.8338 199.347 79.572 199.268H79.5728Z" fill="#00002D"/>
<path d="M169.36 325.735C170.305 326.321 171.403 326.698 172.466 326.346C173.722 325.931 174.222 324.707 174.242 324.655C174.344 324.4 174.22 324.112 173.966 324.009C173.714 323.907 173.425 324.031 173.323 324.286C173.32 324.295 172.966 325.134 172.155 325.402C171.529 325.608 170.763 325.437 169.88 324.889C169.648 324.745 169.342 324.817 169.199 325.051C169.055 325.284 169.127 325.59 169.36 325.734V325.735Z" fill="#00002D"/>
<path d="M176.623 314.044C176.752 314.687 177.374 315.101 178.014 314.971C178.654 314.842 179.067 314.219 178.938 313.576C178.808 312.934 178.187 312.519 177.547 312.649C176.907 312.779 176.494 313.401 176.623 314.045V314.044Z" fill="#00002D"/>
<path d="M168.001 315.019C167.36 315.149 166.947 315.771 167.077 316.415C167.206 317.057 167.827 317.472 168.467 317.342C169.107 317.212 169.52 316.59 169.391 315.946C169.262 315.304 168.641 314.889 168.001 315.019Z" fill="#00002D"/>
<path d="M165.415 309.883L161.696 311.888C161.455 312.017 161.365 312.319 161.494 312.56C161.623 312.802 161.923 312.893 162.164 312.763L165.883 310.758C166.123 310.628 166.214 310.326 166.085 310.085C165.955 309.844 165.655 309.754 165.415 309.883Z" fill="#00002D"/>
<path d="M173.11 308.056C172.847 308.128 172.691 308.401 172.762 308.666C172.835 308.934 173.109 309.087 173.37 309.015L176.803 308.079C177.066 308.007 177.222 307.734 177.15 307.469C177.079 307.205 176.807 307.048 176.543 307.12L173.11 308.056Z" fill="#00002D"/>
<path d="M112.089 167.065L123.055 157.894C124.866 156.381 124.856 153.588 123.055 152.083L112.089 142.919C109.641 140.863 105.91 142.613 105.91 145.822V164.163C105.91 167.403 109.672 169.098 112.089 167.065V167.065ZM106.901 145.822C106.901 143.447 109.655 142.175 111.456 143.681L122.422 152.845C123.735 153.943 123.767 156.003 122.422 157.125L111.456 166.303C109.644 167.821 106.901 166.521 106.901 164.162V145.821V145.822Z" fill="#00002D"/>
<path d="M213.774 363.964L220.68 377.103C221.009 377.738 221.781 378.015 222.476 377.667L235.593 370.716L235.369 370.272L235.098 369.855L222.014 376.786C221.84 376.873 221.649 376.807 221.552 376.64L214.633 363.468C211.744 357.933 216.91 351.474 223.023 353.343C224.839 353.907 226.324 355.146 227.209 356.822C227.677 357.764 227.756 357.594 228.489 357.226C231.955 355.397 236.259 356.736 238.088 360.208C239.91 363.68 238.527 368.026 235.074 369.868L235.368 370.273L235.542 370.744C239.477 368.643 241.039 363.7 238.965 359.745C236.885 355.796 232.001 354.271 228.066 356.333C227.056 354.431 225.373 353.033 223.319 352.397C221.253 351.754 219.061 351.959 217.147 352.973C213.212 355.053 211.687 359.97 213.774 363.966L213.774 363.964Z" fill="#00002D"/>
<path d="M339 208.974C339 199.791 331.553 192.316 322.397 192.316C319.895 192.316 317.518 192.873 315.392 193.88L315.387 193.882C305.227 181.215 289.672 173.089 272.243 173.089C250.575 173.089 231.783 185.635 222.669 203.862L193.673 189.775C193.956 188.796 194.107 187.763 194.107 186.698C194.107 180.582 189.149 175.613 183.05 175.613C176.95 175.613 171.992 180.582 171.992 186.698C171.992 186.924 171.998 187.149 172.012 187.367L121.125 198.859C119.468 194.972 117.442 191.276 115.06 187.818C115.04 187.831 115.02 187.837 115.001 187.845C115.437 187.626 115.813 187.302 116.116 186.897L123.358 177.084L138.687 177.21C142.807 177.21 145.968 173.938 146.009 169.98L146.246 139.866C146.274 135.762 142.977 132.551 139.044 132.524C136.686 132.505 92.6393 132.15 88.8977 132.12C84.9077 132.12 81.6699 135.352 81.6423 139.349L81.4507 163.196C72.5271 160.46 62.0079 159.885 54.5885 161.062C18.9296 165.856 -6.00185 200.114 1.26142 236.32C8.11553 270.49 41.2382 292.841 75.5757 285.915C79.9197 285.04 84.0988 283.722 88.073 282.005L118.816 305.106C113.496 315.318 111.82 326.955 114.119 338.409C119.598 365.702 146.062 383.506 173.413 377.978C180.873 376.47 187.912 373.279 193.93 368.686V368.688L193.131 371.265C191.851 375.407 194.168 379.826 198.294 381.105L209.173 384.537L213.451 397.101C214.181 399.27 216.817 400.106 218.666 398.724L229.275 390.793L240.155 394.218C244.281 395.503 248.678 393.178 249.958 389.037L259.603 357.815C260.881 353.638 258.558 349.262 254.441 347.975L221.796 337.752L221.787 337.749L284.484 326.826L284.485 326.832C285.317 331.338 289.265 334.757 293.985 334.757C299.319 334.757 303.656 330.403 303.656 325.049C303.656 319.695 299.407 315.437 294.148 315.356L288.778 281.867C311.347 274.813 327.68 253.65 327.68 228.728C327.68 227.414 327.614 226.115 327.521 224.825H327.522C334.177 222.658 339.002 216.37 339.002 208.975L339 208.974ZM338.01 208.974C338.01 217.614 331.006 224.645 322.397 224.645C313.788 224.645 306.791 217.615 306.791 208.974C306.791 200.333 313.789 193.31 322.397 193.31C331.005 193.31 338.01 200.333 338.01 208.974ZM183.05 176.606C188.602 176.606 193.117 181.131 193.117 186.697C193.117 192.263 188.602 196.802 183.05 196.802C177.497 196.802 172.982 192.27 172.982 186.697C172.982 181.124 177.498 176.606 183.05 176.606ZM16.8412 265.096C18.727 265.927 22.3078 266.629 25.1727 267.197C24.043 269.196 23.0702 271.288 23.0205 271.424C21.0133 269.752 18.5536 267.382 16.3595 264.87C16.518 264.95 16.6765 265.023 16.8349 265.089L16.8412 265.096ZM65.9639 230.197C65.9576 230.205 65.9505 230.205 65.9442 230.197C60.7654 231.1 55.6347 230.159 51.2623 227.613C51.3152 227.6 51.3743 227.58 51.4271 227.567C46.7599 216.575 41.8878 203.972 52.1997 201.169C57.3092 199.784 71.0473 199.26 79.8408 195.697C80.5535 196.677 81.1874 197.717 81.7219 198.804C88.1944 211.746 80.5898 227.49 65.9639 230.197ZM117.978 253.03C109.901 268.736 94.3524 281.101 75.385 284.941C56.3363 288.791 36.7957 283.26 23.8002 272.073C31.4316 255.259 47.1029 243.047 62.5779 239.255C65.3931 242.898 71.0639 241.768 72.3552 237.525C86.4095 235.844 103.917 240.346 117.979 253.029L117.978 253.03ZM70.4269 229.979C71.3185 234.339 71.8073 235.153 71.5621 236.598C70.8487 240.812 65.2339 241.949 63.0067 238.116C62.4265 237.105 62.5266 236.635 61.3235 231.517C64.4676 231.593 67.5414 231.137 70.4269 229.979ZM82.6332 139.354C82.66 135.903 85.4517 133.113 88.8984 133.113C92.6337 133.143 136.676 133.498 139.037 133.517C142.468 133.544 145.284 136.348 145.256 139.858L145.019 169.974C144.978 173.482 142.147 176.216 138.747 176.216H138.701L123.115 176.09C122.976 176.07 122.811 176.163 122.712 176.289L115.318 186.307C114.436 187.494 112.654 187.459 111.825 186.274C111.769 186.196 104.53 176.06 104.589 176.143C104.5 176.018 104.358 175.937 104.193 175.937C101.183 175.91 96.8917 175.878 88.6067 175.811C85.1765 175.784 82.3605 172.98 82.3881 169.47C82.7129 129.422 82.6135 141.796 82.6332 139.354ZM54.6823 162.055C63.8929 160.793 72.9237 161.607 81.4389 164.281L81.3994 169.463C81.3718 173.459 84.564 176.776 88.602 176.805L103.859 176.93C104.172 177.157 103.747 176.728 111.022 186.856C111.783 187.918 113.021 188.315 114.072 188.135C127.015 206.732 129.034 231.538 118.455 252.122C113.368 247.515 107.796 243.843 101.278 241.083C101.82 238.797 102.051 236.425 102.071 234.073C102.17 223.028 97.4822 212.022 89.4676 204.455C88.0155 203.083 85.0378 200.684 83.0314 199.267C82.4109 197.862 81.658 196.537 80.7735 195.298C87.5338 192.257 90.7945 187.167 83.5596 177.997C71.0229 162.128 53.1134 184.186 53.1134 184.186C53.1134 184.186 38.1281 178.01 32.0608 195.901C28.6124 206.082 30.4604 212.181 30.5289 213.195C31.4166 223.313 29.6633 233.893 23.1419 241.561C18.8524 246.62 11.9762 250.687 12.2032 258.266C12.2064 258.424 12.2545 259.306 12.3026 259.353C12.316 259.505 12.342 259.651 12.3751 259.796C7.41703 252.766 3.96475 244.748 2.23506 236.121C-4.55677 202.269 17.4372 167.466 54.6847 162.056L54.6823 162.055ZM89.1247 281.554C119.758 267.693 134.539 231.622 121.51 199.791L172.118 188.363C172.773 192.735 175.987 196.279 180.171 197.412H180.175L169.754 278.302C167.894 278.041 165.867 277.928 163.995 277.908C145.803 277.733 128.535 287.301 119.291 304.222L89.1247 281.554ZM211.721 318.562C212.823 324.055 212.969 329.515 212.276 334.783C208.242 333.689 204.017 336.002 202.776 340.044L200.987 345.842L200.985 345.846C192.126 340.191 181.613 337.557 171.107 338.435C171.111 338.252 171.199 337.797 171.022 336.996L170.15 333.093C176.27 330.363 180.422 324.44 180.95 317.788C181.987 316.893 182.641 315.574 182.641 314.097C182.641 312.109 181.459 310.399 179.756 309.638C179.143 308.068 178.324 306.598 177.308 305.261C182.408 302.82 185.109 298.748 179.743 291.954C169.761 279.317 157.317 297.771 157.317 297.771C157.317 297.771 146.365 290.615 140.219 305.735C130.702 329.125 155.666 335.579 158.114 334.094C158.568 334.192 159.492 334.473 161.146 334.612L162.123 338.999C162.24 339.541 162.413 339.853 162.463 339.972C148.942 343.684 137.605 353.209 131.596 366.017C131.158 365.496 118.869 356.449 115.179 338.084C111.088 317.678 120.125 296.831 137.961 286.003C137.975 285.99 137.987 285.983 138.001 285.983C146.074 281.126 155.156 278.79 164.027 278.905C186.654 279.148 207.042 295.23 211.721 318.564L211.721 318.562ZM173.174 376.772C158.429 379.75 143.693 375.874 132.374 366.664C138.273 353.909 149.565 344.456 163.017 340.857C165.249 343.629 169.683 342.966 170.899 339.448C181.374 338.507 191.876 341.126 200.682 346.817L194.569 366.614C188.561 371.55 181.3 375.128 173.174 376.772ZM180.654 312.698C180.548 312.161 180.416 311.631 180.264 311.115C181.11 311.83 181.651 312.897 181.651 314.096C181.651 314.884 181.42 315.614 181.017 316.223C181.011 315.064 180.892 313.884 180.654 312.698ZM179.683 312.897C179.974 314.354 180.079 315.825 180 317.27C179.373 317.721 178.607 317.979 177.782 317.979C175.643 317.979 173.907 316.237 173.907 314.096C173.907 311.956 175.643 310.207 177.782 310.207C178.198 310.207 178.607 310.273 178.983 310.399C179.281 311.208 179.512 312.042 179.683 312.897ZM171.827 315.635C171.734 315.115 171.557 314.634 171.308 314.186C171.654 313.921 172.147 313.781 172.918 314.121C172.919 314.832 173.077 315.509 173.358 316.115C173.036 315.772 172.747 315.515 172.62 315.406C172.411 315.229 172.099 315.253 171.922 315.461C171.877 315.513 171.845 315.573 171.827 315.635ZM170.263 314.374L170.269 314.381C170.679 314.997 170.923 315.746 170.923 316.541C170.923 318.688 169.187 320.43 167.054 320.43C164.922 320.43 163.18 318.688 163.18 316.541C163.18 314.395 164.916 312.658 167.054 312.658C168.388 312.658 169.563 313.34 170.263 314.374ZM177.782 309.212C175.445 309.212 173.484 310.876 173.022 313.089V313.091C172.026 312.746 171.28 312.981 170.745 313.374C169.853 312.327 168.526 311.665 167.054 311.665C164.691 311.665 162.711 313.367 162.282 315.614V315.619L155.932 314.678C156.867 313.84 157.682 312.185 157.278 308.908C157.278 308.908 168.863 308.831 176.385 305.67C177.242 306.782 177.968 307.994 178.535 309.279C178.29 309.233 178.04 309.212 177.782 309.212ZM156.875 332.669H156.869L156.864 332.667C155.026 331.418 151.976 329.772 152.069 329.223C152.478 326.805 152.485 324.916 152.261 323.439C152.452 323.425 152.644 323.399 152.842 323.359C153.112 323.3 153.284 323.041 153.231 322.769C153.178 322.504 152.914 322.333 152.65 322.386C152.452 322.425 152.261 322.445 152.069 322.451C150.023 322.577 148.141 321.173 147.731 319.105C147.276 316.839 148.741 314.626 150.999 314.168C152.168 313.932 153.314 314.216 154.214 314.854C154.207 314.877 154.194 314.897 154.19 314.922C154.15 315.193 154.337 315.445 154.608 315.486L154.965 315.539C155.424 316.066 155.763 316.714 155.911 317.448C155.97 317.719 156.228 317.892 156.498 317.839C156.762 317.786 156.94 317.521 156.888 317.256C156.776 316.715 156.578 316.207 156.315 315.739L162.196 316.609V316.613C162.229 319.277 164.401 321.424 167.054 321.424C169.708 321.424 171.913 319.237 171.913 316.54C171.913 316.381 171.907 316.222 171.886 316.063V316.055C171.886 316.051 171.885 316.048 171.885 316.043C171.911 316.085 171.938 316.127 171.977 316.161C172.745 316.819 173.816 318.067 173.676 318.654C173.619 318.891 173.272 319.022 172.99 319.091C172.36 319.243 172.577 320.214 173.222 320.057C174.491 319.751 175.017 318.878 174.442 317.633L174.449 317.64C175.327 318.469 176.488 318.972 177.783 318.972C178.536 318.972 179.255 318.8 179.888 318.482C179.571 321.113 178.64 323.657 177.129 325.93C174.988 329.165 171.815 331.668 167.814 332.907C167.808 332.914 167.801 332.914 167.795 332.914C164.4 333.953 160.56 333.988 156.875 332.669ZM165.424 334.471C165.43 334.471 165.438 334.465 165.444 334.471C166.876 334.248 168.247 333.856 169.22 333.477L170.058 337.214C171.082 341.807 164.123 343.406 163.087 338.778L162.169 334.67C163.002 334.702 164.242 334.648 165.423 334.472L165.424 334.471ZM254.143 348.922C257.757 350.044 259.771 353.899 258.652 357.516L249.013 388.745C247.89 392.362 244.048 394.39 240.45 393.27L229.326 389.765C229.174 389.718 229.01 389.745 228.884 389.844L218.077 397.928C216.798 398.884 214.925 398.345 214.387 396.781L210.029 383.973C209.977 383.828 209.858 383.708 209.713 383.662L198.589 380.157C194.931 379.021 192.965 375.145 194.073 371.563C197.766 359.591 199.116 355.233 203.718 340.335C204.829 336.744 208.601 334.752 212.128 335.769C212.235 335.782 254.036 348.888 254.14 348.922L254.143 348.922ZM302.665 325.048C302.665 329.852 298.769 333.762 293.984 333.762C289.199 333.762 285.31 329.852 285.31 325.048C285.31 320.245 289.204 316.342 293.984 316.342C298.764 316.342 302.665 320.245 302.665 325.048ZM293.148 315.388H293.145C288.207 315.812 284.319 319.986 284.319 325.048C284.319 325.313 284.332 325.579 284.358 325.837V325.839L219.711 337.101L213.39 335.114L213.383 335.112C214.112 329.62 213.941 324.009 212.825 318.453C208.807 298.437 192.897 281.922 170.734 278.434L181.143 197.629L181.147 197.63C181.762 197.736 182.402 197.795 183.049 197.795C187.736 197.795 191.743 194.86 193.354 190.725V190.723L222.221 204.747C218.749 212.013 216.8 220.145 216.8 228.726C216.8 259.406 241.56 284.381 272.241 284.381C277.498 284.381 282.726 283.647 287.817 282.154L293.146 315.387L293.148 315.388ZM263.281 204.131C261.527 209.715 280.648 206.109 280.648 206.109C274.616 211.374 279.887 219.649 282.369 217.98C284.032 216.862 280.927 213.521 284.911 210.361C286.811 208.854 288.457 211.104 289.323 212.713C290.973 224.07 282.303 234.657 270.416 234.657H270.402C259.962 234.657 251.31 226.137 251.31 215.481C251.31 211.221 252.71 207.12 255.297 203.773C259.275 204.686 263.281 204.131 263.281 204.131ZM270.416 235.65H270.429C271.916 235.65 273.478 235.48 275.063 235.114V241.362L271.075 245.225L267.088 241.362V235.379C268.17 235.546 269.224 235.65 270.416 235.65ZM266.543 242.212L270.733 246.278C270.916 246.462 271.233 246.465 271.419 246.278L275.822 242.011L275.824 242.009C291.085 243.074 305.255 250.893 314.321 263.407C303.894 276.148 288.541 283.388 272.244 283.388C255.947 283.388 240.566 276.123 230.167 263.408C238.808 251.476 252.095 243.823 266.543 242.212ZM314.96 262.609C305.748 250.03 291.456 242.154 276.054 241.032V234.855C285.617 232.077 291.328 222.716 290.439 213.883V213.878C306.954 205.927 287.975 199.336 287.975 199.336C293.566 190.988 282.497 193.926 282.497 193.926C283.21 186.022 274.259 188.886 274.259 188.886C274.259 188.886 279.121 183.804 273.357 183.955C267.593 184.107 266.089 190.043 266.089 190.043C262.48 184.509 257.668 190.747 257.668 190.747C257.668 190.747 247.811 183.952 247.481 194.427C247.308 199.914 250.627 202.403 254.266 203.496L254.263 203.5C251.708 206.953 250.322 211.14 250.322 215.48C250.322 225.114 257.083 233.192 266.1 235.179V241.264C251.592 242.976 238.273 250.676 229.531 262.621C222.094 253.256 217.794 241.401 217.794 228.726C217.794 198.595 242.221 174.081 272.245 174.081C289.286 174.081 304.501 181.992 314.482 194.336C309.314 197.166 305.802 202.665 305.802 208.973C305.802 218.163 313.249 225.637 322.398 225.637C323.829 225.637 325.221 225.452 326.546 225.115C326.629 226.31 326.689 227.511 326.689 228.726C326.689 241.102 322.601 252.94 314.961 262.608L314.96 262.609Z" fill="#00002D"/>
<path d="M316.284 214.633C316.881 217.44 319.367 219.596 322.397 219.596C325.427 219.596 327.912 217.44 328.51 214.633C328.71 213.686 327.977 212.824 327.038 212.824H317.756C316.814 212.824 316.084 213.688 316.284 214.633ZM327.539 214.427C327.042 216.795 324.935 218.601 322.397 218.601C319.859 218.601 317.752 216.797 317.254 214.427C317.179 214.104 317.445 213.818 317.756 213.818H327.038C327.349 213.818 327.614 214.105 327.539 214.427Z" fill="#00002D"/>
<path d="M312.563 206.188C312.837 206.188 313.059 205.966 313.059 205.691C313.059 204.62 313.929 203.748 314.999 203.748C316.069 203.748 316.935 204.62 316.935 205.691C316.935 205.966 317.157 206.188 317.43 206.188C317.704 206.188 317.925 205.966 317.925 205.691C317.925 204.072 316.613 202.754 314.999 202.754C313.385 202.754 312.068 204.072 312.068 205.691C312.068 205.966 312.29 206.188 312.563 206.188Z" fill="#00002D"/>
<path d="M148.708 134.357C148.85 134.594 149.156 134.667 149.387 134.527L176.546 118.18C176.78 118.039 176.856 117.734 176.715 117.499C176.574 117.264 176.27 117.187 176.036 117.329L148.878 133.675C148.644 133.816 148.567 134.122 148.708 134.357V134.357Z" fill="#00002D"/>
<path d="M181.3 115.32L182.626 114.521C182.861 114.38 182.937 114.074 182.796 113.839C182.655 113.604 182.351 113.528 182.117 113.669L180.79 114.468C180.555 114.608 180.48 114.914 180.621 115.15C180.763 115.387 181.069 115.46 181.3 115.32Z" fill="#00002D"/>
<path d="M152.768 143.103C152.481 143.084 152.264 143.302 152.251 143.577C152.239 143.851 152.451 144.083 152.724 144.095L169.149 144.836C169.157 144.836 169.164 144.836 169.172 144.836C169.435 144.836 169.655 144.628 169.666 144.362C169.679 144.088 169.467 143.855 169.194 143.843L152.768 143.102L152.768 143.103Z" fill="#00002D"/>
<path d="M173.524 144.04C173.246 144.029 173.019 144.24 173.007 144.514C172.995 144.787 173.206 145.02 173.48 145.032C175.237 145.111 174.972 145.102 175.04 145.102C175.303 145.102 175.522 144.894 175.534 144.628C175.547 144.354 175.336 144.121 175.062 144.109L173.524 144.04Z" fill="#00002D"/>
<path d="M142.49 126.18C142.741 126.282 143.032 126.163 143.135 125.906L147.657 114.696C147.76 114.442 147.638 114.152 147.384 114.048C147.13 113.945 146.841 114.068 146.739 114.323L142.217 125.533C142.114 125.787 142.237 126.077 142.49 126.18Z" fill="#00002D"/>
<path d="M148.413 111.498C148.665 111.6 148.954 111.48 149.058 111.224L149.518 110.083C149.62 109.828 149.498 109.539 149.245 109.436C148.99 109.333 148.703 109.456 148.6 109.71L148.14 110.851C148.037 111.105 148.16 111.395 148.413 111.498Z" fill="#00002D"/>
<path d="M326.972 206.188C327.245 206.188 327.467 205.966 327.467 205.691C327.467 204.62 328.337 203.748 329.407 203.748C330.477 203.748 331.343 204.62 331.343 205.691C331.343 205.966 331.565 206.188 331.838 206.188C332.112 206.188 332.334 205.966 332.334 205.691C332.334 204.072 331.021 202.754 329.407 202.754C327.793 202.754 326.477 204.072 326.477 205.691C326.477 205.966 326.698 206.188 326.972 206.188Z" fill="#00002D"/>
<path d="M52.6175 332.932C47.3843 332.704 43.2052 329.332 41.7262 324.586C40.0335 319.158 42.304 313.47 44.774 308.109C45.0042 307.61 45.5923 307.395 46.0882 307.624C46.5841 307.855 46.8009 308.446 46.5707 308.943C44.167 314.16 42.1322 319.236 43.6151 323.993C44.8284 327.888 48.216 330.674 52.4945 330.943C52.545 328.612 53.2671 326.291 54.6003 324.385C56.9717 320.995 61.5214 316.859 64.5692 319.647C68.4118 323.166 62.8191 329.589 58.1921 331.818C57.06 332.363 55.8459 332.707 54.609 332.856C55.514 338.15 60.9404 341.79 66.4203 341.91C70.9235 342.003 75.8335 340.03 80.2374 336.338C80.6568 335.986 81.2812 336.042 81.632 336.464C81.982 336.885 81.926 337.511 81.5066 337.863C67.8851 349.284 54.0358 342.59 52.6167 332.932H52.6175ZM56.2212 325.528C55.1324 327.084 54.5348 328.973 54.4741 330.875C55.462 330.743 56.4301 330.462 57.3359 330.026C60.5359 328.484 65.669 323.344 63.2353 321.117C61.4221 319.456 57.6473 323.49 56.2212 325.528Z" fill="#8EC5FF"/>
</g>
<path d="M20.1406 483.603C20.0156 482.342 19.4792 481.363 18.5313 480.665C17.5833 479.967 16.2969 479.618 14.6719 479.618C13.5677 479.618 12.6354 479.774 11.875 480.087C11.1146 480.389 10.5313 480.811 10.125 481.353C9.72917 481.894 9.53125 482.509 9.53125 483.196C9.51042 483.769 9.63021 484.269 9.89063 484.696C10.1615 485.123 10.5313 485.493 11 485.806C11.4688 486.108 12.0104 486.373 12.625 486.603C13.2396 486.821 13.8958 487.009 14.5938 487.165L17.4688 487.853C18.8646 488.165 20.1458 488.582 21.3125 489.103C22.4792 489.623 23.4896 490.264 24.3438 491.024C25.1979 491.785 25.8594 492.681 26.3281 493.712C26.8073 494.743 27.0521 495.925 27.0625 497.259C27.0521 499.217 26.5521 500.915 25.5625 502.353C24.5833 503.78 23.1667 504.889 21.3125 505.681C19.4688 506.462 17.2448 506.853 14.6406 506.853C12.0573 506.853 9.80729 506.457 7.89063 505.665C5.98438 504.873 4.49479 503.701 3.42188 502.149C2.35938 500.587 1.80208 498.655 1.75 496.353H8.29688C8.36979 497.425 8.67708 498.321 9.21875 499.04C9.77083 499.748 10.5052 500.285 11.4219 500.649C12.349 501.004 13.3958 501.181 14.5625 501.181C15.7083 501.181 16.7031 501.014 17.5469 500.681C18.401 500.347 19.0625 499.884 19.5313 499.29C20 498.696 20.2344 498.014 20.2344 497.243C20.2344 496.524 20.0208 495.92 19.5938 495.431C19.1771 494.941 18.5625 494.524 17.75 494.181C16.9479 493.837 15.9635 493.524 14.7969 493.243L11.3125 492.368C8.61458 491.712 6.48438 490.686 4.92188 489.29C3.35938 487.894 2.58333 486.014 2.59375 483.649C2.58333 481.712 3.09896 480.019 4.14063 478.571C5.19271 477.123 6.63542 475.993 8.46875 475.181C10.3021 474.368 12.3854 473.962 14.7188 473.962C17.0938 473.962 19.1667 474.368 20.9375 475.181C22.7188 475.993 24.1042 477.123 25.0938 478.571C26.0833 480.019 26.5938 481.696 26.625 483.603H20.1406ZM44.2539 482.399V487.399H29.8008V482.399H44.2539ZM33.082 476.649H39.7383V499.024C39.7383 499.639 39.832 500.118 40.0195 500.462C40.207 500.795 40.4674 501.03 40.8008 501.165C41.1445 501.3 41.5404 501.368 41.9883 501.368C42.3008 501.368 42.6133 501.342 42.9258 501.29C43.2383 501.228 43.4779 501.181 43.6445 501.149L44.6914 506.103C44.3581 506.207 43.8893 506.326 43.2852 506.462C42.681 506.608 41.9466 506.696 41.082 506.728C39.4779 506.79 38.0716 506.576 36.8633 506.087C35.6654 505.597 34.7331 504.837 34.0664 503.806C33.3997 502.774 33.0716 501.472 33.082 499.899V476.649ZM55.4336 506.853C53.9023 506.853 52.5378 506.587 51.3398 506.056C50.1419 505.514 49.194 504.717 48.4961 503.665C47.8086 502.603 47.4648 501.28 47.4648 499.696C47.4648 498.363 47.7096 497.243 48.1992 496.337C48.6888 495.431 49.3555 494.701 50.1992 494.149C51.043 493.597 52.0013 493.181 53.0742 492.899C54.1576 492.618 55.293 492.42 56.4805 492.306C57.8763 492.16 59.0013 492.024 59.8555 491.899C60.7096 491.764 61.3294 491.566 61.7148 491.306C62.1003 491.045 62.293 490.66 62.293 490.149V490.056C62.293 489.066 61.9805 488.3 61.3555 487.759C60.7409 487.217 59.8659 486.946 58.7305 486.946C57.5326 486.946 56.5794 487.212 55.8711 487.743C55.1628 488.264 54.694 488.92 54.4648 489.712L48.3086 489.212C48.6211 487.754 49.2357 486.493 50.1523 485.431C51.069 484.358 52.2513 483.535 53.6992 482.962C55.1576 482.379 56.8451 482.087 58.7617 482.087C60.0951 482.087 61.3711 482.243 62.5898 482.556C63.819 482.868 64.9076 483.353 65.8555 484.009C66.8138 484.665 67.569 485.509 68.1211 486.54C68.6732 487.561 68.9492 488.785 68.9492 490.212V506.399H62.6367V503.071H62.4492C62.0638 503.821 61.5482 504.483 60.9023 505.056C60.2565 505.618 59.4805 506.061 58.5742 506.384C57.668 506.696 56.6211 506.853 55.4336 506.853ZM57.3398 502.259C58.319 502.259 59.1836 502.066 59.9336 501.681C60.6836 501.285 61.2721 500.754 61.6992 500.087C62.1263 499.42 62.3398 498.665 62.3398 497.821V495.274C62.1315 495.41 61.8451 495.535 61.4805 495.649C61.1263 495.754 60.7253 495.853 60.2773 495.946C59.8294 496.03 59.3815 496.108 58.9336 496.181C58.4857 496.243 58.0794 496.3 57.7148 496.353C56.9336 496.467 56.2513 496.649 55.668 496.899C55.0846 497.149 54.6315 497.488 54.3086 497.915C53.9857 498.332 53.8242 498.853 53.8242 499.478C53.8242 500.384 54.1523 501.076 54.8086 501.556C55.4753 502.024 56.319 502.259 57.3398 502.259ZM74.1133 506.399V482.399H80.5664V486.587H80.8164C81.2539 485.097 81.9883 483.972 83.0195 483.212C84.0508 482.441 85.2383 482.056 86.582 482.056C86.9154 482.056 87.2747 482.076 87.6602 482.118C88.0456 482.16 88.3841 482.217 88.6758 482.29V488.196C88.3633 488.103 87.931 488.019 87.3789 487.946C86.8268 487.873 86.3216 487.837 85.8633 487.837C84.8841 487.837 84.0091 488.05 83.2383 488.478C82.4779 488.894 81.8737 489.478 81.4258 490.228C80.9883 490.978 80.7695 491.842 80.7695 492.821V506.399H74.1133ZM106.086 482.399V487.399H91.6328V482.399H106.086ZM94.9141 476.649H101.57V499.024C101.57 499.639 101.664 500.118 101.852 500.462C102.039 500.795 102.299 501.03 102.633 501.165C102.977 501.3 103.372 501.368 103.82 501.368C104.133 501.368 104.445 501.342 104.758 501.29C105.07 501.228 105.31 501.181 105.477 501.149L106.523 506.103C106.19 506.207 105.721 506.326 105.117 506.462C104.513 506.608 103.779 506.696 102.914 506.728C101.31 506.79 99.9036 506.576 98.6953 506.087C97.4974 505.597 96.5651 504.837 95.8984 503.806C95.2318 502.774 94.9036 501.472 94.9141 499.899V476.649ZM124.715 515.399C123.871 515.399 123.079 515.332 122.34 515.196C121.611 515.071 121.007 514.91 120.527 514.712L122.027 509.743C122.809 509.983 123.512 510.113 124.137 510.134C124.772 510.155 125.319 510.009 125.777 509.696C126.246 509.384 126.626 508.853 126.918 508.103L127.309 507.087L118.699 482.399H125.699L130.668 500.024H130.918L135.934 482.399H142.98L133.652 508.993C133.204 510.285 132.595 511.41 131.824 512.368C131.064 513.337 130.1 514.082 128.934 514.603C127.767 515.134 126.361 515.399 124.715 515.399ZM156.457 506.868C154.03 506.868 151.931 506.353 150.16 505.321C148.4 504.28 147.04 502.832 146.082 500.978C145.124 499.113 144.645 496.951 144.645 494.493C144.645 492.014 145.124 489.847 146.082 487.993C147.04 486.129 148.4 484.681 150.16 483.649C151.931 482.608 154.03 482.087 156.457 482.087C158.884 482.087 160.978 482.608 162.738 483.649C164.509 484.681 165.874 486.129 166.832 487.993C167.79 489.847 168.27 492.014 168.27 494.493C168.27 496.951 167.79 499.113 166.832 500.978C165.874 502.832 164.509 504.28 162.738 505.321C160.978 506.353 158.884 506.868 156.457 506.868ZM156.488 501.712C157.592 501.712 158.514 501.399 159.254 500.774C159.993 500.139 160.551 499.274 160.926 498.181C161.311 497.087 161.504 495.842 161.504 494.446C161.504 493.05 161.311 491.806 160.926 490.712C160.551 489.618 159.993 488.754 159.254 488.118C158.514 487.483 157.592 487.165 156.488 487.165C155.374 487.165 154.436 487.483 153.676 488.118C152.926 488.754 152.358 489.618 151.973 490.712C151.598 491.806 151.41 493.05 151.41 494.446C151.41 495.842 151.598 497.087 151.973 498.181C152.358 499.274 152.926 500.139 153.676 500.774C154.436 501.399 155.374 501.712 156.488 501.712ZM187.988 496.181V482.399H194.645V506.399H188.254V502.04H188.004C187.462 503.446 186.561 504.576 185.301 505.431C184.051 506.285 182.525 506.712 180.723 506.712C179.118 506.712 177.707 506.347 176.488 505.618C175.27 504.889 174.316 503.853 173.629 502.509C172.952 501.165 172.608 499.556 172.598 497.681V482.399H179.254V496.493C179.264 497.91 179.645 499.03 180.395 499.853C181.145 500.675 182.15 501.087 183.41 501.087C184.212 501.087 184.962 500.905 185.66 500.54C186.358 500.165 186.921 499.613 187.348 498.884C187.785 498.155 187.999 497.254 187.988 496.181ZM199.969 506.399V482.399H206.422V486.587H206.672C207.109 485.097 207.844 483.972 208.875 483.212C209.906 482.441 211.094 482.056 212.438 482.056C212.771 482.056 213.13 482.076 213.516 482.118C213.901 482.16 214.24 482.217 214.531 482.29V488.196C214.219 488.103 213.786 488.019 213.234 487.946C212.682 487.873 212.177 487.837 211.719 487.837C210.74 487.837 209.865 488.05 209.094 488.478C208.333 488.894 207.729 489.478 207.281 490.228C206.844 490.978 206.625 491.842 206.625 492.821V506.399H199.969ZM228.156 482.399H234.813V507.587C234.813 509.441 234.448 510.941 233.719 512.087C232.99 513.233 231.943 514.071 230.578 514.603C229.224 515.134 227.604 515.399 225.719 515.399C225.49 515.399 225.271 515.394 225.063 515.384C224.844 515.384 224.615 515.379 224.375 515.368V510.165C224.552 510.175 224.708 510.181 224.844 510.181C224.969 510.191 225.104 510.196 225.25 510.196C226.323 510.196 227.073 509.967 227.5 509.509C227.938 509.061 228.156 508.384 228.156 507.478V482.399ZM231.469 479.306C230.49 479.306 229.646 478.978 228.938 478.321C228.229 477.655 227.875 476.858 227.875 475.931C227.875 475.014 228.229 474.228 228.938 473.571C229.646 472.905 230.49 472.571 231.469 472.571C232.469 472.571 233.318 472.905 234.016 473.571C234.724 474.228 235.078 475.014 235.078 475.931C235.078 476.858 234.724 477.655 234.016 478.321C233.318 478.978 232.469 479.306 231.469 479.306ZM250.988 506.868C248.561 506.868 246.462 506.353 244.691 505.321C242.931 504.28 241.572 502.832 240.613 500.978C239.655 499.113 239.176 496.951 239.176 494.493C239.176 492.014 239.655 489.847 240.613 487.993C241.572 486.129 242.931 484.681 244.691 483.649C246.462 482.608 248.561 482.087 250.988 482.087C253.415 482.087 255.509 482.608 257.27 483.649C259.04 484.681 260.405 486.129 261.363 487.993C262.322 489.847 262.801 492.014 262.801 494.493C262.801 496.951 262.322 499.113 261.363 500.978C260.405 502.832 259.04 504.28 257.27 505.321C255.509 506.353 253.415 506.868 250.988 506.868ZM251.02 501.712C252.124 501.712 253.046 501.399 253.785 500.774C254.525 500.139 255.082 499.274 255.457 498.181C255.842 497.087 256.035 495.842 256.035 494.446C256.035 493.05 255.842 491.806 255.457 490.712C255.082 489.618 254.525 488.754 253.785 488.118C253.046 487.483 252.124 487.165 251.02 487.165C249.905 487.165 248.967 487.483 248.207 488.118C247.457 488.754 246.889 489.618 246.504 490.712C246.129 491.806 245.941 493.05 245.941 494.446C245.941 495.842 246.129 497.087 246.504 498.181C246.889 499.274 247.457 500.139 248.207 500.774C248.967 501.399 249.905 501.712 251.02 501.712ZM282.52 496.181V482.399H289.176V506.399H282.785V502.04H282.535C281.993 503.446 281.092 504.576 279.832 505.431C278.582 506.285 277.056 506.712 275.254 506.712C273.65 506.712 272.238 506.347 271.02 505.618C269.801 504.889 268.848 503.853 268.16 502.509C267.483 501.165 267.139 499.556 267.129 497.681V482.399H273.785V496.493C273.796 497.91 274.176 499.03 274.926 499.853C275.676 500.675 276.681 501.087 277.941 501.087C278.743 501.087 279.493 500.905 280.191 500.54C280.889 500.165 281.452 499.613 281.879 498.884C282.316 498.155 282.53 497.254 282.52 496.181ZM294.5 506.399V482.399H300.953V486.587H301.203C301.641 485.097 302.375 483.972 303.406 483.212C304.438 482.441 305.625 482.056 306.969 482.056C307.302 482.056 307.661 482.076 308.047 482.118C308.432 482.16 308.771 482.217 309.063 482.29V488.196C308.75 488.103 308.318 488.019 307.766 487.946C307.214 487.873 306.708 487.837 306.25 487.837C305.271 487.837 304.396 488.05 303.625 488.478C302.865 488.894 302.26 489.478 301.812 490.228C301.375 490.978 301.156 491.842 301.156 492.821V506.399H294.5ZM319.16 492.524V506.399H312.504V482.399H318.848V486.634H319.129C319.66 485.238 320.551 484.134 321.801 483.321C323.051 482.498 324.566 482.087 326.348 482.087C328.014 482.087 329.467 482.451 330.707 483.181C331.947 483.91 332.91 484.951 333.598 486.306C334.285 487.649 334.629 489.254 334.629 491.118V506.399H327.973V492.306C327.983 490.837 327.608 489.691 326.848 488.868C326.087 488.035 325.04 487.618 323.707 487.618C322.811 487.618 322.02 487.811 321.332 488.196C320.655 488.582 320.124 489.144 319.738 489.884C319.363 490.613 319.171 491.493 319.16 492.524ZM350.813 506.868C348.344 506.868 346.219 506.368 344.438 505.368C342.667 504.358 341.302 502.931 340.344 501.087C339.385 499.233 338.906 497.04 338.906 494.509C338.906 492.04 339.385 489.873 340.344 488.009C341.302 486.144 342.651 484.691 344.391 483.649C346.141 482.608 348.193 482.087 350.547 482.087C352.13 482.087 353.604 482.342 354.969 482.853C356.344 483.353 357.542 484.108 358.563 485.118C359.594 486.129 360.396 487.399 360.969 488.931C361.542 490.451 361.828 492.233 361.828 494.274V496.103H341.563V491.978H355.563C355.563 491.019 355.354 490.17 354.938 489.431C354.521 488.691 353.943 488.113 353.203 487.696C352.474 487.269 351.625 487.056 350.656 487.056C349.646 487.056 348.75 487.29 347.969 487.759C347.198 488.217 346.594 488.837 346.156 489.618C345.719 490.389 345.495 491.248 345.484 492.196V496.118C345.484 497.306 345.703 498.332 346.141 499.196C346.589 500.061 347.219 500.728 348.031 501.196C348.844 501.665 349.807 501.899 350.922 501.899C351.661 501.899 352.339 501.795 352.953 501.587C353.568 501.379 354.094 501.066 354.531 500.649C354.969 500.233 355.302 499.722 355.531 499.118L361.688 499.524C361.375 501.004 360.734 502.295 359.766 503.399C358.807 504.493 357.568 505.347 356.047 505.962C354.536 506.566 352.792 506.868 350.813 506.868ZM369.637 515.399C368.793 515.399 368.001 515.332 367.262 515.196C366.533 515.071 365.928 514.91 365.449 514.712L366.949 509.743C367.73 509.983 368.434 510.113 369.059 510.134C369.694 510.155 370.241 510.009 370.699 509.696C371.168 509.384 371.548 508.853 371.84 508.103L372.23 507.087L363.621 482.399H370.621L375.59 500.024H375.84L380.855 482.399H387.902L378.574 508.993C378.126 510.285 377.517 511.41 376.746 512.368C375.986 513.337 375.022 514.082 373.855 514.603C372.689 515.134 371.283 515.399 369.637 515.399ZM414.258 482.399V487.399H399.805V482.399H414.258ZM403.086 476.649H409.742V499.024C409.742 499.639 409.836 500.118 410.023 500.462C410.211 500.795 410.471 501.03 410.805 501.165C411.148 501.3 411.544 501.368 411.992 501.368C412.305 501.368 412.617 501.342 412.93 501.29C413.242 501.228 413.482 501.181 413.648 501.149L414.695 506.103C414.362 506.207 413.893 506.326 413.289 506.462C412.685 506.608 411.951 506.696 411.086 506.728C409.482 506.79 408.076 506.576 406.867 506.087C405.669 505.597 404.737 504.837 404.07 503.806C403.404 502.774 403.076 501.472 403.086 499.899V476.649ZM429.18 506.868C426.753 506.868 424.654 506.353 422.883 505.321C421.122 504.28 419.763 502.832 418.805 500.978C417.846 499.113 417.367 496.951 417.367 494.493C417.367 492.014 417.846 489.847 418.805 487.993C419.763 486.129 421.122 484.681 422.883 483.649C424.654 482.608 426.753 482.087 429.18 482.087C431.607 482.087 433.701 482.608 435.461 483.649C437.232 484.681 438.596 486.129 439.555 487.993C440.513 489.847 440.992 492.014 440.992 494.493C440.992 496.951 440.513 499.113 439.555 500.978C438.596 502.832 437.232 504.28 435.461 505.321C433.701 506.353 431.607 506.868 429.18 506.868ZM429.211 501.712C430.315 501.712 431.237 501.399 431.977 500.774C432.716 500.139 433.273 499.274 433.648 498.181C434.034 497.087 434.227 495.842 434.227 494.446C434.227 493.05 434.034 491.806 433.648 490.712C433.273 489.618 432.716 488.754 431.977 488.118C431.237 487.483 430.315 487.165 429.211 487.165C428.096 487.165 427.159 487.483 426.398 488.118C425.648 488.754 425.081 489.618 424.695 490.712C424.32 491.806 424.133 493.05 424.133 494.446C424.133 495.842 424.32 497.087 424.695 498.181C425.081 499.274 425.648 500.139 426.398 500.774C427.159 501.399 428.096 501.712 429.211 501.712ZM22.625 545.243L16.5313 545.618C16.4271 545.097 16.2031 544.629 15.8594 544.212C15.5156 543.785 15.0625 543.446 14.5 543.196C13.9479 542.936 13.2865 542.806 12.5156 542.806C11.4844 542.806 10.6146 543.024 9.90625 543.462C9.19792 543.889 8.84375 544.462 8.84375 545.181C8.84375 545.754 9.07292 546.238 9.53125 546.634C9.98958 547.03 10.776 547.347 11.8906 547.587L16.2344 548.462C18.5677 548.941 20.3073 549.712 21.4531 550.774C22.599 551.837 23.1719 553.233 23.1719 554.962C23.1719 556.535 22.7083 557.915 21.7813 559.103C20.8646 560.29 19.6042 561.217 18 561.884C16.4063 562.54 14.5677 562.868 12.4844 562.868C9.30729 562.868 6.77604 562.207 4.89063 560.884C3.01563 559.55 1.91667 557.738 1.59375 555.446L8.14062 555.103C8.33854 556.071 8.81771 556.811 9.57813 557.321C10.3385 557.821 11.3125 558.071 12.5 558.071C13.6667 558.071 14.6042 557.847 15.3125 557.399C16.0313 556.941 16.3958 556.353 16.4063 555.634C16.3958 555.03 16.1406 554.535 15.6406 554.149C15.1406 553.754 14.3698 553.451 13.3281 553.243L9.17188 552.415C6.82813 551.946 5.08333 551.134 3.9375 549.978C2.80208 548.821 2.23438 547.347 2.23438 545.556C2.23438 544.014 2.65104 542.686 3.48438 541.571C4.32813 540.457 5.51042 539.597 7.03125 538.993C8.5625 538.389 10.3542 538.087 12.4063 538.087C15.4375 538.087 17.8229 538.728 19.5625 540.009C21.3125 541.29 22.3333 543.035 22.625 545.243ZM27.3633 562.399V538.399H33.707V542.634H33.9883C34.4883 541.228 35.3216 540.118 36.4883 539.306C37.6549 538.493 39.0508 538.087 40.6758 538.087C42.3216 538.087 43.7227 538.498 44.8789 539.321C46.0352 540.134 46.806 541.238 47.1914 542.634H47.4414C47.931 541.259 48.8164 540.16 50.0977 539.337C51.3893 538.504 52.9154 538.087 54.6758 538.087C56.9154 538.087 58.7331 538.8 60.1289 540.228C61.5352 541.644 62.2383 543.655 62.2383 546.259V562.399H55.5977V547.571C55.5977 546.238 55.2435 545.238 54.5352 544.571C53.8268 543.905 52.9414 543.571 51.8789 543.571C50.6706 543.571 49.7279 543.957 49.0508 544.728C48.3737 545.488 48.0352 546.493 48.0352 547.743V562.399H41.582V547.431C41.582 546.254 41.2435 545.316 40.5664 544.618C39.8997 543.92 39.0195 543.571 37.9258 543.571C37.1862 543.571 36.5195 543.759 35.9258 544.134C35.3424 544.498 34.8789 545.014 34.5352 545.681C34.1914 546.337 34.0195 547.108 34.0195 547.993V562.399H27.3633ZM74.3398 562.853C72.8086 562.853 71.444 562.587 70.2461 562.056C69.0482 561.514 68.1003 560.717 67.4023 559.665C66.7148 558.603 66.3711 557.28 66.3711 555.696C66.3711 554.363 66.6159 553.243 67.1055 552.337C67.5951 551.431 68.2617 550.701 69.1055 550.149C69.9492 549.597 70.9076 549.181 71.9805 548.899C73.0638 548.618 74.1992 548.42 75.3867 548.306C76.7826 548.16 77.9076 548.024 78.7617 547.899C79.6159 547.764 80.2357 547.566 80.6211 547.306C81.0065 547.045 81.1992 546.66 81.1992 546.149V546.056C81.1992 545.066 80.8867 544.3 80.2617 543.759C79.6471 543.217 78.7721 542.946 77.6367 542.946C76.4388 542.946 75.4857 543.212 74.7773 543.743C74.069 544.264 73.6003 544.92 73.3711 545.712L67.2148 545.212C67.5273 543.754 68.1419 542.493 69.0586 541.431C69.9753 540.358 71.1576 539.535 72.6055 538.962C74.0638 538.379 75.7513 538.087 77.668 538.087C79.0013 538.087 80.2773 538.243 81.4961 538.556C82.7253 538.868 83.8138 539.353 84.7617 540.009C85.7201 540.665 86.4753 541.509 87.0273 542.54C87.5794 543.561 87.8555 544.785 87.8555 546.212V562.399H81.543V559.071H81.3555C80.9701 559.821 80.4544 560.483 79.8086 561.056C79.1628 561.618 78.3867 562.061 77.4805 562.384C76.5742 562.696 75.5273 562.853 74.3398 562.853ZM76.2461 558.259C77.2253 558.259 78.0898 558.066 78.8398 557.681C79.5898 557.285 80.1784 556.754 80.6055 556.087C81.0326 555.42 81.2461 554.665 81.2461 553.821V551.274C81.0378 551.41 80.7513 551.535 80.3867 551.649C80.0326 551.754 79.6315 551.853 79.1836 551.946C78.7357 552.03 78.2878 552.108 77.8398 552.181C77.3919 552.243 76.9857 552.3 76.6211 552.353C75.8398 552.467 75.1576 552.649 74.5742 552.899C73.9909 553.149 73.5378 553.488 73.2148 553.915C72.8919 554.332 72.7305 554.853 72.7305 555.478C72.7305 556.384 73.0586 557.076 73.7148 557.556C74.3815 558.024 75.2253 558.259 76.2461 558.259ZM93.0195 562.399V538.399H99.4727V542.587H99.7227C100.16 541.097 100.895 539.972 101.926 539.212C102.957 538.441 104.145 538.056 105.488 538.056C105.822 538.056 106.181 538.076 106.566 538.118C106.952 538.16 107.29 538.217 107.582 538.29V544.196C107.27 544.103 106.837 544.019 106.285 543.946C105.733 543.873 105.228 543.837 104.77 543.837C103.79 543.837 102.915 544.05 102.145 544.478C101.384 544.894 100.78 545.478 100.332 546.228C99.8945 546.978 99.6758 547.842 99.6758 548.821V562.399H93.0195ZM124.992 538.399V543.399H110.539V538.399H124.992ZM113.82 532.649H120.477V555.024C120.477 555.639 120.57 556.118 120.758 556.462C120.945 556.795 121.206 557.03 121.539 557.165C121.883 557.3 122.279 557.368 122.727 557.368C123.039 557.368 123.352 557.342 123.664 557.29C123.977 557.228 124.216 557.181 124.383 557.149L125.43 562.103C125.096 562.207 124.628 562.326 124.023 562.462C123.419 562.608 122.685 562.696 121.82 562.728C120.216 562.79 118.81 562.576 117.602 562.087C116.404 561.597 115.471 560.837 114.805 559.806C114.138 558.774 113.81 557.472 113.82 555.899V532.649ZM140.008 562.868C137.539 562.868 135.414 562.368 133.633 561.368C131.862 560.358 130.497 558.931 129.539 557.087C128.581 555.233 128.102 553.04 128.102 550.509C128.102 548.04 128.581 545.873 129.539 544.009C130.497 542.144 131.846 540.691 133.586 539.649C135.336 538.608 137.388 538.087 139.742 538.087C141.326 538.087 142.799 538.342 144.164 538.853C145.539 539.353 146.737 540.108 147.758 541.118C148.789 542.129 149.591 543.399 150.164 544.931C150.737 546.451 151.023 548.233 151.023 550.274V552.103H130.758V547.978H144.758C144.758 547.019 144.549 546.17 144.133 545.431C143.716 544.691 143.138 544.113 142.398 543.696C141.669 543.269 140.82 543.056 139.852 543.056C138.841 543.056 137.945 543.29 137.164 543.759C136.393 544.217 135.789 544.837 135.352 545.618C134.914 546.389 134.69 547.248 134.68 548.196V552.118C134.68 553.306 134.898 554.332 135.336 555.196C135.784 556.061 136.414 556.728 137.227 557.196C138.039 557.665 139.003 557.899 140.117 557.899C140.857 557.899 141.534 557.795 142.148 557.587C142.763 557.379 143.289 557.066 143.727 556.649C144.164 556.233 144.497 555.722 144.727 555.118L150.883 555.524C150.57 557.004 149.93 558.295 148.961 559.399C148.003 560.493 146.763 561.347 145.242 561.962C143.732 562.566 141.987 562.868 140.008 562.868ZM155.367 562.399V538.399H161.82V542.587H162.07C162.508 541.097 163.242 539.972 164.273 539.212C165.305 538.441 166.492 538.056 167.836 538.056C168.169 538.056 168.529 538.076 168.914 538.118C169.299 538.16 169.638 538.217 169.93 538.29V544.196C169.617 544.103 169.185 544.019 168.633 543.946C168.081 543.873 167.576 543.837 167.117 543.837C166.138 543.837 165.263 544.05 164.492 544.478C163.732 544.894 163.128 545.478 162.68 546.228C162.242 546.978 162.023 547.842 162.023 548.821V562.399H155.367ZM183.68 562.399V530.399H190.336V542.431H190.539C190.831 541.785 191.253 541.129 191.805 540.462C192.367 539.785 193.096 539.222 193.992 538.774C194.898 538.316 196.023 538.087 197.367 538.087C199.117 538.087 200.732 538.545 202.211 539.462C203.69 540.368 204.872 541.738 205.758 543.571C206.643 545.394 207.086 547.681 207.086 550.431C207.086 553.108 206.654 555.368 205.789 557.212C204.935 559.045 203.768 560.436 202.289 561.384C200.82 562.321 199.174 562.79 197.352 562.79C196.06 562.79 194.961 562.576 194.055 562.149C193.159 561.722 192.424 561.186 191.852 560.54C191.279 559.884 190.841 559.222 190.539 558.556H190.242V562.399H183.68ZM190.195 550.399C190.195 551.826 190.393 553.071 190.789 554.134C191.185 555.196 191.758 556.024 192.508 556.618C193.258 557.201 194.169 557.493 195.242 557.493C196.326 557.493 197.242 557.196 197.992 556.603C198.742 555.998 199.31 555.165 199.695 554.103C200.091 553.03 200.289 551.795 200.289 550.399C200.289 549.014 200.096 547.795 199.711 546.743C199.326 545.691 198.758 544.868 198.008 544.274C197.258 543.681 196.336 543.384 195.242 543.384C194.159 543.384 193.242 543.67 192.492 544.243C191.753 544.816 191.185 545.629 190.789 546.681C190.393 547.733 190.195 548.972 190.195 550.399ZM226.918 552.181V538.399H233.574V562.399H227.184V558.04H226.934C226.392 559.446 225.491 560.576 224.23 561.431C222.98 562.285 221.454 562.712 219.652 562.712C218.048 562.712 216.637 562.347 215.418 561.618C214.199 560.889 213.246 559.853 212.559 558.509C211.882 557.165 211.538 555.556 211.527 553.681V538.399H218.184V552.493C218.194 553.91 218.574 555.03 219.324 555.853C220.074 556.675 221.079 557.087 222.34 557.087C223.142 557.087 223.892 556.905 224.59 556.54C225.288 556.165 225.85 555.613 226.277 554.884C226.715 554.155 226.928 553.254 226.918 552.181ZM258.867 545.243L252.773 545.618C252.669 545.097 252.445 544.629 252.102 544.212C251.758 543.785 251.305 543.446 250.742 543.196C250.19 542.936 249.529 542.806 248.758 542.806C247.727 542.806 246.857 543.024 246.148 543.462C245.44 543.889 245.086 544.462 245.086 545.181C245.086 545.754 245.315 546.238 245.773 546.634C246.232 547.03 247.018 547.347 248.133 547.587L252.477 548.462C254.81 548.941 256.549 549.712 257.695 550.774C258.841 551.837 259.414 553.233 259.414 554.962C259.414 556.535 258.951 557.915 258.023 559.103C257.107 560.29 255.846 561.217 254.242 561.884C252.648 562.54 250.81 562.868 248.727 562.868C245.549 562.868 243.018 562.207 241.133 560.884C239.258 559.55 238.159 557.738 237.836 555.446L244.383 555.103C244.581 556.071 245.06 556.811 245.82 557.321C246.581 557.821 247.555 558.071 248.742 558.071C249.909 558.071 250.846 557.847 251.555 557.399C252.273 556.941 252.638 556.353 252.648 555.634C252.638 555.03 252.383 554.535 251.883 554.149C251.383 553.754 250.612 553.451 249.57 553.243L245.414 552.415C243.07 551.946 241.326 551.134 240.18 549.978C239.044 548.821 238.477 547.347 238.477 545.556C238.477 544.014 238.893 542.686 239.727 541.571C240.57 540.457 241.753 539.597 243.273 538.993C244.805 538.389 246.596 538.087 248.648 538.087C251.68 538.087 254.065 538.728 255.805 540.009C257.555 541.29 258.576 543.035 258.867 545.243ZM263.605 562.399V538.399H270.262V562.399H263.605ZM266.949 535.306C265.96 535.306 265.111 534.978 264.402 534.321C263.704 533.655 263.355 532.858 263.355 531.931C263.355 531.014 263.704 530.228 264.402 529.571C265.111 528.905 265.96 528.571 266.949 528.571C267.939 528.571 268.783 528.905 269.48 529.571C270.189 530.228 270.543 531.014 270.543 531.931C270.543 532.858 270.189 533.655 269.48 534.321C268.783 534.978 267.939 535.306 266.949 535.306ZM282.25 548.524V562.399H275.594V538.399H281.938V542.634H282.219C282.75 541.238 283.641 540.134 284.891 539.321C286.141 538.498 287.656 538.087 289.438 538.087C291.104 538.087 292.557 538.451 293.797 539.181C295.036 539.91 296 540.951 296.688 542.306C297.375 543.649 297.719 545.254 297.719 547.118V562.399H291.063V548.306C291.073 546.837 290.698 545.691 289.938 544.868C289.177 544.035 288.13 543.618 286.797 543.618C285.901 543.618 285.109 543.811 284.422 544.196C283.745 544.582 283.214 545.144 282.828 545.884C282.453 546.613 282.26 547.493 282.25 548.524ZM313.902 562.868C311.434 562.868 309.309 562.368 307.527 561.368C305.757 560.358 304.392 558.931 303.434 557.087C302.475 555.233 301.996 553.04 301.996 550.509C301.996 548.04 302.475 545.873 303.434 544.009C304.392 542.144 305.741 540.691 307.48 539.649C309.23 538.608 311.283 538.087 313.637 538.087C315.22 538.087 316.694 538.342 318.059 538.853C319.434 539.353 320.632 540.108 321.652 541.118C322.684 542.129 323.486 543.399 324.059 544.931C324.632 546.451 324.918 548.233 324.918 550.274V552.103H304.652V547.978H318.652C318.652 547.019 318.444 546.17 318.027 545.431C317.611 544.691 317.033 544.113 316.293 543.696C315.564 543.269 314.715 543.056 313.746 543.056C312.736 543.056 311.84 543.29 311.059 543.759C310.288 544.217 309.684 544.837 309.246 545.618C308.809 546.389 308.585 547.248 308.574 548.196V552.118C308.574 553.306 308.793 554.332 309.23 555.196C309.678 556.061 310.309 556.728 311.121 557.196C311.934 557.665 312.897 557.899 314.012 557.899C314.751 557.899 315.428 557.795 316.043 557.587C316.658 557.379 317.184 557.066 317.621 556.649C318.059 556.233 318.392 555.722 318.621 555.118L324.777 555.524C324.465 557.004 323.824 558.295 322.855 559.399C321.897 560.493 320.658 561.347 319.137 561.962C317.626 562.566 315.882 562.868 313.902 562.868ZM349.23 545.243L343.137 545.618C343.033 545.097 342.809 544.629 342.465 544.212C342.121 543.785 341.668 543.446 341.105 543.196C340.553 542.936 339.892 542.806 339.121 542.806C338.09 542.806 337.22 543.024 336.512 543.462C335.803 543.889 335.449 544.462 335.449 545.181C335.449 545.754 335.678 546.238 336.137 546.634C336.595 547.03 337.382 547.347 338.496 547.587L342.84 548.462C345.173 548.941 346.913 549.712 348.059 550.774C349.204 551.837 349.777 553.233 349.777 554.962C349.777 556.535 349.314 557.915 348.387 559.103C347.47 560.29 346.21 561.217 344.605 561.884C343.012 562.54 341.173 562.868 339.09 562.868C335.913 562.868 333.382 562.207 331.496 560.884C329.621 559.55 328.522 557.738 328.199 555.446L334.746 555.103C334.944 556.071 335.423 556.811 336.184 557.321C336.944 557.821 337.918 558.071 339.105 558.071C340.272 558.071 341.21 557.847 341.918 557.399C342.637 556.941 343.001 556.353 343.012 555.634C343.001 555.03 342.746 554.535 342.246 554.149C341.746 553.754 340.975 553.451 339.934 553.243L335.777 552.415C333.434 551.946 331.689 551.134 330.543 549.978C329.408 548.821 328.84 547.347 328.84 545.556C328.84 544.014 329.257 542.686 330.09 541.571C330.934 540.457 332.116 539.597 333.637 538.993C335.168 538.389 336.96 538.087 339.012 538.087C342.043 538.087 344.428 538.728 346.168 540.009C347.918 541.29 348.939 543.035 349.23 545.243ZM373.938 545.243L367.844 545.618C367.74 545.097 367.516 544.629 367.172 544.212C366.828 543.785 366.375 543.446 365.813 543.196C365.26 542.936 364.599 542.806 363.828 542.806C362.797 542.806 361.927 543.024 361.219 543.462C360.51 543.889 360.156 544.462 360.156 545.181C360.156 545.754 360.385 546.238 360.844 546.634C361.302 547.03 362.089 547.347 363.203 547.587L367.547 548.462C369.88 548.941 371.62 549.712 372.766 550.774C373.911 551.837 374.484 553.233 374.484 554.962C374.484 556.535 374.021 557.915 373.094 559.103C372.177 560.29 370.917 561.217 369.313 561.884C367.719 562.54 365.88 562.868 363.797 562.868C360.62 562.868 358.089 562.207 356.203 560.884C354.328 559.55 353.229 557.738 352.906 555.446L359.453 555.103C359.651 556.071 360.13 556.811 360.891 557.321C361.651 557.821 362.625 558.071 363.812 558.071C364.979 558.071 365.917 557.847 366.625 557.399C367.344 556.941 367.708 556.353 367.719 555.634C367.708 555.03 367.453 554.535 366.953 554.149C366.453 553.754 365.682 553.451 364.641 553.243L360.484 552.415C358.141 551.946 356.396 551.134 355.25 549.978C354.115 548.821 353.547 547.347 353.547 545.556C353.547 544.014 353.964 542.686 354.797 541.571C355.641 540.457 356.823 539.597 358.344 538.993C359.875 538.389 361.667 538.087 363.719 538.087C366.75 538.087 369.135 538.728 370.875 540.009C372.625 541.29 373.646 543.035 373.938 545.243ZM13.5 618.868C11.0417 618.868 8.92708 618.347 7.15625 617.306C5.39583 616.254 4.04167 614.795 3.09375 612.931C2.15625 611.066 1.6875 608.92 1.6875 606.493C1.6875 604.035 2.16146 601.879 3.10938 600.024C4.06771 598.16 5.42708 596.707 7.1875 595.665C8.94792 594.613 11.0417 594.087 13.4688 594.087C15.5625 594.087 17.3958 594.467 18.9688 595.228C20.5417 595.988 21.7865 597.056 22.7031 598.431C23.6198 599.806 24.125 601.42 24.2187 603.274H17.9375C17.7604 602.076 17.2917 601.113 16.5313 600.384C15.7813 599.644 14.7969 599.274 13.5781 599.274C12.5469 599.274 11.6458 599.556 10.875 600.118C10.1146 600.67 9.52083 601.478 9.09375 602.54C8.66667 603.603 8.45313 604.889 8.45313 606.399C8.45313 607.931 8.66146 609.233 9.07813 610.306C9.50521 611.379 10.1042 612.196 10.875 612.759C11.6458 613.321 12.5469 613.603 13.5781 613.603C14.3385 613.603 15.0208 613.446 15.625 613.134C16.2396 612.821 16.7448 612.368 17.1406 611.774C17.5469 611.17 17.8125 610.446 17.9375 609.603H24.2187C24.1146 611.436 23.6146 613.05 22.7188 614.446C21.8333 615.832 20.6094 616.915 19.0469 617.696C17.4844 618.478 15.6354 618.868 13.5 618.868ZM39.3242 618.868C36.8971 618.868 34.7982 618.353 33.0273 617.321C31.2669 616.28 29.9076 614.832 28.9492 612.978C27.9909 611.113 27.5117 608.951 27.5117 606.493C27.5117 604.014 27.9909 601.847 28.9492 599.993C29.9076 598.129 31.2669 596.681 33.0273 595.649C34.7982 594.608 36.8971 594.087 39.3242 594.087C41.7513 594.087 43.8451 594.608 45.6055 595.649C47.3763 596.681 48.7409 598.129 49.6992 599.993C50.6576 601.847 51.1367 604.014 51.1367 606.493C51.1367 608.951 50.6576 611.113 49.6992 612.978C48.7409 614.832 47.3763 616.28 45.6055 617.321C43.8451 618.353 41.7513 618.868 39.3242 618.868ZM39.3555 613.712C40.4596 613.712 41.3815 613.399 42.1211 612.774C42.8607 612.139 43.418 611.274 43.793 610.181C44.1784 609.087 44.3711 607.842 44.3711 606.446C44.3711 605.05 44.1784 603.806 43.793 602.712C43.418 601.618 42.8607 600.754 42.1211 600.118C41.3815 599.483 40.4596 599.165 39.3555 599.165C38.2409 599.165 37.3034 599.483 36.543 600.118C35.793 600.754 35.2253 601.618 34.8398 602.712C34.4648 603.806 34.2773 605.05 34.2773 606.446C34.2773 607.842 34.4648 609.087 34.8398 610.181C35.2253 611.274 35.793 612.139 36.543 612.774C37.3034 613.399 38.2409 613.712 39.3555 613.712ZM55.4648 618.399V594.399H61.8086V598.634H62.0898C62.5898 597.228 63.4232 596.118 64.5898 595.306C65.7565 594.493 67.1523 594.087 68.7773 594.087C70.4232 594.087 71.8242 594.498 72.9805 595.321C74.1367 596.134 74.9076 597.238 75.293 598.634H75.543C76.0326 597.259 76.918 596.16 78.1992 595.337C79.4909 594.504 81.0169 594.087 82.7773 594.087C85.0169 594.087 86.8346 594.8 88.2305 596.228C89.6367 597.644 90.3398 599.655 90.3398 602.259V618.399H83.6992V603.571C83.6992 602.238 83.3451 601.238 82.6367 600.571C81.9284 599.905 81.043 599.571 79.9805 599.571C78.7721 599.571 77.8294 599.957 77.1523 600.728C76.4753 601.488 76.1367 602.493 76.1367 603.743V618.399H69.6836V603.431C69.6836 602.254 69.3451 601.316 68.668 600.618C68.0013 599.92 67.1211 599.571 66.0273 599.571C65.2878 599.571 64.6211 599.759 64.0273 600.134C63.444 600.498 62.9805 601.014 62.6367 601.681C62.293 602.337 62.1211 603.108 62.1211 603.993V618.399H55.4648ZM95.5977 618.399V594.399H101.941V598.634H102.223C102.723 597.228 103.556 596.118 104.723 595.306C105.889 594.493 107.285 594.087 108.91 594.087C110.556 594.087 111.957 594.498 113.113 595.321C114.27 596.134 115.04 597.238 115.426 598.634H115.676C116.165 597.259 117.051 596.16 118.332 595.337C119.624 594.504 121.15 594.087 122.91 594.087C125.15 594.087 126.967 594.8 128.363 596.228C129.77 597.644 130.473 599.655 130.473 602.259V618.399H123.832V603.571C123.832 602.238 123.478 601.238 122.77 600.571C122.061 599.905 121.176 599.571 120.113 599.571C118.905 599.571 117.962 599.957 117.285 600.728C116.608 601.488 116.27 602.493 116.27 603.743V618.399H109.816V603.431C109.816 602.254 109.478 601.316 108.801 600.618C108.134 599.92 107.254 599.571 106.16 599.571C105.421 599.571 104.754 599.759 104.16 600.134C103.577 600.498 103.113 601.014 102.77 601.681C102.426 602.337 102.254 603.108 102.254 603.993V618.399H95.5977ZM151.121 608.181V594.399H157.777V618.399H151.387V614.04H151.137C150.595 615.446 149.694 616.576 148.434 617.431C147.184 618.285 145.658 618.712 143.855 618.712C142.251 618.712 140.84 618.347 139.621 617.618C138.402 616.889 137.449 615.853 136.762 614.509C136.085 613.165 135.741 611.556 135.73 609.681V594.399H142.387V608.493C142.397 609.91 142.777 611.03 143.527 611.853C144.277 612.675 145.283 613.087 146.543 613.087C147.345 613.087 148.095 612.905 148.793 612.54C149.491 612.165 150.053 611.613 150.48 610.884C150.918 610.155 151.132 609.254 151.121 608.181ZM169.758 604.524V618.399H163.102V594.399H169.445V598.634H169.727C170.258 597.238 171.148 596.134 172.398 595.321C173.648 594.498 175.164 594.087 176.945 594.087C178.612 594.087 180.065 594.451 181.305 595.181C182.544 595.91 183.508 596.951 184.195 598.306C184.883 599.649 185.227 601.254 185.227 603.118V618.399H178.57V604.306C178.581 602.837 178.206 601.691 177.445 600.868C176.685 600.035 175.638 599.618 174.305 599.618C173.409 599.618 172.617 599.811 171.93 600.196C171.253 600.582 170.721 601.144 170.336 601.884C169.961 602.613 169.768 603.493 169.758 604.524ZM190.473 618.399V594.399H197.129V618.399H190.473ZM193.816 591.306C192.827 591.306 191.978 590.978 191.27 590.321C190.572 589.655 190.223 588.858 190.223 587.931C190.223 587.014 190.572 586.228 191.27 585.571C191.978 584.905 192.827 584.571 193.816 584.571C194.806 584.571 195.65 584.905 196.348 585.571C197.056 586.228 197.41 587.014 197.41 587.931C197.41 588.858 197.056 589.655 196.348 590.321C195.65 590.978 194.806 591.306 193.816 591.306ZM213.305 618.868C210.846 618.868 208.732 618.347 206.961 617.306C205.201 616.254 203.846 614.795 202.898 612.931C201.961 611.066 201.492 608.92 201.492 606.493C201.492 604.035 201.966 601.879 202.914 600.024C203.872 598.16 205.232 596.707 206.992 595.665C208.753 594.613 210.846 594.087 213.273 594.087C215.367 594.087 217.201 594.467 218.773 595.228C220.346 595.988 221.591 597.056 222.508 598.431C223.424 599.806 223.93 601.42 224.023 603.274H217.742C217.565 602.076 217.096 601.113 216.336 600.384C215.586 599.644 214.602 599.274 213.383 599.274C212.352 599.274 211.451 599.556 210.68 600.118C209.919 600.67 209.326 601.478 208.898 602.54C208.471 603.603 208.258 604.889 208.258 606.399C208.258 607.931 208.466 609.233 208.883 610.306C209.31 611.379 209.909 612.196 210.68 612.759C211.451 613.321 212.352 613.603 213.383 613.603C214.143 613.603 214.826 613.446 215.43 613.134C216.044 612.821 216.549 612.368 216.945 611.774C217.352 611.17 217.617 610.446 217.742 609.603H224.023C223.919 611.436 223.419 613.05 222.523 614.446C221.638 615.832 220.414 616.915 218.852 617.696C217.289 618.478 215.44 618.868 213.305 618.868ZM235.129 618.853C233.598 618.853 232.233 618.587 231.035 618.056C229.837 617.514 228.889 616.717 228.191 615.665C227.504 614.603 227.16 613.28 227.16 611.696C227.16 610.363 227.405 609.243 227.895 608.337C228.384 607.431 229.051 606.701 229.895 606.149C230.738 605.597 231.697 605.181 232.77 604.899C233.853 604.618 234.988 604.42 236.176 604.306C237.572 604.16 238.697 604.024 239.551 603.899C240.405 603.764 241.025 603.566 241.41 603.306C241.796 603.045 241.988 602.66 241.988 602.149V602.056C241.988 601.066 241.676 600.3 241.051 599.759C240.436 599.217 239.561 598.946 238.426 598.946C237.228 598.946 236.275 599.212 235.566 599.743C234.858 600.264 234.389 600.92 234.16 601.712L228.004 601.212C228.316 599.754 228.931 598.493 229.848 597.431C230.764 596.358 231.947 595.535 233.395 594.962C234.853 594.379 236.54 594.087 238.457 594.087C239.79 594.087 241.066 594.243 242.285 594.556C243.514 594.868 244.603 595.353 245.551 596.009C246.509 596.665 247.264 597.509 247.816 598.54C248.368 599.561 248.645 600.785 248.645 602.212V618.399H242.332V615.071H242.145C241.759 615.821 241.243 616.483 240.598 617.056C239.952 617.618 239.176 618.061 238.27 618.384C237.363 618.696 236.316 618.853 235.129 618.853ZM237.035 614.259C238.014 614.259 238.879 614.066 239.629 613.681C240.379 613.285 240.967 612.754 241.395 612.087C241.822 611.42 242.035 610.665 242.035 609.821V607.274C241.827 607.41 241.54 607.535 241.176 607.649C240.822 607.754 240.421 607.853 239.973 607.946C239.525 608.03 239.077 608.108 238.629 608.181C238.181 608.243 237.775 608.3 237.41 608.353C236.629 608.467 235.947 608.649 235.363 608.899C234.78 609.149 234.327 609.488 234.004 609.915C233.681 610.332 233.52 610.853 233.52 611.478C233.52 612.384 233.848 613.076 234.504 613.556C235.171 614.024 236.014 614.259 237.035 614.259ZM266.574 594.399V599.399H252.121V594.399H266.574ZM255.402 588.649H262.059V611.024C262.059 611.639 262.152 612.118 262.34 612.462C262.527 612.795 262.788 613.03 263.121 613.165C263.465 613.3 263.861 613.368 264.309 613.368C264.621 613.368 264.934 613.342 265.246 613.29C265.559 613.228 265.798 613.181 265.965 613.149L267.012 618.103C266.678 618.207 266.21 618.326 265.605 618.462C265.001 618.608 264.267 618.696 263.402 618.728C261.798 618.79 260.392 618.576 259.184 618.087C257.986 617.597 257.053 616.837 256.387 615.806C255.72 614.774 255.392 613.472 255.402 611.899V588.649ZM270.91 618.399V594.399H277.566V618.399H270.91ZM274.254 591.306C273.264 591.306 272.415 590.978 271.707 590.321C271.009 589.655 270.66 588.858 270.66 587.931C270.66 587.014 271.009 586.228 271.707 585.571C272.415 584.905 273.264 584.571 274.254 584.571C275.243 584.571 276.087 584.905 276.785 585.571C277.493 586.228 277.848 587.014 277.848 587.931C277.848 588.858 277.493 589.655 276.785 590.321C276.087 590.978 275.243 591.306 274.254 591.306ZM293.742 618.868C291.315 618.868 289.216 618.353 287.445 617.321C285.685 616.28 284.326 614.832 283.367 612.978C282.409 611.113 281.93 608.951 281.93 606.493C281.93 604.014 282.409 601.847 283.367 599.993C284.326 598.129 285.685 596.681 287.445 595.649C289.216 594.608 291.315 594.087 293.742 594.087C296.169 594.087 298.263 594.608 300.023 595.649C301.794 596.681 303.159 598.129 304.117 599.993C305.076 601.847 305.555 604.014 305.555 606.493C305.555 608.951 305.076 611.113 304.117 612.978C303.159 614.832 301.794 616.28 300.023 617.321C298.263 618.353 296.169 618.868 293.742 618.868ZM293.773 613.712C294.878 613.712 295.799 613.399 296.539 612.774C297.279 612.139 297.836 611.274 298.211 610.181C298.596 609.087 298.789 607.842 298.789 606.446C298.789 605.05 298.596 603.806 298.211 602.712C297.836 601.618 297.279 600.754 296.539 600.118C295.799 599.483 294.878 599.165 293.773 599.165C292.659 599.165 291.721 599.483 290.961 600.118C290.211 600.754 289.643 601.618 289.258 602.712C288.883 603.806 288.695 605.05 288.695 606.446C288.695 607.842 288.883 609.087 289.258 610.181C289.643 611.274 290.211 612.139 290.961 612.774C291.721 613.399 292.659 613.712 293.773 613.712ZM316.539 604.524V618.399H309.883V594.399H316.227V598.634H316.508C317.039 597.238 317.93 596.134 319.18 595.321C320.43 594.498 321.945 594.087 323.727 594.087C325.393 594.087 326.846 594.451 328.086 595.181C329.326 595.91 330.289 596.951 330.977 598.306C331.664 599.649 332.008 601.254 332.008 603.118V618.399H325.352V604.306C325.362 602.837 324.987 601.691 324.227 600.868C323.466 600.035 322.419 599.618 321.086 599.618C320.19 599.618 319.398 599.811 318.711 600.196C318.034 600.582 317.503 601.144 317.117 601.884C316.742 602.613 316.549 603.493 316.539 604.524Z" fill="#304742"/>
<defs>
<clipPath id="clip0_429_62963">
<rect width="339" height="290" fill="white" transform="translate(0 109.399)"/>
</clipPath>
</defs>
</svg>
