<svg width="83" height="82" viewBox="0 0 83 82" fill="none" xmlns="http://www.w3.org/2000/svg">
<g clip-path="url(#clip0_824_52715)">
<path d="M43.6243 23.7909L27 40.4128V50.6667H37.2515L53.8758 34.0448C55.2436 32.6746 56 30.8548 56 28.9167C56 26.9785 55.2436 25.1588 53.8758 23.7909C51.0483 20.9634 46.4518 20.9634 43.6243 23.7909ZM50.4586 30.6252L35.2505 45.8333H31.8333V42.4138L47.0414 27.2081C47.9863 26.2656 49.5137 26.2656 50.4586 27.2081C50.9153 27.6624 51.1667 28.269 51.1667 28.9167C51.1667 29.5643 50.9153 30.1685 50.4586 30.6252ZM63.25 12H19.75C15.7528 12 12.5 15.2528 12.5 19.25V60.3333H29.2306L38.2907 67.9627C39.2138 68.782 40.3714 69.188 41.5218 69.188C42.6528 69.188 43.7717 68.7941 44.6441 68.0183L53.9434 60.3333H70.5024V19.25C70.5024 15.2528 67.2472 12 63.25 12ZM65.6667 55.5H52.2034L41.4541 64.3088L30.9972 55.5H17.3333V19.25C17.3333 17.9184 18.416 16.8333 19.75 16.8333H63.25C64.584 16.8333 65.6667 17.9184 65.6667 19.25V55.5Z" fill="#6ED47A"/>
</g>
<defs>
<clipPath id="clip0_824_52715">
<rect width="58" height="58" fill="white" transform="translate(12.5 12)"/>
</clipPath>
</defs>
</svg>
