<svg width="83" height="82" viewBox="0 0 83 82" fill="none" xmlns="http://www.w3.org/2000/svg">
<g clip-path="url(#clip0_830_53070)">
<path d="M14.1992 24.9407C15.1376 24.9407 15.8984 24.1799 15.8984 23.2415V15.3984H23.7415C24.6799 15.3984 25.4407 14.6376 25.4407 13.6992C25.4407 12.7608 24.6799 12 23.7415 12H14.1992C13.2608 12 12.5 12.7608 12.5 13.6992V23.2415C12.5 24.18 13.2608 24.9407 14.1992 24.9407Z" fill="#6ED47A"/>
<path d="M68.8008 12H59.2585C58.3201 12 57.5593 12.7608 57.5593 13.6992C57.5593 14.6376 58.3201 15.3984 59.2585 15.3984H67.1016V23.2415C67.1016 24.1799 67.8624 24.9407 68.8008 24.9407C69.7392 24.9407 70.5 24.1799 70.5 23.2415V13.6992C70.5 12.7608 69.7392 12 68.8008 12Z" fill="#6ED47A"/>
<path d="M68.8008 57.0593C67.8624 57.0593 67.1016 57.8201 67.1016 58.7585V66.6016H59.2585C58.3201 66.6016 57.5593 67.3624 57.5593 68.3008C57.5593 69.2392 58.3201 70 59.2585 70H68.8008C69.7392 70 70.5 69.2392 70.5 68.3008V58.7585C70.5 57.82 69.7392 57.0593 68.8008 57.0593Z" fill="#6ED47A"/>
<path d="M23.7415 66.6016H15.8984V58.7585C15.8984 57.8201 15.1376 57.0593 14.1992 57.0593C13.2608 57.0593 12.5 57.8201 12.5 58.7585V68.3008C12.5 69.2392 13.2608 70 14.1992 70H23.7415C24.6799 70 25.4407 69.2392 25.4407 68.3008C25.4407 67.3624 24.68 66.6016 23.7415 66.6016Z" fill="#6ED47A"/>
<path d="M60.0396 33.6798V22.9486C60.0396 22.4162 59.608 21.9846 59.0745 21.9846H41.5H23.9255C23.392 21.9846 22.9604 22.4162 22.9604 22.9486V33.6798C22.9604 34.2133 23.392 34.6449 23.9255 34.6449H29.0504C29.5828 34.6449 30.0144 34.2133 30.0144 33.6798V30.0038C30.0144 29.4702 30.4471 29.0386 30.9796 29.0386H37.0073C37.5408 29.0386 37.9724 29.4702 37.9724 30.0038V56.5275C37.9724 57.061 37.5408 57.4926 37.0073 57.4926H34.3712C33.8377 57.4926 33.4061 57.9242 33.4061 58.4578V63.5826C33.4061 64.1151 33.8377 64.5466 34.3712 64.5466H41.5H48.6288C49.1623 64.5466 49.5939 64.1151 49.5939 63.5826V58.4578C49.5939 57.9242 49.1623 57.4926 48.6288 57.4926H45.9927C45.4592 57.4926 45.0276 57.061 45.0276 56.5275V30.0038C45.0276 29.4702 45.4592 29.0386 45.9927 29.0386H52.0204C52.5528 29.0386 52.9856 29.4702 52.9856 30.0038V33.6798C52.9856 34.2133 53.4172 34.6449 53.9496 34.6449H59.0745C59.608 34.6449 60.0396 34.2133 60.0396 33.6798Z" fill="#6ED47A"/>
</g>
<defs>
<clipPath id="clip0_830_53070">
<rect width="58" height="58" fill="white" transform="translate(12.5 12)"/>
</clipPath>
</defs>
</svg>
